<svg xmlns="http://www.w3.org/2000/svg" xmlns:xlink="http://www.w3.org/1999/xlink" width="500" zoomAndPan="magnify" viewBox="0 0 375 374.999991" height="500" preserveAspectRatio="xMidYMid meet" version="1.0"><defs><clipPath id="f316ffdf60"><path d="M 0.0195312 56.71875 L 374.011719 56.71875 L 374.011719 318.234375 L 0.0195312 318.234375 Z M 0.0195312 56.71875 " clip-rule="nonzero"/></clipPath><clipPath id="4992b4ab78"><path d="M 0.0195312 56.71875 L 374.011719 56.71875 L 374.011719 318.234375 L 0.0195312 318.234375 Z M 0.0195312 56.71875 " clip-rule="nonzero"/></clipPath><clipPath id="026f05cf10"><path d="M 53.390625 93.953125 L 321.578125 93.953125 L 321.578125 280.957031 L 53.390625 280.957031 Z M 53.390625 93.953125 " clip-rule="nonzero"/></clipPath><clipPath id="fe3b417509"><path d="M 53.390625 93.953125 L 321.578125 93.953125 L 321.578125 280.957031 L 53.390625 280.957031 Z M 53.390625 93.953125 " clip-rule="nonzero"/></clipPath><clipPath id="1d47404a7d"><path d="M 143.304688 220 L 209 220 L 209 240 L 143.304688 240 Z M 143.304688 220 " clip-rule="nonzero"/></clipPath><clipPath id="6222a5c198"><path d="M 155 124.035156 L 195 124.035156 L 195 139 L 155 139 Z M 155 124.035156 " clip-rule="nonzero"/></clipPath><clipPath id="34886441d3"><path d="M 158 241 L 180 241 L 180 249.90625 L 158 249.90625 Z M 158 241 " clip-rule="nonzero"/></clipPath><clipPath id="96a0e1b787"><path d="M 269 153 L 288.371094 153 L 288.371094 224 L 269 224 Z M 269 153 " clip-rule="nonzero"/></clipPath><clipPath id="dd2b1abb7e"><path d="M 164 260 L 201 260 L 201 274.566406 L 164 274.566406 Z M 164 260 " clip-rule="nonzero"/></clipPath></defs><g clip-path="url(#f316ffdf60)"><path fill="#000000" d="M 290.984375 297.617188 C 337.28125 297.617188 374.949219 259.921875 374.949219 213.589844 C 374.949219 195.125 369.050781 177.585938 357.894531 162.878906 C 357.09375 161.828125 356.269531 160.792969 355.425781 159.78125 C 351.773438 155.417969 347.683594 151.4375 343.246094 147.902344 L 342.59375 147.382812 L 329.820312 137.199219 L 329.554688 136.988281 C 324.667969 133.09375 319.355469 129.738281 313.75 127.011719 C 307.445312 112.074219 297.554688 99.035156 284.753906 88.832031 L 284.734375 88.816406 L 271.0625 77.921875 L 271.046875 77.90625 C 270.109375 77.160156 269.15625 76.425781 268.1875 75.710938 C 251.386719 63.285156 231.460938 56.71875 210.5625 56.71875 C 187.902344 56.71875 165.941406 64.675781 148.519531 79.164062 C 138.683594 74.789062 128.1875 72.570312 117.292969 72.570312 C 99.132812 72.570312 81.5 79.058594 67.644531 90.839844 C 65.800781 92.410156 64.039062 94.058594 62.359375 95.777344 C 51.910156 106.503906 44.761719 120.082031 41.917969 134.761719 C 34.441406 138.589844 27.671875 143.601562 21.847656 149.578125 C 18.179688 153.34375 14.886719 157.492188 12.03125 161.96875 C 4.171875 174.289062 0.0195312 188.546875 0.0195312 203.195312 C 0.0195312 227.5 11.355469 249.207031 29.015625 263.296875 C 29.019531 263.300781 29.027344 263.304688 29.03125 263.308594 L 42.683594 274.199219 L 42.699219 274.210938 L 42.714844 274.226562 C 55.835938 284.683594 72.441406 290.941406 90.476562 290.941406 C 98.535156 290.941406 106.492188 289.671875 114.160156 287.160156 L 123.769531 294.824219 C 142.578125 309.828125 166.222656 318.234375 190.433594 318.234375 C 216.167969 318.234375 241 308.878906 260.554688 291.851562 C 270.320312 295.679688 280.546875 297.617188 290.984375 297.617188 Z M 290.984375 297.617188 " fill-opacity="1" fill-rule="nonzero"/></g><path fill="#363636" d="M 210.5625 59.542969 C 252.417969 59.542969 287.992188 86.964844 300.289062 124.800781 C 333.863281 134.746094 358.433594 165.894531 358.433594 202.675781 C 358.433594 247.449219 322.035156 283.875 277.292969 283.875 C 266.546875 283.875 256.027344 281.707031 246.304688 277.664062 C 227.5 294.574219 202.777344 304.492188 176.746094 304.492188 C 147.910156 304.492188 121.148438 292.589844 101.984375 272.734375 C 94.011719 275.644531 85.5 277.199219 76.792969 277.199219 C 36.015625 277.199219 2.839844 244.003906 2.839844 203.195312 C 2.839844 173.992188 19.832031 148.6875 44.441406 136.65625 C 50.492188 101.898438 80.855469 75.394531 117.292969 75.394531 C 128.523438 75.394531 139.292969 77.894531 148.976562 82.476562 C 165.714844 68.019531 187.40625 59.542969 210.5625 59.542969 Z M 210.5625 59.542969 " fill-opacity="1" fill-rule="nonzero"/><g clip-path="url(#4992b4ab78)"><path stroke-linecap="butt" transform="matrix(0.389742, 0, 0, 0.389742, 0.0182187, 56.717773)" fill="none" stroke-linejoin="miter" d="M 540.214234 7.248883 C 647.606939 7.248883 738.883222 77.607893 770.434527 174.687291 C 856.579212 200.20496 919.621687 280.125579 919.621687 374.498861 C 919.621687 489.378487 826.230625 582.839707 711.431181 582.839707 C 683.858868 582.839707 656.867869 577.277136 631.92149 566.903692 C 583.672448 610.291748 520.23909 635.739259 453.448144 635.739259 C 379.460934 635.739259 310.795752 605.200242 261.624627 554.255107 C 241.168396 561.721982 219.329039 565.710997 196.98855 565.710997 C 92.362097 565.710997 7.239722 480.538508 7.239722 375.831874 C 7.239722 300.902535 50.838254 235.975802 113.980955 205.106037 C 129.506041 115.924488 207.412107 47.920801 300.903396 47.920801 C 329.718517 47.920801 357.350966 54.335298 382.197118 66.091867 C 425.144178 28.998036 480.799959 7.248883 540.214234 7.248883 Z M 540.214234 7.248883 " stroke="#000000" stroke-width="10" stroke-opacity="1" stroke-miterlimit="10"/></g><g clip-path="url(#026f05cf10)"><path fill="#000000" d="M 261.519531 266.265625 C 294.636719 266.265625 321.578125 239.304688 321.578125 206.164062 C 321.578125 192.953125 317.359375 180.410156 309.378906 169.890625 C 308.804688 169.136719 308.21875 168.398438 307.613281 167.675781 C 305 164.554688 302.074219 161.703125 298.902344 159.175781 L 298.433594 158.804688 L 289.296875 151.519531 L 289.109375 151.371094 C 285.609375 148.585938 281.8125 146.183594 277.800781 144.234375 C 273.292969 133.550781 266.21875 124.222656 257.0625 116.921875 L 257.046875 116.910156 L 247.269531 109.117188 L 247.253906 109.109375 C 246.585938 108.574219 245.902344 108.050781 245.210938 107.539062 C 233.195312 98.648438 218.941406 93.953125 203.992188 93.953125 C 187.78125 93.953125 172.074219 99.644531 159.613281 110.007812 C 152.578125 106.878906 145.070312 105.292969 137.277344 105.292969 C 124.285156 105.292969 111.671875 109.933594 101.761719 118.359375 C 100.445312 119.480469 99.183594 120.660156 97.984375 121.890625 C 90.507812 129.566406 85.394531 139.277344 83.359375 149.777344 C 78.015625 152.515625 73.171875 156.101562 69.003906 160.375 C 66.382812 163.070312 64.027344 166.035156 61.984375 169.238281 C 56.363281 178.050781 53.390625 188.25 53.390625 198.726562 C 53.390625 216.113281 61.5 231.640625 74.132812 241.71875 C 74.136719 241.71875 74.140625 241.722656 74.144531 241.726562 L 83.90625 249.515625 L 83.921875 249.523438 L 83.933594 249.535156 C 93.316406 257.015625 105.191406 261.492188 118.09375 261.492188 C 123.859375 261.492188 129.550781 260.582031 135.035156 258.789062 L 141.910156 264.269531 C 155.363281 275 172.277344 281.015625 189.59375 281.015625 C 208 281.015625 225.761719 274.324219 239.753906 262.144531 C 246.738281 264.882812 254.050781 266.265625 261.519531 266.265625 Z M 261.519531 266.265625 " fill-opacity="1" fill-rule="nonzero"/></g><path fill="#0599d5" d="M 203.992188 95.972656 C 233.929688 95.972656 259.378906 115.585938 268.171875 142.652344 C 292.191406 149.765625 309.765625 172.046875 309.765625 198.355469 C 309.765625 230.382812 283.726562 256.4375 251.726562 256.4375 C 244.039062 256.4375 236.511719 254.886719 229.558594 251.996094 C 216.109375 264.09375 198.425781 271.1875 179.804688 271.1875 C 159.175781 271.1875 140.035156 262.671875 126.324219 248.46875 C 120.621094 250.550781 114.535156 251.664062 108.308594 251.664062 C 79.140625 251.664062 55.410156 227.917969 55.410156 198.726562 C 55.410156 177.839844 67.5625 159.738281 85.164062 151.132812 C 89.492188 126.269531 111.214844 107.3125 137.277344 107.3125 C 145.308594 107.3125 153.011719 109.101562 159.941406 112.378906 C 171.914062 102.035156 187.429688 95.972656 203.992188 95.972656 Z M 203.992188 95.972656 " fill-opacity="1" fill-rule="nonzero"/><g clip-path="url(#fe3b417509)"><path stroke-linecap="butt" transform="matrix(0.278782, 0, 0, 0.278782, 53.390226, 93.952326)" fill="none" stroke-linejoin="miter" d="M 540.2139 7.246988 C 647.60064 7.246988 738.887775 77.600435 770.428427 174.688472 C 856.587229 200.204032 919.626496 280.127566 919.626496 374.497307 C 919.626496 489.38038 826.223572 582.839351 711.438581 582.839351 C 683.863281 582.839351 656.862466 577.276651 631.921391 566.90789 C 583.678627 610.302557 520.247029 635.748058 453.452589 635.748058 C 379.456063 635.748058 310.798049 605.202247 261.616491 554.255198 C 241.159205 561.723509 219.328759 565.716883 196.993886 565.716883 C 92.367479 565.716883 7.245553 480.53891 7.245553 375.828431 C 7.245553 300.907124 50.836386 235.976259 113.973736 205.108176 C 129.498855 115.922817 207.418695 47.923358 300.90569 47.923358 C 329.714032 47.923358 357.34538 54.340781 382.202384 66.096715 C 425.148672 28.993363 480.8037 7.246988 540.2139 7.246988 Z M 540.2139 7.246988 " stroke="#000000" stroke-width="10" stroke-opacity="1" stroke-miterlimit="10"/></g><path fill="#000000" d="M 174.980469 160.660156 C 174.980469 160.980469 174.953125 161.300781 174.898438 161.617188 C 174.84375 161.933594 174.761719 162.238281 174.652344 162.539062 C 174.542969 162.835938 174.410156 163.117188 174.25 163.386719 C 174.09375 163.652344 173.914062 163.902344 173.714844 164.128906 C 173.511719 164.355469 173.292969 164.5625 173.058594 164.738281 C 172.820312 164.917969 172.570312 165.070312 172.308594 165.191406 C 172.046875 165.316406 171.777344 165.410156 171.496094 165.472656 C 171.21875 165.535156 170.9375 165.566406 170.652344 165.566406 C 170.371094 165.566406 170.089844 165.535156 169.808594 165.472656 C 169.53125 165.410156 169.261719 165.316406 168.996094 165.191406 C 168.734375 165.070312 168.484375 164.917969 168.25 164.738281 C 168.011719 164.5625 167.792969 164.355469 167.59375 164.128906 C 167.394531 163.902344 167.214844 163.652344 167.054688 163.386719 C 166.898438 163.117188 166.765625 162.835938 166.65625 162.539062 C 166.546875 162.238281 166.464844 161.933594 166.410156 161.617188 C 166.355469 161.300781 166.328125 160.980469 166.328125 160.660156 C 166.328125 160.335938 166.355469 160.019531 166.410156 159.703125 C 166.464844 159.386719 166.546875 159.078125 166.65625 158.78125 C 166.765625 158.484375 166.898438 158.203125 167.054688 157.933594 C 167.214844 157.664062 167.394531 157.417969 167.59375 157.191406 C 167.792969 156.960938 168.011719 156.757812 168.25 156.582031 C 168.484375 156.402344 168.734375 156.25 168.996094 156.125 C 169.261719 156.003906 169.53125 155.910156 169.808594 155.847656 C 170.089844 155.785156 170.371094 155.753906 170.652344 155.753906 C 170.9375 155.753906 171.21875 155.785156 171.496094 155.847656 C 171.777344 155.910156 172.046875 156.003906 172.308594 156.125 C 172.570312 156.25 172.820312 156.402344 173.058594 156.582031 C 173.292969 156.757812 173.511719 156.960938 173.714844 157.191406 C 173.914062 157.417969 174.09375 157.664062 174.25 157.933594 C 174.410156 158.203125 174.542969 158.484375 174.652344 158.78125 C 174.761719 159.078125 174.84375 159.386719 174.898438 159.703125 C 174.953125 160.019531 174.980469 160.335938 174.980469 160.660156 Z M 174.980469 160.660156 " fill-opacity="1" fill-rule="nonzero"/><path fill="#000000" d="M 223.753906 166.867188 C 223.753906 167.1875 223.722656 167.507812 223.667969 167.824219 C 223.613281 168.140625 223.53125 168.445312 223.421875 168.746094 C 223.3125 169.042969 223.179688 169.324219 223.023438 169.59375 C 222.863281 169.859375 222.6875 170.109375 222.484375 170.335938 C 222.285156 170.5625 222.066406 170.765625 221.828125 170.945312 C 221.59375 171.125 221.34375 171.277344 221.082031 171.398438 C 220.820312 171.523438 220.546875 171.617188 220.269531 171.679688 C 219.992188 171.742188 219.710938 171.773438 219.425781 171.773438 C 219.140625 171.773438 218.859375 171.742188 218.582031 171.679688 C 218.300781 171.617188 218.03125 171.523438 217.769531 171.398438 C 217.507812 171.277344 217.257812 171.125 217.019531 170.945312 C 216.785156 170.765625 216.566406 170.5625 216.363281 170.335938 C 216.164062 170.109375 215.984375 169.859375 215.828125 169.59375 C 215.667969 169.324219 215.535156 169.042969 215.425781 168.746094 C 215.320312 168.445312 215.234375 168.140625 215.179688 167.824219 C 215.125 167.507812 215.097656 167.1875 215.097656 166.867188 C 215.097656 166.542969 215.125 166.226562 215.179688 165.910156 C 215.234375 165.59375 215.320312 165.285156 215.425781 164.988281 C 215.535156 164.691406 215.667969 164.410156 215.828125 164.140625 C 215.984375 163.871094 216.164062 163.625 216.363281 163.398438 C 216.566406 163.167969 216.785156 162.964844 217.019531 162.785156 C 217.257812 162.609375 217.507812 162.457031 217.769531 162.332031 C 218.03125 162.210938 218.300781 162.117188 218.582031 162.054688 C 218.859375 161.992188 219.140625 161.960938 219.425781 161.960938 C 219.710938 161.960938 219.992188 161.992188 220.269531 162.054688 C 220.546875 162.117188 220.820312 162.210938 221.082031 162.332031 C 221.34375 162.457031 221.59375 162.609375 221.828125 162.785156 C 222.066406 162.964844 222.285156 163.167969 222.484375 163.398438 C 222.6875 163.625 222.863281 163.871094 223.023438 164.140625 C 223.179688 164.410156 223.3125 164.691406 223.421875 164.988281 C 223.53125 165.285156 223.613281 165.59375 223.667969 165.910156 C 223.722656 166.226562 223.753906 166.542969 223.753906 166.867188 Z M 223.753906 166.867188 " fill-opacity="1" fill-rule="nonzero"/><path fill="#000000" d="M 206.097656 159.28125 C 208.597656 164.863281 210.3125 170.699219 211.730469 176.585938 C 213.207031 182.46875 214.449219 188.398438 215.507812 194.363281 L 217.003906 203.316406 L 217.347656 205.5625 L 217.515625 206.683594 C 217.523438 206.972656 217.613281 206.789062 217.558594 207.625 C 217.492188 208.316406 217.175781 208.921875 216.992188 209.058594 C 215.246094 210.914062 213.875 211.199219 212.359375 211.964844 C 209.394531 213.195312 206.414062 214.140625 203.378906 214.941406 C 200.3125 215.707031 197.324219 216.449219 193.925781 216.480469 C 193.351562 216.488281 192.878906 216.035156 192.875 215.476562 C 192.871094 214.960938 193.257812 214.535156 193.765625 214.460938 L 193.921875 214.441406 C 199.589844 213.632812 205.632812 211.472656 210.925781 208.996094 C 212.132812 208.414062 213.699219 207.453125 214 207.03125 C 214.136719 206.914062 213.871094 207.140625 213.886719 207.457031 C 213.988281 207.929688 213.882812 207.375 213.863281 207.292969 L 213.171875 203.988281 L 211.210938 195.207031 L 206.929688 177.734375 C 205.402344 171.933594 203.921875 166.136719 202.984375 160.160156 C 202.847656 159.292969 203.460938 158.476562 204.351562 158.34375 C 205.097656 158.230469 205.808594 158.632812 206.097656 159.28125 Z M 206.097656 159.28125 " fill-opacity="1" fill-rule="nonzero"/><g clip-path="url(#1d47404a7d)"><path fill="#000000" d="M 145.84375 220.917969 L 160.363281 227.523438 C 165.238281 229.601562 170.230469 231.425781 175.339844 232.925781 C 185.5625 235.941406 196.28125 237.410156 207.070312 237.460938 C 207.648438 237.460938 208.113281 237.921875 208.113281 238.484375 C 208.109375 239.015625 207.691406 239.449219 207.160156 239.5 C 196.1875 240.476562 185.015625 239.535156 174.203125 237.058594 C 168.796875 235.808594 163.480469 234.117188 158.378906 231.9375 C 153.257812 229.816406 148.335938 227.140625 144.101562 223.578125 C 143.410156 223.011719 143.320312 222.007812 143.902344 221.335938 C 144.382812 220.777344 145.195312 220.632812 145.84375 220.917969 Z M 145.84375 220.917969 " fill-opacity="1" fill-rule="nonzero"/></g><g clip-path="url(#6222a5c198)"><path fill="#000000" d="M 155.652344 136.242188 C 157.398438 133.132812 160.242188 130.742188 163.371094 129.035156 C 166.476562 127.257812 169.898438 126.042969 173.394531 125.371094 C 180.363281 124.03125 187.753906 124.609375 194.082031 127.507812 C 194.605469 127.746094 194.832031 128.355469 194.585938 128.867188 C 194.363281 129.332031 193.824219 129.554688 193.335938 129.414062 C 187.101562 127.644531 180.476562 127.738281 174.441406 129.519531 C 171.421875 130.414062 168.554688 131.660156 165.871094 133.1875 C 163.214844 134.785156 160.777344 136.554688 158.078125 138.339844 L 158.039062 138.363281 C 157.28125 138.863281 156.246094 138.671875 155.734375 137.929688 C 155.371094 137.410156 155.363281 136.761719 155.652344 136.242188 Z M 155.652344 136.242188 " fill-opacity="1" fill-rule="nonzero"/></g><path fill="#000000" d="M 216.378906 131.558594 C 219.378906 131.707031 222.164062 133.085938 224.402344 134.957031 C 226.699219 136.78125 228.585938 139.09375 229.914062 141.660156 C 232.566406 146.789062 233.207031 152.746094 231.585938 158.019531 C 231.417969 158.5625 230.832031 158.871094 230.273438 158.707031 C 229.785156 158.566406 229.484375 158.09375 229.53125 157.617188 C 230.019531 152.671875 228.820312 147.695312 226.117188 143.800781 C 224.773438 141.855469 223.117188 140.15625 221.273438 138.6875 C 219.375 137.265625 217.417969 136.0625 215.351562 134.554688 L 215.289062 134.507812 C 214.546875 133.96875 214.394531 132.941406 214.949219 132.214844 C 215.296875 131.765625 215.84375 131.539062 216.378906 131.558594 Z M 216.378906 131.558594 " fill-opacity="1" fill-rule="nonzero"/><g clip-path="url(#34886441d3)"><path fill="#000000" d="M 160.941406 241.980469 C 162.683594 242.207031 164.019531 242.820312 165.382812 243.492188 C 166.769531 244.105469 168.171875 244.699219 169.628906 245.21875 C 172.542969 246.269531 175.683594 246.769531 178.929688 246.894531 C 179.511719 246.914062 179.972656 247.386719 179.957031 247.957031 C 179.945312 248.414062 179.613281 248.800781 179.183594 248.925781 C 175.785156 249.84375 172.136719 249.898438 168.566406 249.367188 C 166.777344 249.097656 165.003906 248.617188 163.34375 247.882812 C 161.664062 247.210938 160.078125 246.207031 159.082031 244.566406 C 158.582031 243.742188 158.859375 242.679688 159.707031 242.191406 C 160.0625 241.984375 160.464844 241.914062 160.847656 241.96875 Z M 160.941406 241.980469 " fill-opacity="1" fill-rule="nonzero"/></g><path fill="#ffffff" d="M 191.457031 270.167969 L 191.457031 265.191406 C 262.777344 265.191406 263.609375 223.050781 263.609375 222.628906 L 269.304688 222.628906 C 269.304688 223.101562 268.40625 270.167969 191.457031 270.167969 " fill-opacity="1" fill-rule="nonzero"/><path fill="#0e0d0c" d="M 191.457031 270.167969 L 192.542969 270.167969 L 192.542969 265.191406 L 191.457031 265.191406 L 191.457031 266.28125 C 209.390625 266.28125 222.953125 263.632812 233.214844 259.617188 C 248.605469 253.597656 256.539062 244.464844 260.546875 236.789062 C 262.550781 232.949219 263.585938 229.480469 264.121094 226.9375 C 264.386719 225.667969 264.53125 224.628906 264.605469 223.890625 C 264.644531 223.519531 264.664062 223.222656 264.675781 223.015625 C 264.691406 222.796875 264.691406 222.683594 264.691406 222.628906 L 263.609375 222.628906 L 263.609375 223.714844 L 269.304688 223.714844 L 269.304688 222.628906 L 268.21875 222.628906 L 268.53125 222.628906 L 268.21875 222.621094 L 268.21875 222.628906 L 268.53125 222.628906 L 268.21875 222.621094 C 268.21875 222.738281 268.148438 225.730469 266.871094 230.105469 C 264.953125 236.675781 260.347656 246.367188 249.140625 254.460938 C 237.925781 262.550781 220.042969 269.074219 191.457031 269.078125 L 191.457031 270.167969 L 192.542969 270.167969 L 191.457031 270.167969 L 191.457031 271.257812 C 210.800781 271.257812 225.429688 268.296875 236.488281 263.816406 C 253.085938 257.097656 261.617188 246.917969 265.933594 238.371094 C 268.089844 234.097656 269.203125 230.234375 269.777344 227.410156 C 270.0625 225.992188 270.214844 224.839844 270.296875 224.019531 C 270.335938 223.609375 270.359375 223.28125 270.375 223.046875 C 270.386719 222.8125 270.386719 222.683594 270.386719 222.628906 C 270.386719 222.335938 270.277344 222.0625 270.070312 221.855469 C 269.867188 221.648438 269.59375 221.539062 269.304688 221.539062 L 263.609375 221.539062 C 263.320312 221.539062 263.039062 221.652344 262.839844 221.855469 C 262.636719 222.058594 262.523438 222.339844 262.523438 222.628906 L 262.535156 222.628906 L 262.519531 222.625 L 262.523438 222.628906 L 262.535156 222.628906 L 262.519531 222.625 C 262.519531 222.804688 262.4375 225.503906 261.242188 229.417969 C 259.433594 235.296875 255.144531 243.917969 244.765625 251.113281 C 234.378906 258.304688 217.839844 264.101562 191.457031 264.101562 C 191.171875 264.101562 190.890625 264.214844 190.6875 264.421875 C 190.488281 264.625 190.371094 264.902344 190.371094 265.191406 L 190.371094 270.167969 C 190.371094 270.453125 190.488281 270.734375 190.6875 270.9375 C 190.890625 271.140625 191.171875 271.257812 191.457031 271.257812 L 191.457031 270.167969 " fill-opacity="1" fill-rule="nonzero"/><path fill="#ffffff" d="M 274.019531 156.558594 C 274.019531 136.179688 269.136719 113.667969 254.277344 97.261719 C 249.015625 91.453125 242.3125 86.097656 235.53125 81.644531 C 228.757812 77.199219 220.078125 74.128906 212.109375 71.683594 C 193.652344 66.015625 173.210938 69.25 156.140625 76.886719 C 148.292969 80.402344 141.28125 85.746094 135.019531 91.117188 C 127.0625 97.945312 121.550781 106.121094 117.375 115.105469 C 111.925781 126.820312 109.625 138.875 109.082031 151.46875 C 109.0625 151.894531 108.910156 156.558594 108.894531 156.558594 L 116.234375 156.558594 C 116.234375 156.558594 111.445312 84.179688 191.457031 83.601562 C 271.46875 84.179688 266.683594 156.558594 266.683594 156.558594 L 274.019531 156.558594 " fill-opacity="1" fill-rule="nonzero"/><path fill="#0e0d0c" d="M 274.019531 156.558594 L 275.105469 156.558594 C 275.101562 146.28125 273.875 135.457031 270.757812 125.105469 C 267.644531 114.753906 262.640625 104.871094 255.082031 96.53125 C 249.730469 90.628906 242.964844 85.222656 236.125 80.730469 C 229.1875 76.183594 220.425781 73.101562 212.425781 70.640625 C 205.867188 68.625 199.074219 67.71875 192.277344 67.71875 C 179.609375 67.71875 166.929688 70.867188 155.699219 75.894531 C 147.699219 79.480469 140.609375 84.886719 134.316406 90.289062 C 126.222656 97.238281 120.613281 105.554688 116.390625 114.644531 C 110.875 126.511719 108.542969 138.726562 107.996094 151.421875 C 107.984375 151.652344 107.941406 152.910156 107.898438 154.136719 C 107.878906 154.746094 107.859375 155.34375 107.84375 155.78125 C 107.835938 156.003906 107.828125 156.1875 107.820312 156.308594 L 107.816406 156.445312 L 107.816406 156.464844 L 108.613281 156.523438 L 107.820312 156.429688 L 107.816406 156.464844 L 108.613281 156.523438 L 107.820312 156.429688 L 108.855469 156.550781 L 107.832031 156.339844 L 107.820312 156.429688 L 108.855469 156.550781 L 107.832031 156.339844 L 108.886719 156.558594 L 107.878906 156.175781 C 107.84375 156.273438 107.839844 156.308594 107.832031 156.339844 L 108.886719 156.558594 L 107.878906 156.175781 L 108.894531 156.558594 L 108.015625 155.921875 C 107.921875 156.054688 107.902344 156.121094 107.878906 156.175781 L 108.894531 156.558594 L 108.015625 155.921875 L 108.894531 156.558594 L 108.269531 155.667969 C 108.132812 155.769531 108.0625 155.855469 108.015625 155.921875 L 108.894531 156.558594 L 108.269531 155.667969 L 108.894531 156.558594 L 108.894531 155.46875 C 108.625 155.46875 108.402344 155.574219 108.269531 155.667969 L 108.894531 156.558594 L 108.894531 155.46875 C 108.609375 155.46875 108.328125 155.585938 108.125 155.789062 C 107.925781 155.992188 107.808594 156.273438 107.808594 156.558594 C 107.808594 156.847656 107.925781 157.128906 108.125 157.332031 C 108.328125 157.535156 108.609375 157.648438 108.894531 157.648438 L 116.234375 157.648438 C 116.535156 157.648438 116.820312 157.523438 117.027344 157.304688 C 117.230469 157.082031 117.335938 156.789062 117.316406 156.484375 L 117.3125 156.457031 C 117.304688 156.300781 117.261719 155.527344 117.261719 154.257812 C 117.257812 148.195312 118.21875 130.84375 127.941406 115.070312 C 132.804688 107.175781 139.835938 99.671875 150.0625 94.082031 C 160.292969 88.492188 173.742188 84.820312 191.464844 84.691406 L 191.457031 83.601562 L 191.449219 84.691406 C 209.171875 84.820312 222.617188 88.492188 232.847656 94.082031 C 240.523438 98.269531 246.394531 103.542969 250.902344 109.242188 C 257.664062 117.796875 261.359375 127.332031 263.355469 135.597656 C 265.351562 143.863281 265.652344 150.847656 265.652344 154.257812 C 265.652344 154.980469 265.636719 155.542969 265.625 155.925781 C 265.617188 156.113281 265.613281 156.257812 265.605469 156.351562 L 265.601562 156.457031 L 265.597656 156.488281 C 265.578125 156.789062 265.683594 157.082031 265.890625 157.304688 C 266.09375 157.523438 266.382812 157.648438 266.683594 157.648438 L 274.019531 157.648438 C 274.308594 157.648438 274.582031 157.535156 274.785156 157.332031 C 274.992188 157.125 275.105469 156.851562 275.105469 156.558594 L 274.019531 156.558594 L 274.019531 155.46875 L 266.683594 155.46875 L 266.683594 156.558594 L 267.765625 156.632812 C 267.765625 156.609375 267.824219 155.757812 267.824219 154.257812 C 267.816406 147.976562 266.871094 130.261719 256.816406 113.917969 C 251.792969 105.753906 244.46875 97.945312 233.886719 92.164062 C 223.300781 86.382812 209.472656 82.640625 191.464844 82.511719 L 191.449219 82.511719 C 173.441406 82.640625 159.613281 86.382812 149.027344 92.164062 C 141.089844 96.5 134.984375 101.976562 130.3125 107.890625 C 123.296875 116.761719 119.5 126.597656 117.449219 135.085938 C 115.398438 143.574219 115.09375 150.722656 115.09375 154.257812 C 115.09375 155.761719 115.148438 156.609375 115.148438 156.632812 L 116.234375 156.558594 L 116.234375 155.46875 L 108.894531 155.46875 C 108.609375 155.46875 108.328125 155.585938 108.125 155.789062 C 107.925781 155.992188 107.808594 156.273438 107.808594 156.558594 C 107.808594 156.851562 107.921875 157.125 108.125 157.332031 C 108.332031 157.535156 108.605469 157.648438 108.894531 157.648438 C 109.128906 157.648438 109.339844 157.566406 109.472656 157.484375 C 109.605469 157.394531 109.683594 157.3125 109.738281 157.246094 C 109.84375 157.113281 109.871094 157.039062 109.894531 156.984375 C 109.9375 156.875 109.945312 156.835938 109.953125 156.796875 L 109.972656 156.695312 L 109.980469 156.601562 C 109.988281 156.464844 110 156.140625 110.019531 155.671875 C 110.070312 154.285156 110.152344 151.800781 110.164062 151.515625 C 110.703125 139.023438 112.984375 127.125 118.355469 115.566406 C 122.488281 106.683594 127.910156 98.65625 135.726562 91.945312 C 141.949219 86.601562 148.886719 81.328125 156.582031 77.882812 C 167.566406 72.964844 179.964844 69.898438 192.277344 69.902344 C 198.882812 69.902344 205.460938 70.78125 211.792969 72.726562 C 219.722656 75.160156 228.328125 78.214844 234.941406 82.558594 C 241.65625 86.96875 248.296875 92.28125 253.476562 97.996094 C 260.777344 106.058594 265.640625 115.632812 268.679688 125.738281 C 271.722656 135.835938 272.933594 146.457031 272.933594 156.558594 L 274.019531 156.558594 L 274.019531 155.46875 L 274.019531 156.558594 " fill-opacity="1" fill-rule="nonzero"/><path fill="#ffffff" d="M 266.453125 225.386719 L 250 225.386719 L 250 151.585938 L 266.453125 151.585938 L 266.453125 225.386719 " fill-opacity="1" fill-rule="nonzero"/><path fill="#0e0d0c" d="M 266.453125 225.386719 L 266.453125 224.296875 L 251.085938 224.296875 L 251.085938 152.675781 L 265.367188 152.675781 L 265.367188 225.386719 L 266.453125 225.386719 L 266.453125 224.296875 L 266.453125 225.386719 L 267.535156 225.386719 L 267.535156 151.585938 C 267.535156 151.300781 267.421875 151.019531 267.21875 150.8125 C 267.019531 150.613281 266.738281 150.496094 266.453125 150.496094 L 250 150.496094 C 249.714844 150.496094 249.4375 150.613281 249.230469 150.8125 C 249.03125 151.019531 248.914062 151.300781 248.914062 151.585938 L 248.914062 225.386719 C 248.914062 225.675781 249.03125 225.957031 249.230469 226.15625 C 249.4375 226.363281 249.714844 226.476562 250 226.476562 L 266.453125 226.476562 C 266.738281 226.476562 267.019531 226.363281 267.21875 226.15625 C 267.421875 225.957031 267.535156 225.675781 267.535156 225.386719 L 266.453125 225.386719 " fill-opacity="1" fill-rule="nonzero"/><path fill="#ffffff" d="M 270.570312 154.347656 L 270.570312 222.628906 L 287.023438 213.78125 L 287.023438 163.199219 L 270.570312 154.347656 " fill-opacity="1" fill-rule="nonzero"/><g clip-path="url(#96a0e1b787)"><path fill="#0e0d0c" d="M 270.570312 154.347656 L 269.484375 154.347656 L 269.484375 222.628906 C 269.484375 223.007812 269.683594 223.367188 270.011719 223.5625 C 270.335938 223.757812 270.746094 223.769531 271.082031 223.589844 L 287.535156 214.738281 C 287.886719 214.546875 288.109375 214.183594 288.109375 213.78125 L 288.109375 163.199219 C 288.109375 162.796875 287.886719 162.429688 287.535156 162.238281 L 271.082031 153.390625 C 270.746094 153.207031 270.335938 153.21875 270.011719 153.414062 C 269.683594 153.609375 269.484375 153.96875 269.484375 154.347656 L 270.570312 154.347656 L 270.054688 155.3125 L 285.933594 163.851562 L 285.9375 185.863281 L 285.9375 213.125 L 271.652344 220.804688 L 271.652344 154.347656 L 270.570312 154.347656 L 270.054688 155.3125 L 270.570312 154.347656 " fill-opacity="1" fill-rule="nonzero"/></g><path fill="#ffffff" d="M 266.453125 231.800781 C 262.402344 231.800781 259.117188 228.929688 259.117188 225.386719 L 259.117188 151.585938 C 259.117188 148.050781 262.402344 145.175781 266.453125 145.175781 C 270.507812 145.175781 273.792969 148.050781 273.792969 151.585938 L 273.792969 225.386719 C 273.792969 228.929688 270.507812 231.800781 266.453125 231.800781 " fill-opacity="1" fill-rule="nonzero"/><path fill="#0e0d0c" d="M 266.453125 231.800781 L 266.453125 230.710938 C 264.683594 230.710938 263.101562 230.082031 261.976562 229.097656 C 260.851562 228.113281 260.203125 226.808594 260.203125 225.386719 L 260.203125 151.585938 C 260.203125 150.164062 260.851562 148.863281 261.976562 147.878906 C 263.101562 146.894531 264.683594 146.265625 266.453125 146.265625 C 268.222656 146.265625 269.808594 146.894531 270.929688 147.878906 C 272.054688 148.863281 272.707031 150.164062 272.707031 151.585938 L 272.707031 225.386719 C 272.707031 226.808594 272.054688 228.113281 270.929688 229.097656 C 269.808594 230.082031 268.222656 230.710938 266.453125 230.707031 L 266.453125 232.890625 C 268.734375 232.886719 270.820312 232.082031 272.355469 230.742188 C 273.886719 229.40625 274.875 227.503906 274.875 225.386719 L 274.875 151.585938 C 274.875 149.472656 273.886719 147.566406 272.355469 146.230469 C 270.820312 144.894531 268.734375 144.089844 266.453125 144.085938 C 264.171875 144.089844 262.085938 144.894531 260.554688 146.230469 C 259.023438 147.566406 258.03125 149.472656 258.03125 151.585938 L 258.03125 225.386719 C 258.03125 227.503906 259.019531 229.40625 260.554688 230.742188 C 262.085938 232.082031 264.171875 232.886719 266.453125 232.886719 L 266.453125 231.800781 " fill-opacity="1" fill-rule="nonzero"/><path fill="#ffffff" d="M 108.894531 151.585938 L 125.347656 151.585938 L 125.347656 225.386719 L 108.894531 225.386719 L 108.894531 151.585938 " fill-opacity="1" fill-rule="nonzero"/><path fill="#0e0d0c" d="M 108.894531 151.585938 L 108.894531 152.675781 L 124.261719 152.675781 L 124.261719 224.296875 L 109.980469 224.296875 L 109.980469 151.585938 L 108.894531 151.585938 L 108.894531 152.675781 L 108.894531 151.585938 L 107.808594 151.585938 L 107.808594 225.386719 C 107.808594 225.675781 107.925781 225.957031 108.125 226.15625 C 108.328125 226.363281 108.609375 226.476562 108.894531 226.476562 L 125.347656 226.476562 C 125.636719 226.476562 125.914062 226.363281 126.117188 226.15625 C 126.320312 225.957031 126.433594 225.675781 126.433594 225.386719 L 126.433594 151.585938 C 126.433594 151.300781 126.320312 151.019531 126.117188 150.8125 C 125.914062 150.613281 125.636719 150.496094 125.347656 150.496094 L 108.894531 150.496094 C 108.609375 150.496094 108.328125 150.613281 108.125 150.8125 C 107.925781 151.019531 107.808594 151.300781 107.808594 151.585938 L 108.894531 151.585938 " fill-opacity="1" fill-rule="nonzero"/><path fill="#ffffff" d="M 104.78125 222.628906 L 104.78125 154.347656 L 88.328125 163.199219 L 88.328125 213.78125 L 104.78125 222.628906 " fill-opacity="1" fill-rule="nonzero"/><path fill="#0e0d0c" d="M 104.78125 222.628906 L 105.867188 222.628906 L 105.867188 154.347656 C 105.867188 153.96875 105.667969 153.609375 105.339844 153.414062 C 105.015625 153.21875 104.605469 153.207031 104.273438 153.390625 L 87.816406 162.238281 C 87.460938 162.429688 87.242188 162.796875 87.242188 163.199219 L 87.242188 213.78125 C 87.242188 214.183594 87.460938 214.546875 87.816406 214.738281 L 104.273438 223.589844 C 104.605469 223.769531 105.015625 223.757812 105.339844 223.5625 C 105.667969 223.367188 105.867188 223.007812 105.867188 222.628906 L 104.78125 222.628906 L 105.292969 221.664062 L 89.410156 213.125 L 89.410156 163.851562 L 103.699219 156.171875 L 103.699219 222.628906 L 104.78125 222.628906 L 105.292969 221.664062 L 104.78125 222.628906 " fill-opacity="1" fill-rule="nonzero"/><path fill="#ffffff" d="M 108.894531 145.175781 C 112.949219 145.175781 116.234375 148.050781 116.234375 151.585938 L 116.234375 225.386719 C 116.234375 228.929688 112.949219 231.800781 108.894531 231.800781 C 104.84375 231.800781 101.558594 228.929688 101.558594 225.386719 L 101.558594 151.585938 C 101.558594 148.050781 104.84375 145.175781 108.894531 145.175781 " fill-opacity="1" fill-rule="nonzero"/><path fill="#0e0d0c" d="M 108.894531 145.175781 L 108.894531 146.265625 C 110.664062 146.265625 112.25 146.894531 113.371094 147.878906 C 114.492188 148.863281 115.148438 150.164062 115.148438 151.585938 L 115.148438 225.386719 C 115.148438 226.808594 114.492188 228.113281 113.371094 229.097656 C 112.25 230.082031 110.664062 230.710938 108.894531 230.710938 C 107.125 230.710938 105.539062 230.082031 104.417969 229.097656 C 103.296875 228.109375 102.644531 226.808594 102.644531 225.386719 L 102.644531 151.585938 C 102.644531 150.164062 103.292969 148.863281 104.417969 147.878906 C 105.539062 146.894531 107.125 146.265625 108.894531 146.265625 L 108.894531 144.085938 C 106.613281 144.089844 104.527344 144.894531 102.996094 146.230469 C 101.460938 147.566406 100.46875 149.472656 100.46875 151.585938 L 100.46875 225.386719 C 100.46875 227.503906 101.460938 229.40625 102.996094 230.742188 C 104.527344 232.082031 106.613281 232.886719 108.894531 232.890625 C 111.175781 232.886719 113.261719 232.082031 114.796875 230.742188 C 116.328125 229.40625 117.320312 227.503906 117.320312 225.386719 L 117.320312 151.585938 C 117.320312 149.472656 116.328125 147.566406 114.796875 146.230469 C 113.261719 144.894531 111.175781 144.089844 108.894531 144.085938 L 108.894531 145.175781 " fill-opacity="1" fill-rule="nonzero"/><path fill="#ffffff" d="M 165.824219 267.476562 C 165.824219 270.792969 168.90625 273.484375 172.707031 273.484375 L 192.167969 273.484375 C 195.96875 273.484375 199.050781 270.792969 199.050781 267.476562 C 199.050781 264.152344 195.96875 261.460938 192.167969 261.460938 L 172.707031 261.460938 C 168.90625 261.460938 165.824219 264.152344 165.824219 267.476562 " fill-opacity="1" fill-rule="nonzero"/><g clip-path="url(#dd2b1abb7e)"><path fill="#0e0d0c" d="M 165.824219 267.476562 L 164.738281 267.476562 C 164.738281 269.480469 165.679688 271.285156 167.128906 272.546875 C 168.582031 273.816406 170.554688 274.574219 172.707031 274.574219 L 192.167969 274.574219 C 194.324219 274.574219 196.296875 273.816406 197.75 272.546875 C 199.199219 271.285156 200.140625 269.480469 200.136719 267.476562 C 200.140625 265.46875 199.199219 263.664062 197.75 262.398438 C 196.296875 261.132812 194.324219 260.371094 192.167969 260.371094 L 172.707031 260.371094 C 170.554688 260.371094 168.582031 261.132812 167.128906 262.398438 C 165.679688 263.664062 164.738281 265.46875 164.738281 267.476562 L 166.910156 267.476562 C 166.914062 266.160156 167.511719 264.960938 168.554688 264.046875 C 169.59375 263.136719 171.0625 262.550781 172.707031 262.550781 L 192.167969 262.550781 C 193.816406 262.550781 195.285156 263.136719 196.324219 264.046875 C 197.363281 264.960938 197.964844 266.160156 197.964844 267.476562 C 197.964844 268.785156 197.363281 269.988281 196.324219 270.902344 C 195.285156 271.8125 193.8125 272.394531 192.167969 272.394531 L 172.707031 272.394531 C 171.0625 272.394531 169.59375 271.8125 168.554688 270.902344 C 167.511719 269.988281 166.914062 268.785156 166.910156 267.476562 L 165.824219 267.476562 " fill-opacity="1" fill-rule="nonzero"/></g></svg>