<svg xmlns="http://www.w3.org/2000/svg" xmlns:xlink="http://www.w3.org/1999/xlink" width="800" zoomAndPan="magnify" viewBox="0 0 600 337.499995" height="450" preserveAspectRatio="xMidYMid meet" version="1.0"><defs><g/><clipPath id="25f7238b63"><path d="M 305 23.523438 L 475.609375 23.523438 L 475.609375 199 L 305 199 Z M 305 23.523438 " clip-rule="nonzero"/></clipPath><clipPath id="5ecb01281f"><path d="M 124.484375 197 L 237.785156 197 L 237.785156 313.421875 L 124.484375 313.421875 Z M 124.484375 197 " clip-rule="nonzero"/></clipPath></defs><path fill="#f8a016" d="M 262.019531 223.917969 C 237.140625 223.917969 216.929688 203.703125 216.929688 178.855469 C 216.929688 154.03125 237.140625 133.855469 262.019531 133.855469 C 286.886719 133.855469 307.121094 154.03125 307.121094 178.855469 C 307.121094 203.703125 286.886719 223.917969 262.019531 223.917969 Z M 326.8125 184.402344 C 326.972656 182.578125 327.050781 180.742188 327.050781 178.855469 C 327.050781 177.019531 326.972656 175.183594 326.8125 173.335938 L 345.828125 160.328125 C 346.929688 159.617188 347.410156 158.210938 347.089844 156.925781 C 346.136719 153.242188 345.023438 149.878906 343.804688 146.675781 C 343.320312 145.402344 342.179688 144.734375 340.785156 144.652344 L 317.664062 145.296875 C 315.761719 142.226562 313.628906 139.242188 311.214844 136.441406 L 318.964844 114.566406 C 319.367188 113.347656 319.046875 111.9375 317.972656 111.070312 C 315.476562 109.03125 312.753906 107.035156 309.226562 104.8125 C 308.117188 104.0625 306.652344 104.15625 305.582031 104.972656 L 287.289062 119.050781 C 283.800781 117.578125 280.273438 116.414062 276.746094 115.609375 L 270.296875 93.546875 C 269.933594 92.300781 268.753906 91.363281 267.4375 91.28125 L 266.367188 91.203125 C 263.480469 91.015625 260.546875 91.015625 257.648438 91.203125 L 256.628906 91.28125 C 255.273438 91.363281 254.175781 92.300781 253.773438 93.546875 L 247.28125 115.609375 C 243.792969 116.414062 240.226562 117.578125 236.738281 119.050781 L 218.488281 104.972656 C 217.414062 104.15625 215.910156 104.0625 214.796875 104.8125 C 211.351562 107.035156 208.535156 109.03125 206.054688 111.070312 C 205.0625 111.9375 204.660156 113.347656 205.128906 114.566406 L 212.894531 136.441406 C 210.441406 139.242188 208.265625 142.226562 206.402344 145.296875 L 183.308594 144.652344 C 182.113281 144.695312 180.734375 145.402344 180.222656 146.675781 C 178.988281 149.878906 177.875 153.242188 176.9375 156.925781 C 176.617188 158.210938 177.097656 159.617188 178.199219 160.328125 L 197.257812 173.335938 C 197.054688 175.183594 196.976562 177.019531 196.976562 178.855469 C 196.976562 180.742188 197.054688 182.578125 197.257812 184.402344 L 178.199219 197.394531 C 177.097656 198.183594 176.617188 199.523438 176.9375 200.835938 C 177.875 204.523438 178.988281 207.859375 180.222656 211.058594 C 180.734375 212.304688 182.113281 213.214844 183.308594 213.09375 L 206.402344 212.464844 C 208.265625 215.519531 210.441406 218.507812 212.894531 221.308594 L 205.128906 243.171875 C 204.660156 244.417969 205.0625 245.824219 206.054688 246.695312 C 208.628906 248.730469 211.472656 250.792969 214.796875 252.9375 C 215.992188 253.660156 217.414062 253.59375 218.488281 252.761719 L 236.738281 238.683594 C 240.265625 240.183594 243.792969 241.347656 247.28125 242.125 L 253.773438 264.214844 C 254.175781 265.503906 255.273438 266.386719 256.628906 266.480469 L 258.050781 266.574219 C 259.351562 266.667969 260.664062 266.734375 262.019531 266.734375 C 263.363281 266.734375 264.703125 266.667969 266.058594 266.574219 L 267.4375 266.480469 C 268.753906 266.386719 269.933594 265.503906 270.296875 264.214844 L 276.746094 242.125 C 280.273438 241.347656 283.800781 240.183594 287.289062 238.683594 L 305.582031 252.761719 C 306.652344 253.578125 308.117188 253.660156 309.226562 252.9375 C 312.59375 250.792969 315.476562 248.730469 317.972656 246.695312 C 319.046875 245.824219 319.367188 244.417969 318.964844 243.171875 L 311.214844 221.308594 C 313.628906 218.507812 315.800781 215.519531 317.664062 212.464844 L 340.785156 213.09375 C 342.179688 213.175781 343.320312 212.304688 343.804688 211.058594 C 345.0625 207.859375 346.136719 204.523438 347.089844 200.835938 C 347.410156 199.523438 346.929688 198.183594 345.828125 197.394531 L 326.8125 184.402344 " fill-opacity="1" fill-rule="nonzero"/><path fill="#ffffff" d="M 377.988281 193.160156 C 360.957031 193.160156 347.089844 206.933594 347.089844 223.945312 C 347.089844 240.960938 360.957031 254.757812 377.988281 254.757812 C 394.941406 254.757812 408.796875 240.960938 408.796875 223.945312 C 408.796875 206.933594 394.941406 193.160156 377.988281 193.160156 Z M 377.988281 295.347656 C 376.796875 295.347656 375.601562 295.296875 374.664062 295.230469 L 373.550781 295.160156 C 370.894531 294.972656 368.640625 293.179688 367.929688 290.648438 L 363.53125 275.777344 C 362.070312 275.347656 360.632812 274.878906 359.132812 274.34375 L 346.820312 283.816406 C 345.746094 284.644531 344.394531 285.140625 342.972656 285.140625 C 341.777344 285.140625 340.597656 284.765625 339.566406 284.164062 C 336.988281 282.503906 334.695312 280.839844 332.511719 279.074219 C 330.457031 277.371094 329.667969 274.546875 330.539062 272.066406 L 335.835938 257.371094 C 334.816406 256.164062 333.945312 254.917969 333.074219 253.660156 L 317.625 254.117188 C 317.464844 254.117188 317.382812 254.117188 317.222656 254.117188 C 314.765625 254.117188 312.394531 252.46875 311.480469 250.097656 C 310.488281 247.523438 309.578125 244.804688 308.785156 241.832031 C 308.117188 239.257812 309.148438 236.566406 311.28125 235.039062 L 324.15625 226.238281 C 324.113281 225.5 324.113281 224.710938 324.113281 223.945312 C 324.113281 223.183594 324.113281 222.417969 324.195312 221.640625 L 311.359375 212.867188 C 309.148438 211.421875 308.117188 208.714844 308.785156 206.144531 C 309.578125 203.074219 310.449219 200.355469 311.480469 197.757812 C 312.351562 195.519531 314.6875 193.9375 317.222656 193.816406 C 317.300781 193.816406 317.464844 193.816406 317.464844 193.816406 L 333.074219 194.234375 C 333.945312 192.988281 334.882812 191.714844 335.835938 190.550781 L 330.539062 175.8125 C 329.667969 173.335938 330.457031 170.535156 332.511719 168.847656 C 334.574219 167.144531 336.789062 165.523438 339.566406 163.769531 C 340.597656 163.113281 341.777344 162.777344 342.972656 162.777344 C 344.394531 162.777344 345.746094 163.234375 346.820312 164.105469 L 359.132812 173.574219 C 360.632812 173 362.097656 172.53125 363.53125 172.117188 L 367.929688 157.257812 C 368.667969 154.699219 370.933594 152.917969 373.550781 152.769531 L 374.300781 152.703125 C 375.535156 152.609375 376.714844 152.582031 377.988281 152.582031 C 379.167969 152.582031 380.441406 152.609375 381.636719 152.703125 L 382.375 152.769531 C 385.003906 152.917969 387.257812 154.699219 387.96875 157.257812 L 392.40625 172.128906 C 393.828125 172.53125 395.289062 173 396.75 173.574219 L 409.117188 164.066406 C 410.148438 163.234375 411.53125 162.777344 412.925781 162.777344 C 414.144531 162.777344 415.339844 163.113281 416.320312 163.769531 C 419.175781 165.566406 421.386719 167.171875 423.453125 168.847656 C 425.4375 170.535156 426.269531 173.335938 425.359375 175.8125 L 420.128906 190.550781 C 421.078125 191.714844 421.992188 192.988281 422.824219 194.234375 C 422.824219 194.234375 438.460938 193.816406 438.5 193.816406 C 438.582031 193.816406 438.621094 193.816406 438.664062 193.816406 C 441.316406 193.9375 443.53125 195.453125 444.441406 197.808594 C 445.433594 200.355469 446.308594 203.074219 447.136719 206.101562 C 447.769531 208.714844 446.734375 211.421875 444.523438 212.882812 L 431.730469 221.640625 C 431.769531 222.417969 431.769531 223.183594 431.769531 223.945312 C 431.769531 224.710938 431.769531 225.5 431.730469 226.238281 L 444.605469 235.039062 C 446.734375 236.527344 447.769531 239.21875 447.136719 241.765625 C 446.347656 244.832031 445.433594 247.566406 444.441406 250.136719 C 443.492188 252.519531 441.195312 254.117188 438.664062 254.117188 C 438.582031 254.117188 438.433594 254.117188 438.339844 254.117188 L 422.824219 253.660156 C 421.992188 254.917969 421.078125 256.164062 420.128906 257.371094 L 425.359375 272.105469 C 426.230469 274.546875 425.4375 277.371094 423.453125 279.03125 C 421.363281 280.773438 419.015625 282.421875 416.320312 284.164062 C 415.339844 284.765625 414.1875 285.101562 412.925781 285.101562 C 411.570312 285.101562 410.230469 284.644531 409.117188 283.84375 L 396.75 274.34375 C 395.328125 274.878906 393.828125 275.347656 392.40625 275.777344 L 387.96875 290.660156 C 387.257812 293.140625 385.042969 294.972656 382.375 295.160156 L 381.234375 295.230469 C 380.28125 295.296875 379.128906 295.347656 377.988281 295.347656 " fill-opacity="1" fill-rule="nonzero"/><path fill="#abd91a" d="M 377.988281 258.601562 C 358.8125 258.601562 343.292969 243.0625 343.292969 223.945312 C 343.292969 204.828125 358.8125 189.304688 377.988281 189.304688 C 397.074219 189.304688 412.644531 204.828125 412.644531 223.945312 C 412.644531 243.0625 397.074219 258.601562 377.988281 258.601562 Z M 427.8125 228.191406 C 427.894531 226.785156 427.972656 225.378906 427.972656 223.945312 C 427.972656 222.511719 427.894531 221.105469 427.8125 219.714844 L 442.429688 209.679688 C 443.261719 209.128906 443.652344 208.070312 443.421875 207.09375 C 442.617188 204.226562 441.828125 201.65625 440.886719 199.191406 C 440.484375 198.226562 439.574219 197.691406 438.5 197.636719 L 420.71875 198.105469 C 419.335938 195.761719 417.632812 193.484375 415.769531 191.339844 L 421.75 174.515625 C 422.074219 173.535156 421.789062 172.476562 420.960938 171.78125 C 419.09375 170.253906 416.960938 168.714844 414.265625 166.984375 C 413.394531 166.4375 412.28125 166.488281 411.492188 167.105469 L 397.394531 177.929688 C 394.699219 176.804688 392.003906 175.90625 389.308594 175.316406 L 384.277344 158.316406 C 384.011719 157.339844 383.140625 156.644531 382.105469 156.601562 L 381.316406 156.523438 C 379.089844 156.386719 376.796875 156.386719 374.582031 156.523438 L 373.792969 156.601562 C 372.757812 156.644531 371.886719 157.339844 371.605469 158.316406 L 366.617188 175.316406 C 363.921875 175.90625 361.199219 176.804688 358.503906 177.929688 L 344.472656 167.105469 C 343.601562 166.488281 342.488281 166.4375 341.65625 166.984375 C 338.976562 168.714844 336.828125 170.253906 334.925781 171.78125 C 334.148438 172.476562 333.824219 173.535156 334.1875 174.515625 L 340.15625 191.339844 C 338.292969 193.484375 336.628906 195.761719 335.167969 198.105469 L 317.382812 197.636719 C 316.511719 197.675781 315.410156 198.226562 315.050781 199.191406 C 314.054688 201.65625 313.265625 204.226562 312.515625 207.09375 C 312.273438 208.070312 312.636719 209.128906 313.507812 209.679688 L 328.152344 219.714844 C 328.003906 221.105469 327.964844 222.511719 327.964844 223.945312 C 327.964844 225.378906 328.003906 226.785156 328.152344 228.191406 L 313.507812 238.199219 C 312.636719 238.804688 312.273438 239.847656 312.515625 240.839844 C 313.265625 243.679688 314.054688 246.25 315.050781 248.730469 C 315.410156 249.679688 316.511719 250.363281 317.382812 250.257812 L 335.167969 249.773438 C 336.628906 252.132812 338.292969 254.410156 340.15625 256.582031 L 334.1875 273.394531 C 333.824219 274.382812 334.148438 275.457031 334.925781 276.113281 C 336.871094 277.691406 339.097656 279.273438 341.65625 280.910156 C 342.488281 281.472656 343.601562 281.429688 344.472656 280.773438 L 358.527344 269.949219 C 361.226562 271.074219 363.921875 271.984375 366.617188 272.601562 L 371.605469 289.601562 C 371.886719 290.539062 372.757812 291.265625 373.792969 291.316406 L 374.890625 291.425781 C 375.921875 291.4375 376.917969 291.53125 377.988281 291.53125 C 378.96875 291.53125 380.039062 291.4375 380.992188 291.425781 L 382.105469 291.316406 C 383.140625 291.265625 384.011719 290.539062 384.277344 289.601562 L 389.308594 272.601562 C 391.964844 271.984375 394.699219 271.074219 397.394531 269.949219 L 411.492188 280.773438 C 412.28125 281.402344 413.394531 281.472656 414.265625 280.910156 C 416.84375 279.273438 419.054688 277.691406 420.960938 276.113281 C 421.789062 275.457031 422.074219 274.382812 421.75 273.394531 L 415.769531 256.582031 C 417.632812 254.410156 419.335938 252.132812 420.71875 249.773438 L 438.5 250.257812 C 439.574219 250.324219 440.484375 249.679688 440.886719 248.730469 C 441.828125 246.25 442.699219 243.679688 443.421875 240.839844 C 443.652344 239.847656 443.261719 238.804688 442.429688 238.199219 L 427.8125 228.191406 " fill-opacity="1" fill-rule="nonzero"/><g clip-path="url(#25f7238b63)"><path fill="#ffffff" d="M 390.5 73.34375 C 369.675781 73.34375 352.707031 90.289062 352.707031 111.121094 C 352.707031 131.953125 369.675781 148.914062 390.5 148.914062 C 411.410156 148.914062 428.363281 131.953125 428.363281 111.121094 C 428.363281 90.289062 411.410156 73.34375 390.5 73.34375 Z M 390.5 198.722656 C 389.082031 198.722656 387.683594 198.652344 386.464844 198.558594 L 385.191406 198.480469 C 381.863281 198.265625 379.089844 196.054688 378.21875 192.949219 L 372.839844 174.703125 C 371.054688 174.207031 369.273438 173.644531 367.449219 172.945312 L 352.320312 184.574219 C 351.046875 185.578125 349.300781 186.195312 347.597656 186.195312 C 346.136719 186.195312 344.675781 185.765625 343.453125 184.976562 C 340.277344 182.953125 337.417969 180.929688 334.738281 178.746094 C 332.242188 176.671875 331.25 173.214844 332.429688 170.171875 L 338.8125 152.113281 C 337.660156 150.613281 336.5625 149.128906 335.488281 147.558594 L 316.511719 148.136719 C 316.351562 148.136719 316.203125 148.136719 316.042969 148.136719 C 313.023438 148.136719 310.101562 146.101562 308.988281 143.191406 C 307.714844 140.03125 306.652344 136.710938 305.660156 133 C 304.871094 129.902344 306.105469 126.582031 308.746094 124.734375 L 324.515625 113.949219 C 324.476562 113.050781 324.476562 112.074219 324.476562 111.121094 C 324.476562 110.183594 324.476562 109.246094 324.515625 108.253906 L 308.785156 97.523438 C 306.144531 95.730469 304.871094 92.40625 305.660156 89.246094 C 306.652344 85.535156 307.714844 82.171875 308.988281 78.984375 C 310.058594 76.25 312.875 74.269531 316.042969 74.148438 C 316.121094 74.148438 316.351562 74.148438 316.351562 74.148438 L 335.488281 74.644531 C 336.5625 73.128906 337.660156 71.601562 338.8125 70.117188 L 332.351562 52.015625 C 331.25 49.015625 332.242188 45.574219 334.738281 43.511719 C 337.273438 41.421875 340.035156 39.4375 343.453125 37.28125 C 344.675781 36.492188 346.136719 36.0625 347.597656 36.0625 C 349.300781 36.0625 350.976562 36.664062 352.320312 37.667969 L 367.449219 49.3125 C 369.273438 48.613281 371.09375 48.023438 372.839844 47.542969 L 378.21875 29.308594 C 379.128906 26.160156 381.90625 23.953125 385.191406 23.777344 L 386.0625 23.710938 C 387.484375 23.628906 389.039062 23.535156 390.5 23.535156 C 392.003906 23.535156 393.507812 23.628906 395.023438 23.710938 L 395.972656 23.777344 C 399.140625 23.953125 401.902344 26.160156 402.8125 29.308594 L 408.203125 47.542969 C 409.988281 48.039062 411.8125 48.613281 413.597656 49.3125 L 428.765625 37.628906 C 430.023438 36.664062 431.6875 36.0625 433.433594 36.0625 C 434.933594 36.0625 436.367188 36.492188 437.628906 37.28125 C 441.078125 39.492188 443.8125 41.472656 446.308594 43.511719 C 448.800781 45.574219 449.792969 49.015625 448.679688 52.058594 L 442.230469 70.117188 C 443.421875 71.601562 444.523438 73.101562 445.554688 74.644531 C 445.554688 74.644531 464.800781 74.148438 464.839844 74.148438 C 464.882812 74.148438 464.960938 74.148438 465.042969 74.148438 C 468.246094 74.269531 470.984375 76.15625 472.082031 79.0625 C 473.359375 82.132812 474.390625 85.46875 475.382812 89.246094 C 476.175781 92.40625 474.941406 95.730469 472.257812 97.523438 L 456.566406 108.253906 C 456.566406 109.246094 456.566406 110.183594 456.566406 111.121094 C 456.566406 112.074219 456.566406 113.050781 456.566406 113.949219 L 472.257812 124.734375 C 474.941406 126.582031 476.175781 129.863281 475.382812 132.984375 C 474.390625 136.75 473.359375 140.070312 472.058594 143.273438 C 470.945312 146.21875 468.140625 148.136719 465.042969 148.136719 C 464.882812 148.136719 464.800781 148.136719 464.652344 148.136719 L 445.554688 147.558594 C 444.523438 149.128906 443.421875 150.613281 442.230469 152.113281 L 448.679688 170.199219 C 449.792969 173.214844 448.800781 176.671875 446.347656 178.71875 C 443.730469 180.835938 440.914062 182.875 437.601562 184.976562 C 436.410156 185.738281 434.933594 186.15625 433.472656 186.15625 C 431.769531 186.15625 430.105469 185.621094 428.765625 184.613281 L 413.597656 172.945312 C 411.8125 173.644531 409.988281 174.207031 408.203125 174.703125 L 402.8125 192.949219 C 401.980469 196.027344 399.179688 198.265625 395.972656 198.480469 L 394.539062 198.558594 C 393.34375 198.652344 391.964844 198.722656 390.5 198.722656 " fill-opacity="1" fill-rule="nonzero"/></g><path fill="#6db6e7" d="M 390.5 153.640625 C 367.058594 153.640625 348 134.566406 348 111.121094 C 348 87.691406 367.058594 68.613281 390.5 68.613281 C 414.027344 68.613281 433.082031 87.691406 433.082031 111.121094 C 433.082031 134.566406 414.027344 153.640625 390.5 153.640625 Z M 451.65625 116.332031 C 451.820312 114.589844 451.886719 112.863281 451.886719 111.121094 C 451.886719 109.367188 451.820312 107.625 451.65625 105.882812 L 469.644531 93.640625 C 470.660156 92.929688 471.144531 91.644531 470.824219 90.4375 C 469.871094 86.914062 468.878906 83.753906 467.738281 80.726562 C 467.214844 79.558594 466.15625 78.902344 464.839844 78.835938 L 443.019531 79.4375 C 441.277344 76.503906 439.210938 73.71875 436.917969 71.066406 L 444.253906 50.476562 C 444.683594 49.269531 444.296875 47.957031 443.34375 47.152344 C 440.96875 45.226562 438.378906 43.347656 435.066406 41.234375 C 433.996094 40.550781 432.601562 40.601562 431.660156 41.378906 L 414.347656 54.683594 C 411.0625 53.304688 407.777344 52.191406 404.449219 51.425781 L 398.347656 30.609375 C 397.984375 29.429688 396.914062 28.558594 395.613281 28.480469 L 394.699219 28.414062 C 391.921875 28.226562 389.082031 28.226562 386.382812 28.414062 L 385.433594 28.480469 C 384.171875 28.558594 383.140625 29.429688 382.738281 30.609375 L 376.632812 51.425781 C 373.308594 52.191406 369.980469 53.304688 366.695312 54.683594 L 349.460938 41.378906 C 348.429688 40.601562 347.046875 40.550781 345.988281 41.234375 C 342.648438 43.347656 340.074219 45.226562 337.742188 47.152344 C 336.789062 47.957031 336.398438 49.269531 336.789062 50.476562 L 344.164062 71.066406 C 341.859375 73.71875 339.804688 76.503906 338.0625 79.4375 L 316.203125 78.835938 C 315.167969 78.902344 313.816406 79.558594 313.347656 80.726562 C 312.152344 83.753906 311.171875 86.914062 310.246094 90.4375 C 309.9375 91.644531 310.410156 92.929688 311.441406 93.640625 L 329.425781 105.882812 C 329.226562 107.625 329.144531 109.367188 329.144531 111.121094 C 329.144531 112.863281 329.226562 114.589844 329.425781 116.332031 L 311.441406 128.617188 C 310.410156 129.328125 309.9375 130.613281 310.246094 131.820312 C 311.171875 135.316406 312.152344 138.492188 313.347656 141.492188 C 313.816406 142.65625 315.167969 143.527344 316.203125 143.40625 L 338.0625 142.777344 C 339.804688 145.699219 341.859375 148.539062 344.164062 151.191406 L 336.789062 171.78125 C 336.398438 172.988281 336.789062 174.285156 337.742188 175.101562 C 340.113281 177.046875 342.8125 178.976562 345.988281 181.011719 C 347.089844 181.667969 348.429688 181.640625 349.460938 180.863281 L 366.738281 167.519531 C 369.980469 168.953125 373.308594 170.054688 376.632812 170.789062 L 382.738281 191.632812 C 383.140625 192.839844 384.171875 193.699219 385.433594 193.777344 L 386.773438 193.871094 C 388.007812 193.9375 389.269531 194.03125 390.5 194.03125 C 391.761719 194.03125 393.035156 193.9375 394.3125 193.871094 L 395.613281 193.777344 C 396.886719 193.699219 397.984375 192.839844 398.347656 191.632812 L 404.449219 170.789062 C 407.722656 170.054688 411.0625 168.953125 414.347656 167.519531 L 431.660156 180.863281 C 432.640625 181.613281 433.996094 181.667969 435.066406 181.011719 C 438.234375 178.976562 440.914062 177.046875 443.34375 175.101562 C 444.296875 174.285156 444.683594 172.988281 444.253906 171.78125 L 436.917969 151.191406 C 439.210938 148.539062 441.277344 145.699219 443.019531 142.777344 L 464.839844 143.40625 C 466.15625 143.515625 467.214844 142.65625 467.738281 141.492188 C 468.878906 138.492188 469.871094 135.316406 470.824219 131.820312 C 471.144531 130.613281 470.660156 129.328125 469.644531 128.617188 L 451.65625 116.332031 " fill-opacity="1" fill-rule="nonzero"/><g clip-path="url(#5ecb01281f)"><path fill="#ffffff" d="M 180.894531 230.269531 C 167.039062 230.269531 155.789062 241.535156 155.789062 255.335938 C 155.789062 269.144531 167.039062 280.371094 180.894531 280.371094 C 194.722656 280.371094 205.960938 269.144531 205.960938 255.335938 C 205.960938 241.535156 194.722656 230.269531 180.894531 230.269531 Z M 180.894531 313.421875 C 179.941406 313.421875 178.988281 313.355469 178.199219 313.300781 L 177.328125 313.234375 C 175.195312 313.085938 173.289062 311.613281 172.742188 309.5625 L 169.171875 297.492188 C 167.980469 297.15625 166.757812 296.757812 165.605469 296.289062 L 155.546875 304.015625 C 154.675781 304.6875 153.5625 305.089844 152.421875 305.089844 C 151.46875 305.089844 150.515625 304.808594 149.6875 304.273438 C 147.539062 302.945312 145.6875 301.605469 143.90625 300.144531 C 142.242188 298.738281 141.597656 296.5 142.324219 294.464844 L 146.601562 282.503906 C 145.796875 281.523438 145.085938 280.492188 144.414062 279.515625 L 131.78125 279.851562 C 131.703125 279.851562 131.621094 279.851562 131.5 279.851562 C 129.488281 279.851562 127.582031 278.535156 126.792969 276.621094 C 126 274.519531 125.289062 272.28125 124.648438 269.84375 C 124.097656 267.78125 124.96875 265.582031 126.710938 264.351562 L 137.132812 257.222656 C 137.09375 256.582031 137.09375 255.964844 137.09375 255.335938 C 137.09375 254.703125 137.09375 254.074219 137.132812 253.457031 L 126.710938 246.292969 C 124.96875 245.113281 124.097656 242.929688 124.648438 240.839844 C 125.289062 238.386719 126 236.152344 126.832031 234.046875 C 127.582031 232.226562 129.449219 230.898438 131.5 230.832031 C 131.539062 230.832031 131.703125 230.832031 131.742188 230.832031 L 144.414062 231.179688 C 145.085938 230.136719 145.835938 229.144531 146.601562 228.152344 L 142.324219 216.164062 C 141.597656 214.167969 142.242188 211.890625 143.90625 210.523438 C 145.609375 209.144531 147.433594 207.84375 149.6875 206.398438 C 150.515625 205.863281 151.46875 205.582031 152.421875 205.582031 C 153.5625 205.582031 154.675781 205.980469 155.546875 206.679688 L 165.605469 214.355469 C 166.800781 213.925781 167.980469 213.511719 169.171875 213.175781 L 172.742188 201.078125 C 173.289062 199.03125 175.195312 197.554688 177.328125 197.433594 L 177.929688 197.394531 C 178.882812 197.328125 179.902344 197.273438 180.894531 197.273438 C 181.886719 197.273438 182.878906 197.328125 183.832031 197.394531 L 184.460938 197.433594 C 186.59375 197.554688 188.457031 199.03125 189.046875 201.121094 L 192.617188 213.175781 C 193.808594 213.511719 194.949219 213.925781 196.183594 214.382812 L 206.242188 206.636719 C 207.074219 205.980469 208.226562 205.582031 209.339844 205.582031 C 210.277344 205.582031 211.269531 205.863281 212.101562 206.398438 C 214.410156 207.859375 216.234375 209.183594 217.855469 210.523438 C 219.558594 211.890625 220.191406 214.167969 219.398438 216.203125 L 215.160156 228.152344 C 215.910156 229.132812 216.703125 230.136719 217.332031 231.179688 C 217.332031 231.179688 230.085938 230.832031 230.167969 230.832031 C 230.167969 230.832031 230.207031 230.832031 230.25 230.832031 C 232.421875 230.941406 234.203125 232.171875 234.914062 234.074219 C 235.746094 236.152344 236.472656 238.347656 237.140625 240.839844 C 237.652344 242.929688 236.820312 245.113281 235.078125 246.292969 L 224.628906 253.457031 C 224.667969 254.074219 224.667969 254.703125 224.667969 255.335938 C 224.667969 255.964844 224.667969 256.582031 224.628906 257.222656 L 235.078125 264.351562 C 236.820312 265.582031 237.613281 267.78125 237.140625 269.84375 C 236.511719 272.308594 235.746094 274.519531 234.914062 276.621094 C 234.164062 278.578125 232.382812 279.851562 230.328125 279.851562 C 230.167969 279.851562 230.085938 279.851562 229.96875 279.851562 L 217.332031 279.515625 C 216.703125 280.492188 215.910156 281.523438 215.160156 282.503906 L 219.398438 294.480469 C 220.148438 296.5 219.558594 298.738281 217.898438 300.144531 C 216.152344 301.550781 214.25 302.890625 212.0625 304.273438 C 211.3125 304.808594 210.359375 305.089844 209.339844 305.089844 C 208.226562 305.089844 207.113281 304.6875 206.242188 304.015625 L 196.183594 296.289062 C 194.988281 296.757812 193.808594 297.15625 192.617188 297.492188 L 189.046875 309.589844 C 188.457031 311.613281 186.59375 313.085938 184.460938 313.234375 L 183.550781 313.300781 C 182.796875 313.355469 181.847656 313.421875 180.894531 313.421875 " fill-opacity="1" fill-rule="nonzero"/></g><path fill="#ed1d49" d="M 180.894531 283.519531 C 165.335938 283.519531 152.691406 270.847656 152.691406 255.335938 C 152.691406 239.792969 165.335938 227.148438 180.894531 227.148438 C 196.425781 227.148438 209.097656 239.792969 209.097656 255.335938 C 209.097656 270.847656 196.425781 283.519531 180.894531 283.519531 Z M 221.410156 258.789062 C 221.492188 257.625 221.53125 256.5 221.53125 255.335938 C 221.53125 254.167969 221.492188 253.015625 221.410156 251.890625 L 233.332031 243.71875 C 233.976562 243.292969 234.285156 242.421875 234.085938 241.601562 C 233.492188 239.273438 232.824219 237.195312 232.03125 235.171875 C 231.75 234.410156 231.039062 233.992188 230.167969 233.941406 L 215.671875 234.34375 C 214.488281 232.414062 213.136719 230.550781 211.632812 228.78125 L 216.460938 215.160156 C 216.785156 214.355469 216.542969 213.457031 215.871094 212.949219 C 214.328125 211.664062 212.625 210.417969 210.441406 209.023438 C 209.730469 208.554688 208.777344 208.609375 208.144531 209.128906 L 196.652344 217.933594 C 194.480469 217.019531 192.308594 216.269531 190.082031 215.789062 L 186.042969 201.964844 C 185.804688 201.1875 185.09375 200.625 184.261719 200.542969 L 183.671875 200.503906 C 181.804688 200.382812 179.941406 200.382812 178.117188 200.503906 L 177.488281 200.542969 C 176.695312 200.625 175.945312 201.1875 175.703125 201.964844 L 171.667969 215.789062 C 169.441406 216.269531 167.269531 217.019531 165.097656 217.933594 L 153.640625 209.128906 C 152.972656 208.609375 152.058594 208.554688 151.347656 209.023438 C 149.203125 210.417969 147.460938 211.664062 145.878906 212.949219 C 145.246094 213.457031 144.964844 214.355469 145.246094 215.160156 L 150.15625 228.78125 C 148.652344 230.550781 147.3125 232.414062 146.078125 234.34375 L 131.621094 233.941406 C 130.910156 233.953125 130.039062 234.410156 129.714844 235.171875 C 128.925781 237.195312 128.292969 239.273438 127.664062 241.601562 C 127.464844 242.421875 127.824219 243.292969 128.457031 243.71875 L 140.417969 251.890625 C 140.257812 253.015625 140.21875 254.167969 140.21875 255.335938 C 140.21875 256.5 140.257812 257.625 140.417969 258.789062 L 128.457031 266.910156 C 127.824219 267.40625 127.464844 268.25 127.664062 269.050781 C 128.292969 271.355469 128.925781 273.460938 129.714844 275.46875 C 130.039062 276.257812 130.910156 276.824219 131.621094 276.742188 L 146.078125 276.328125 C 147.3125 278.269531 148.652344 280.117188 150.15625 281.886719 L 145.246094 295.539062 C 144.964844 296.328125 145.246094 297.210938 145.878906 297.734375 C 147.460938 299.035156 149.242188 300.320312 151.347656 301.644531 C 152.058594 302.113281 152.972656 302.0625 153.640625 301.550781 L 165.136719 292.722656 C 167.269531 293.648438 169.441406 294.398438 171.667969 294.921875 L 175.703125 308.691406 C 175.945312 309.496094 176.695312 310.070312 177.488281 310.125 L 178.398438 310.191406 C 179.230469 310.246094 180.023438 310.273438 180.894531 310.273438 C 181.726562 310.273438 182.558594 310.246094 183.347656 310.191406 L 184.261719 310.125 C 185.09375 310.070312 185.804688 309.496094 186.042969 308.691406 L 190.082031 294.921875 C 192.308594 294.398438 194.480469 293.648438 196.652344 292.722656 L 208.144531 301.550781 C 208.777344 302.0625 209.648438 302.074219 210.441406 301.644531 C 212.503906 300.320312 214.289062 299.035156 215.871094 297.734375 C 216.542969 297.210938 216.785156 296.328125 216.460938 295.539062 L 211.632812 281.886719 C 213.136719 280.117188 214.488281 278.269531 215.671875 276.328125 L 230.167969 276.742188 C 230.960938 276.796875 231.75 276.257812 232.03125 275.46875 C 232.863281 273.460938 233.492188 271.355469 234.085938 269.050781 C 234.285156 268.25 233.976562 267.40625 233.332031 266.910156 L 221.410156 258.789062 " fill-opacity="1" fill-rule="nonzero"/><g fill="#000000" fill-opacity="0.4"><g transform="translate(152.160118, 147.540799)"><g><path d="M 70.296875 -59.578125 C 70.566406 -50.535156 70.789062 -41.488281 70.96875 -32.4375 C 71.15625 -23.382812 71.382812 -14.335938 71.65625 -5.296875 C 71.75 -2.671875 71.113281 -0.566406 69.75 1.015625 C 68.394531 2.597656 66.722656 3.640625 64.734375 4.140625 C 62.742188 4.640625 60.726562 4.613281 58.6875 4.0625 C 56.65625 3.519531 54.9375 2.476562 53.53125 0.9375 C 52.132812 -0.59375 51.390625 -2.671875 51.296875 -5.296875 C 51.210938 -8.003906 51.144531 -10.710938 51.09375 -13.421875 C 51.050781 -16.140625 50.984375 -18.859375 50.890625 -21.578125 L 30.53125 -22.265625 C 29.8125 -18.910156 29.132812 -15.515625 28.5 -12.078125 C 27.863281 -8.640625 27.226562 -5.203125 26.59375 -1.765625 C 26.144531 0.765625 25.128906 2.617188 23.546875 3.796875 C 21.960938 4.972656 20.128906 5.5625 18.046875 5.5625 C 15.960938 5.5625 13.992188 5.019531 12.140625 3.9375 C 10.285156 2.851562 8.835938 1.363281 7.796875 -0.53125 C 6.765625 -2.4375 6.472656 -4.65625 6.921875 -7.1875 C 8.546875 -16.0625 10.375 -24.835938 12.40625 -33.515625 C 14.445312 -42.203125 17.320312 -50.664062 21.03125 -58.90625 C 22.84375 -62.976562 25.148438 -67.363281 27.953125 -72.0625 C 30.765625 -76.769531 33.957031 -81.09375 37.53125 -85.03125 C 41.101562 -88.96875 45.0625 -91.882812 49.40625 -93.78125 C 53.476562 -95.5 56.78125 -95.816406 59.3125 -94.734375 C 61.84375 -93.648438 63.832031 -91.679688 65.28125 -88.828125 C 66.726562 -85.972656 67.789062 -82.738281 68.46875 -79.125 C 69.144531 -75.507812 69.597656 -71.9375 69.828125 -68.40625 C 70.054688 -64.875 70.210938 -61.929688 70.296875 -59.578125 Z M 36.921875 -44.65625 C 36.828125 -44.289062 36.710938 -43.925781 36.578125 -43.5625 C 36.441406 -43.195312 36.28125 -42.835938 36.09375 -42.484375 C 38.539062 -42.390625 40.941406 -42.296875 43.296875 -42.203125 C 45.648438 -42.117188 48.003906 -42.03125 50.359375 -41.9375 C 50.265625 -44.832031 50.191406 -47.75 50.140625 -50.6875 C 50.097656 -53.632812 50.03125 -56.597656 49.9375 -59.578125 C 49.851562 -60.753906 49.8125 -62 49.8125 -63.3125 C 49.8125 -64.625 49.8125 -65.957031 49.8125 -67.3125 C 48.269531 -65.507812 46.957031 -63.75 45.875 -62.03125 C 44.0625 -59.3125 42.410156 -56.503906 40.921875 -53.609375 C 39.429688 -50.710938 38.097656 -47.726562 36.921875 -44.65625 Z M 36.921875 -44.65625 "/></g></g></g><g fill="#000000" fill-opacity="0.4"><g transform="translate(223.410089, 147.540799)"><g><path d="M 59.71875 -82.25 C 60.082031 -84.78125 61.03125 -86.632812 62.5625 -87.8125 C 64.101562 -88.988281 65.890625 -89.578125 67.921875 -89.578125 C 69.960938 -89.578125 71.929688 -89.03125 73.828125 -87.9375 C 75.734375 -86.851562 77.226562 -85.359375 78.3125 -83.453125 C 79.394531 -81.554688 79.753906 -79.34375 79.390625 -76.8125 C 75.679688 -51.84375 71.066406 -27.050781 65.546875 -2.4375 C 65.097656 -0.445312 64.082031 1.175781 62.5 2.4375 C 60.914062 3.707031 59.082031 4.5 57 4.8125 C 54.914062 5.132812 52.945312 4.910156 51.09375 4.140625 C 49.238281 3.367188 47.859375 1.988281 46.953125 0 C 44.878906 -4.976562 42.753906 -9.929688 40.578125 -14.859375 C 38.410156 -19.796875 36.238281 -24.707031 34.0625 -29.59375 C 32.707031 -23.707031 31.394531 -17.800781 30.125 -11.875 C 28.863281 -5.945312 27.6875 -0.046875 26.59375 5.828125 C 26.144531 8.453125 25.101562 10.351562 23.46875 11.53125 C 21.84375 12.707031 20.007812 13.273438 17.96875 13.234375 C 15.9375 13.191406 13.992188 12.648438 12.140625 11.609375 C 10.285156 10.566406 8.835938 9.09375 7.796875 7.1875 C 6.765625 5.289062 6.519531 3.03125 7.0625 0.40625 C 11.039062 -21.125 15.925781 -42.476562 21.71875 -63.65625 C 22.257812 -65.550781 23.34375 -67.128906 24.96875 -68.390625 C 26.601562 -69.660156 28.4375 -70.476562 30.46875 -70.84375 C 32.5 -71.207031 34.421875 -71.023438 36.234375 -70.296875 C 38.046875 -69.578125 39.40625 -68.175781 40.3125 -66.09375 L 52.25 -38.546875 C 53.695312 -45.785156 55.03125 -53.046875 56.25 -60.328125 C 57.476562 -67.609375 58.632812 -74.914062 59.71875 -82.25 Z M 59.71875 -82.25 "/></g></g></g><g fill="#000000" fill-opacity="0.4"><g transform="translate(302.531489, 147.540799)"><g><path d="M 54.828125 -92.5625 C 59.171875 -90.84375 63.128906 -88.535156 66.703125 -85.640625 C 70.273438 -82.742188 73.171875 -79.441406 75.390625 -75.734375 C 77.609375 -72.023438 78.875 -68 79.1875 -63.65625 C 79.507812 -59.3125 78.582031 -54.785156 76.40625 -50.078125 C 73.601562 -44.285156 69.710938 -39.710938 64.734375 -36.359375 C 59.753906 -33.015625 54.253906 -30.84375 48.234375 -29.84375 C 42.222656 -28.851562 36.28125 -29.082031 30.40625 -30.53125 C 29.863281 -25.375 29.316406 -20.21875 28.765625 -15.0625 C 28.222656 -9.90625 27.679688 -4.75 27.140625 0.40625 C 26.867188 3.03125 25.988281 5.109375 24.5 6.640625 C 23.007812 8.179688 21.222656 9.222656 19.140625 9.765625 C 17.054688 10.316406 15.019531 10.316406 13.03125 9.765625 C 11.039062 9.222656 9.457031 8.179688 8.28125 6.640625 C 7.101562 5.109375 6.601562 3.03125 6.78125 0.40625 C 8.050781 -11.71875 9.273438 -23.882812 10.453125 -36.09375 C 11.628906 -48.3125 12.894531 -60.484375 14.25 -72.609375 C 14.882812 -77.398438 16.195312 -81.71875 18.1875 -85.5625 C 20.175781 -89.414062 23.566406 -92.242188 28.359375 -94.046875 C 32.617188 -95.679688 37.078125 -96.25 41.734375 -95.75 C 46.390625 -95.25 50.753906 -94.1875 54.828125 -92.5625 Z M 32.4375 -51.03125 C 34.695312 -50.394531 37.273438 -50.007812 40.171875 -49.875 C 43.066406 -49.738281 45.914062 -50.03125 48.71875 -50.75 C 51.53125 -51.476562 53.882812 -52.722656 55.78125 -54.484375 C 57.675781 -56.253906 58.757812 -58.722656 59.03125 -61.890625 C 59.21875 -63.878906 58.539062 -65.773438 57 -67.578125 C 55.457031 -69.390625 53.460938 -71 51.015625 -72.40625 C 48.578125 -73.8125 46.132812 -74.804688 43.6875 -75.390625 C 41.25 -75.984375 39.171875 -76.003906 37.453125 -75.453125 C 36.460938 -75.179688 35.851562 -75 35.625 -74.90625 C 35.394531 -74.820312 35.28125 -74.617188 35.28125 -74.296875 C 35.28125 -73.984375 35.054688 -73.421875 34.609375 -72.609375 C 34.066406 -71.335938 33.796875 -69.707031 33.796875 -67.71875 C 33.796875 -65.726562 33.75 -64.007812 33.65625 -62.5625 C 33.476562 -60.664062 33.273438 -58.742188 33.046875 -56.796875 C 32.816406 -54.847656 32.613281 -52.925781 32.4375 -51.03125 Z M 32.4375 -51.03125 "/></g></g></g><g fill="#000000" fill-opacity="0.4"><g transform="translate(381.38145, 147.540799)"><g><path d="M 70.296875 -59.3125 C 70.566406 -50.351562 70.789062 -41.347656 70.96875 -32.296875 C 71.15625 -23.253906 71.382812 -14.207031 71.65625 -5.15625 C 71.75 -2.53125 71.113281 -0.425781 69.75 1.15625 C 68.394531 2.738281 66.722656 3.773438 64.734375 4.265625 C 62.742188 4.765625 60.726562 4.765625 58.6875 4.265625 C 56.65625 3.773438 54.9375 2.738281 53.53125 1.15625 C 52.132812 -0.425781 51.390625 -2.53125 51.296875 -5.15625 C 51.210938 -7.875 51.144531 -10.566406 51.09375 -13.234375 C 51.050781 -15.898438 50.984375 -18.59375 50.890625 -21.3125 L 30.53125 -22.125 C 29.8125 -18.6875 29.132812 -15.269531 28.5 -11.875 C 27.863281 -8.476562 27.226562 -5.0625 26.59375 -1.625 C 26.144531 1 25.128906 2.894531 23.546875 4.0625 C 21.960938 5.238281 20.128906 5.804688 18.046875 5.765625 C 15.960938 5.722656 13.992188 5.179688 12.140625 4.140625 C 10.285156 3.097656 8.835938 1.628906 7.796875 -0.265625 C 6.765625 -2.171875 6.472656 -4.4375 6.921875 -7.0625 C 8.546875 -15.925781 10.375 -24.703125 12.40625 -33.390625 C 14.445312 -42.078125 17.320312 -50.535156 21.03125 -58.765625 C 22.84375 -62.835938 25.148438 -67.222656 27.953125 -71.921875 C 30.765625 -76.628906 33.957031 -80.953125 37.53125 -84.890625 C 41.101562 -88.828125 45.0625 -91.703125 49.40625 -93.515625 C 53.476562 -95.234375 56.78125 -95.546875 59.3125 -94.453125 C 61.84375 -93.367188 63.832031 -91.425781 65.28125 -88.625 C 66.726562 -85.820312 67.789062 -82.585938 68.46875 -78.921875 C 69.144531 -75.253906 69.597656 -71.65625 69.828125 -68.125 C 70.054688 -64.601562 70.210938 -61.664062 70.296875 -59.3125 Z M 36.09375 -42.203125 C 38.539062 -42.117188 40.941406 -42.03125 43.296875 -41.9375 C 45.648438 -41.84375 48.003906 -41.753906 50.359375 -41.671875 C 50.265625 -44.648438 50.191406 -47.609375 50.140625 -50.546875 C 50.097656 -53.492188 50.03125 -56.414062 49.9375 -59.3125 C 49.851562 -60.488281 49.8125 -61.734375 49.8125 -63.046875 C 49.8125 -64.359375 49.8125 -65.691406 49.8125 -67.046875 C 48.269531 -65.234375 46.957031 -63.515625 45.875 -61.890625 C 44.0625 -59.171875 42.410156 -56.34375 40.921875 -53.40625 C 39.429688 -50.46875 38.097656 -47.503906 36.921875 -44.515625 C 36.828125 -44.148438 36.710938 -43.765625 36.578125 -43.359375 C 36.441406 -42.953125 36.28125 -42.566406 36.09375 -42.203125 Z M 36.09375 -42.203125 "/></g></g></g><g fill="#f4ca44" fill-opacity="1"><g transform="translate(146.162232, 141.542914)"><g><path d="M 70.296875 -59.578125 C 70.566406 -50.535156 70.789062 -41.488281 70.96875 -32.4375 C 71.15625 -23.382812 71.382812 -14.335938 71.65625 -5.296875 C 71.75 -2.671875 71.113281 -0.566406 69.75 1.015625 C 68.394531 2.597656 66.722656 3.640625 64.734375 4.140625 C 62.742188 4.640625 60.726562 4.613281 58.6875 4.0625 C 56.65625 3.519531 54.9375 2.476562 53.53125 0.9375 C 52.132812 -0.59375 51.390625 -2.671875 51.296875 -5.296875 C 51.210938 -8.003906 51.144531 -10.710938 51.09375 -13.421875 C 51.050781 -16.140625 50.984375 -18.859375 50.890625 -21.578125 L 30.53125 -22.265625 C 29.8125 -18.910156 29.132812 -15.515625 28.5 -12.078125 C 27.863281 -8.640625 27.226562 -5.203125 26.59375 -1.765625 C 26.144531 0.765625 25.128906 2.617188 23.546875 3.796875 C 21.960938 4.972656 20.128906 5.5625 18.046875 5.5625 C 15.960938 5.5625 13.992188 5.019531 12.140625 3.9375 C 10.285156 2.851562 8.835938 1.363281 7.796875 -0.53125 C 6.765625 -2.4375 6.472656 -4.65625 6.921875 -7.1875 C 8.546875 -16.0625 10.375 -24.835938 12.40625 -33.515625 C 14.445312 -42.203125 17.320312 -50.664062 21.03125 -58.90625 C 22.84375 -62.976562 25.148438 -67.363281 27.953125 -72.0625 C 30.765625 -76.769531 33.957031 -81.09375 37.53125 -85.03125 C 41.101562 -88.96875 45.0625 -91.882812 49.40625 -93.78125 C 53.476562 -95.5 56.78125 -95.816406 59.3125 -94.734375 C 61.84375 -93.648438 63.832031 -91.679688 65.28125 -88.828125 C 66.726562 -85.972656 67.789062 -82.738281 68.46875 -79.125 C 69.144531 -75.507812 69.597656 -71.9375 69.828125 -68.40625 C 70.054688 -64.875 70.210938 -61.929688 70.296875 -59.578125 Z M 36.921875 -44.65625 C 36.828125 -44.289062 36.710938 -43.925781 36.578125 -43.5625 C 36.441406 -43.195312 36.28125 -42.835938 36.09375 -42.484375 C 38.539062 -42.390625 40.941406 -42.296875 43.296875 -42.203125 C 45.648438 -42.117188 48.003906 -42.03125 50.359375 -41.9375 C 50.265625 -44.832031 50.191406 -47.75 50.140625 -50.6875 C 50.097656 -53.632812 50.03125 -56.597656 49.9375 -59.578125 C 49.851562 -60.753906 49.8125 -62 49.8125 -63.3125 C 49.8125 -64.625 49.8125 -65.957031 49.8125 -67.3125 C 48.269531 -65.507812 46.957031 -63.75 45.875 -62.03125 C 44.0625 -59.3125 42.410156 -56.503906 40.921875 -53.609375 C 39.429688 -50.710938 38.097656 -47.726562 36.921875 -44.65625 Z M 36.921875 -44.65625 "/></g></g></g><g fill="#f4ca44" fill-opacity="1"><g transform="translate(217.412204, 141.542914)"><g><path d="M 59.71875 -82.25 C 60.082031 -84.78125 61.03125 -86.632812 62.5625 -87.8125 C 64.101562 -88.988281 65.890625 -89.578125 67.921875 -89.578125 C 69.960938 -89.578125 71.929688 -89.03125 73.828125 -87.9375 C 75.734375 -86.851562 77.226562 -85.359375 78.3125 -83.453125 C 79.394531 -81.554688 79.753906 -79.34375 79.390625 -76.8125 C 75.679688 -51.84375 71.066406 -27.050781 65.546875 -2.4375 C 65.097656 -0.445312 64.082031 1.175781 62.5 2.4375 C 60.914062 3.707031 59.082031 4.5 57 4.8125 C 54.914062 5.132812 52.945312 4.910156 51.09375 4.140625 C 49.238281 3.367188 47.859375 1.988281 46.953125 0 C 44.878906 -4.976562 42.753906 -9.929688 40.578125 -14.859375 C 38.410156 -19.796875 36.238281 -24.707031 34.0625 -29.59375 C 32.707031 -23.707031 31.394531 -17.800781 30.125 -11.875 C 28.863281 -5.945312 27.6875 -0.046875 26.59375 5.828125 C 26.144531 8.453125 25.101562 10.351562 23.46875 11.53125 C 21.84375 12.707031 20.007812 13.273438 17.96875 13.234375 C 15.9375 13.191406 13.992188 12.648438 12.140625 11.609375 C 10.285156 10.566406 8.835938 9.09375 7.796875 7.1875 C 6.765625 5.289062 6.519531 3.03125 7.0625 0.40625 C 11.039062 -21.125 15.925781 -42.476562 21.71875 -63.65625 C 22.257812 -65.550781 23.34375 -67.128906 24.96875 -68.390625 C 26.601562 -69.660156 28.4375 -70.476562 30.46875 -70.84375 C 32.5 -71.207031 34.421875 -71.023438 36.234375 -70.296875 C 38.046875 -69.578125 39.40625 -68.175781 40.3125 -66.09375 L 52.25 -38.546875 C 53.695312 -45.785156 55.03125 -53.046875 56.25 -60.328125 C 57.476562 -67.609375 58.632812 -74.914062 59.71875 -82.25 Z M 59.71875 -82.25 "/></g></g></g><g fill="#f4ca44" fill-opacity="1"><g transform="translate(296.533604, 141.542914)"><g><path d="M 54.828125 -92.5625 C 59.171875 -90.84375 63.128906 -88.535156 66.703125 -85.640625 C 70.273438 -82.742188 73.171875 -79.441406 75.390625 -75.734375 C 77.609375 -72.023438 78.875 -68 79.1875 -63.65625 C 79.507812 -59.3125 78.582031 -54.785156 76.40625 -50.078125 C 73.601562 -44.285156 69.710938 -39.710938 64.734375 -36.359375 C 59.753906 -33.015625 54.253906 -30.84375 48.234375 -29.84375 C 42.222656 -28.851562 36.28125 -29.082031 30.40625 -30.53125 C 29.863281 -25.375 29.316406 -20.21875 28.765625 -15.0625 C 28.222656 -9.90625 27.679688 -4.75 27.140625 0.40625 C 26.867188 3.03125 25.988281 5.109375 24.5 6.640625 C 23.007812 8.179688 21.222656 9.222656 19.140625 9.765625 C 17.054688 10.316406 15.019531 10.316406 13.03125 9.765625 C 11.039062 9.222656 9.457031 8.179688 8.28125 6.640625 C 7.101562 5.109375 6.601562 3.03125 6.78125 0.40625 C 8.050781 -11.71875 9.273438 -23.882812 10.453125 -36.09375 C 11.628906 -48.3125 12.894531 -60.484375 14.25 -72.609375 C 14.882812 -77.398438 16.195312 -81.71875 18.1875 -85.5625 C 20.175781 -89.414062 23.566406 -92.242188 28.359375 -94.046875 C 32.617188 -95.679688 37.078125 -96.25 41.734375 -95.75 C 46.390625 -95.25 50.753906 -94.1875 54.828125 -92.5625 Z M 32.4375 -51.03125 C 34.695312 -50.394531 37.273438 -50.007812 40.171875 -49.875 C 43.066406 -49.738281 45.914062 -50.03125 48.71875 -50.75 C 51.53125 -51.476562 53.882812 -52.722656 55.78125 -54.484375 C 57.675781 -56.253906 58.757812 -58.722656 59.03125 -61.890625 C 59.21875 -63.878906 58.539062 -65.773438 57 -67.578125 C 55.457031 -69.390625 53.460938 -71 51.015625 -72.40625 C 48.578125 -73.8125 46.132812 -74.804688 43.6875 -75.390625 C 41.25 -75.984375 39.171875 -76.003906 37.453125 -75.453125 C 36.460938 -75.179688 35.851562 -75 35.625 -74.90625 C 35.394531 -74.820312 35.28125 -74.617188 35.28125 -74.296875 C 35.28125 -73.984375 35.054688 -73.421875 34.609375 -72.609375 C 34.066406 -71.335938 33.796875 -69.707031 33.796875 -67.71875 C 33.796875 -65.726562 33.75 -64.007812 33.65625 -62.5625 C 33.476562 -60.664062 33.273438 -58.742188 33.046875 -56.796875 C 32.816406 -54.847656 32.613281 -52.925781 32.4375 -51.03125 Z M 32.4375 -51.03125 "/></g></g></g><g fill="#f4ca44" fill-opacity="1"><g transform="translate(375.383565, 141.542914)"><g><path d="M 70.296875 -59.3125 C 70.566406 -50.351562 70.789062 -41.347656 70.96875 -32.296875 C 71.15625 -23.253906 71.382812 -14.207031 71.65625 -5.15625 C 71.75 -2.53125 71.113281 -0.425781 69.75 1.15625 C 68.394531 2.738281 66.722656 3.773438 64.734375 4.265625 C 62.742188 4.765625 60.726562 4.765625 58.6875 4.265625 C 56.65625 3.773438 54.9375 2.738281 53.53125 1.15625 C 52.132812 -0.425781 51.390625 -2.53125 51.296875 -5.15625 C 51.210938 -7.875 51.144531 -10.566406 51.09375 -13.234375 C 51.050781 -15.898438 50.984375 -18.59375 50.890625 -21.3125 L 30.53125 -22.125 C 29.8125 -18.6875 29.132812 -15.269531 28.5 -11.875 C 27.863281 -8.476562 27.226562 -5.0625 26.59375 -1.625 C 26.144531 1 25.128906 2.894531 23.546875 4.0625 C 21.960938 5.238281 20.128906 5.804688 18.046875 5.765625 C 15.960938 5.722656 13.992188 5.179688 12.140625 4.140625 C 10.285156 3.097656 8.835938 1.628906 7.796875 -0.265625 C 6.765625 -2.171875 6.472656 -4.4375 6.921875 -7.0625 C 8.546875 -15.925781 10.375 -24.703125 12.40625 -33.390625 C 14.445312 -42.078125 17.320312 -50.535156 21.03125 -58.765625 C 22.84375 -62.835938 25.148438 -67.222656 27.953125 -71.921875 C 30.765625 -76.628906 33.957031 -80.953125 37.53125 -84.890625 C 41.101562 -88.828125 45.0625 -91.703125 49.40625 -93.515625 C 53.476562 -95.234375 56.78125 -95.546875 59.3125 -94.453125 C 61.84375 -93.367188 63.832031 -91.425781 65.28125 -88.625 C 66.726562 -85.820312 67.789062 -82.585938 68.46875 -78.921875 C 69.144531 -75.253906 69.597656 -71.65625 69.828125 -68.125 C 70.054688 -64.601562 70.210938 -61.664062 70.296875 -59.3125 Z M 36.09375 -42.203125 C 38.539062 -42.117188 40.941406 -42.03125 43.296875 -41.9375 C 45.648438 -41.84375 48.003906 -41.753906 50.359375 -41.671875 C 50.265625 -44.648438 50.191406 -47.609375 50.140625 -50.546875 C 50.097656 -53.492188 50.03125 -56.414062 49.9375 -59.3125 C 49.851562 -60.488281 49.8125 -61.734375 49.8125 -63.046875 C 49.8125 -64.359375 49.8125 -65.691406 49.8125 -67.046875 C 48.269531 -65.234375 46.957031 -63.515625 45.875 -61.890625 C 44.0625 -59.171875 42.410156 -56.34375 40.921875 -53.40625 C 39.429688 -50.46875 38.097656 -47.503906 36.921875 -44.515625 C 36.828125 -44.148438 36.710938 -43.765625 36.578125 -43.359375 C 36.441406 -42.953125 36.28125 -42.566406 36.09375 -42.203125 Z M 36.09375 -42.203125 "/></g></g></g><g fill="#d32f23" fill-opacity="0.4196"><g transform="translate(128.07025, 286.780457)"><g><path d="M -3.921875 0 L 44.265625 0 L 48.65625 -22.453125 L 24.015625 -22.453125 L 28.25 -44.265625 L 49.609375 -44.265625 L 54 -66.234375 L 32.5 -66.234375 L 36.734375 -87.59375 L 60.75 -87.59375 L 65.140625 -109.875 L 17.421875 -109.875 Z M -3.921875 0 "/></g></g></g><g fill="#d32f23" fill-opacity="0.4196"><g transform="translate(183.321741, 286.780457)"><g><path d="M -3.921875 0 L 18.671875 0 L 29.046875 -53.375 L 37.203125 0 L 58.546875 0 L 79.890625 -109.875 L 57.296875 -109.875 L 47.25 -59.328125 L 39.71875 -109.875 L 17.421875 -109.875 Z M -3.921875 0 "/></g></g></g><g fill="#d32f23" fill-opacity="0.4196"><g transform="translate(254.42664, 286.780457)"><g><path d="M 35.625 1.5625 C 43.015625 1.5625 49.765625 -0.15625 56.03125 -2.984375 L 67.96875 -64.359375 L 38.296875 -64.359375 L 34.375 -43.640625 L 42.703125 -43.640625 L 37.984375 -20.09375 C 37.359375 -19.9375 36.578125 -19.9375 35.78125 -19.9375 C 30.765625 -19.9375 27 -24.796875 27 -35.953125 C 27 -45.515625 30.765625 -73.78125 41.4375 -84.453125 C 44.421875 -87.4375 47.875 -89 51.953125 -89 C 57.765625 -89 62.9375 -86.328125 67.8125 -82.5625 L 72.359375 -105.953125 C 68.28125 -108.625 61.84375 -111.453125 52.109375 -111.453125 C 41.75 -111.453125 32.96875 -107.6875 25.265625 -99.984375 C 9.421875 -84.140625 3.296875 -53.53125 3.296875 -36.421875 C 3.296875 -11.296875 15.703125 1.5625 35.625 1.5625 Z M 35.625 1.5625 "/></g></g></g><g fill="#d32f23" fill-opacity="0.4196"><g transform="translate(322.078318, 286.780457)"><g><path d="M -3.609375 0 L 19.9375 0 L 41.28125 -109.875 L 17.734375 -109.875 Z M -3.609375 0 "/></g></g></g><g fill="#d32f23" fill-opacity="0.4196"><g transform="translate(354.883894, 286.780457)"><g><path d="M -3.921875 0 L 18.671875 0 L 29.046875 -53.375 L 37.203125 0 L 58.546875 0 L 79.890625 -109.875 L 57.296875 -109.875 L 47.25 -59.328125 L 39.71875 -109.875 L 17.421875 -109.875 Z M -3.921875 0 "/></g></g></g><g fill="#d32f23" fill-opacity="0.4196"><g transform="translate(425.988778, 286.780457)"><g><path d="M -3.921875 0 L 44.265625 0 L 48.65625 -22.453125 L 24.015625 -22.453125 L 28.25 -44.265625 L 49.609375 -44.265625 L 54 -66.234375 L 32.5 -66.234375 L 36.734375 -87.59375 L 60.75 -87.59375 L 65.140625 -109.875 L 17.421875 -109.875 Z M -3.921875 0 "/></g></g></g><g fill="#737373" fill-opacity="1"><g transform="translate(123.403975, 282.578918)"><g><path d="M -3.921875 0 L 44.265625 0 L 48.65625 -22.453125 L 24.015625 -22.453125 L 28.25 -44.265625 L 49.609375 -44.265625 L 54 -66.234375 L 32.5 -66.234375 L 36.734375 -87.59375 L 60.75 -87.59375 L 65.140625 -109.875 L 17.421875 -109.875 Z M -3.921875 0 "/></g></g></g><g fill="#737373" fill-opacity="1"><g transform="translate(178.655465, 282.578918)"><g><path d="M -3.921875 0 L 18.671875 0 L 29.046875 -53.375 L 37.203125 0 L 58.546875 0 L 79.890625 -109.875 L 57.296875 -109.875 L 47.25 -59.328125 L 39.71875 -109.875 L 17.421875 -109.875 Z M -3.921875 0 "/></g></g></g><g fill="#737373" fill-opacity="1"><g transform="translate(249.760364, 282.578918)"><g><path d="M 35.625 1.5625 C 43.015625 1.5625 49.765625 -0.15625 56.03125 -2.984375 L 67.96875 -64.359375 L 38.296875 -64.359375 L 34.375 -43.640625 L 42.703125 -43.640625 L 37.984375 -20.09375 C 37.359375 -19.9375 36.578125 -19.9375 35.78125 -19.9375 C 30.765625 -19.9375 27 -24.796875 27 -35.953125 C 27 -45.515625 30.765625 -73.78125 41.4375 -84.453125 C 44.421875 -87.4375 47.875 -89 51.953125 -89 C 57.765625 -89 62.9375 -86.328125 67.8125 -82.5625 L 72.359375 -105.953125 C 68.28125 -108.625 61.84375 -111.453125 52.109375 -111.453125 C 41.75 -111.453125 32.96875 -107.6875 25.265625 -99.984375 C 9.421875 -84.140625 3.296875 -53.53125 3.296875 -36.421875 C 3.296875 -11.296875 15.703125 1.5625 35.625 1.5625 Z M 35.625 1.5625 "/></g></g></g><g fill="#737373" fill-opacity="1"><g transform="translate(317.412042, 282.578918)"><g><path d="M -3.609375 0 L 19.9375 0 L 41.28125 -109.875 L 17.734375 -109.875 Z M -3.609375 0 "/></g></g></g><g fill="#737373" fill-opacity="1"><g transform="translate(350.217618, 282.578918)"><g><path d="M -3.921875 0 L 18.671875 0 L 29.046875 -53.375 L 37.203125 0 L 58.546875 0 L 79.890625 -109.875 L 57.296875 -109.875 L 47.25 -59.328125 L 39.71875 -109.875 L 17.421875 -109.875 Z M -3.921875 0 "/></g></g></g><g fill="#737373" fill-opacity="1"><g transform="translate(421.322502, 282.578918)"><g><path d="M -3.921875 0 L 44.265625 0 L 48.65625 -22.453125 L 24.015625 -22.453125 L 28.25 -44.265625 L 49.609375 -44.265625 L 54 -66.234375 L 32.5 -66.234375 L 36.734375 -87.59375 L 60.75 -87.59375 L 65.140625 -109.875 L 17.421875 -109.875 Z M -3.921875 0 "/></g></g></g></svg>