<svg xmlns="http://www.w3.org/2000/svg" xmlns:xlink="http://www.w3.org/1999/xlink" width="800" zoomAndPan="magnify" viewBox="0 0 600 337.499995" height="450" preserveAspectRatio="xMidYMid meet" version="1.0"><defs><g/><clipPath id="f95e442ccf"><path d="M 306 1.316406 L 502.273438 1.316406 L 502.273438 204 L 306 204 Z M 306 1.316406 " clip-rule="nonzero"/></clipPath><clipPath id="c528566c71"><path d="M 97.597656 201 L 228 201 L 228 335.804688 L 97.597656 335.804688 Z M 97.597656 201 " clip-rule="nonzero"/></clipPath></defs><path fill="#ff66c4" d="M 256.109375 232.539062 C 227.433594 232.539062 204.140625 209.214844 204.140625 180.542969 C 204.140625 151.898438 227.433594 128.621094 256.109375 128.621094 C 284.765625 128.621094 308.089844 151.898438 308.089844 180.542969 C 308.089844 209.214844 284.765625 232.539062 256.109375 232.539062 Z M 330.78125 186.941406 C 330.964844 184.839844 331.058594 182.722656 331.058594 180.542969 C 331.058594 178.421875 330.964844 176.304688 330.78125 174.171875 L 352.699219 159.164062 C 353.964844 158.34375 354.523438 156.722656 354.152344 155.238281 C 353.054688 150.988281 351.769531 147.109375 350.363281 143.414062 C 349.808594 141.945312 348.496094 141.171875 346.886719 141.078125 L 320.238281 141.820312 C 318.042969 138.28125 315.585938 134.835938 312.804688 131.605469 L 321.738281 106.363281 C 322.203125 104.957031 321.832031 103.332031 320.59375 102.328125 C 317.71875 99.980469 314.582031 97.675781 310.515625 95.109375 C 309.234375 94.246094 307.546875 94.351562 306.3125 95.296875 L 285.230469 111.542969 C 281.210938 109.839844 277.144531 108.496094 273.078125 107.570312 L 265.644531 82.113281 C 265.226562 80.675781 263.867188 79.59375 262.351562 79.5 L 261.117188 79.40625 C 257.792969 79.191406 254.40625 79.191406 251.070312 79.40625 L 249.894531 79.5 C 248.332031 79.59375 247.066406 80.675781 246.601562 82.113281 L 239.121094 107.570312 C 235.101562 108.496094 230.992188 109.839844 226.972656 111.542969 L 205.933594 95.296875 C 204.699219 94.351562 202.96875 94.246094 201.683594 95.109375 C 197.710938 97.675781 194.464844 99.980469 191.605469 102.328125 C 190.460938 103.332031 190 104.957031 190.539062 106.363281 L 199.488281 131.605469 C 196.660156 134.835938 194.15625 138.28125 192.007812 141.820312 L 165.390625 141.078125 C 164.015625 141.125 162.421875 141.945312 161.835938 143.414062 C 160.414062 147.109375 159.132812 150.988281 158.050781 155.238281 C 157.679688 156.722656 158.234375 158.34375 159.503906 159.164062 L 181.464844 174.171875 C 181.234375 176.304688 181.140625 178.421875 181.140625 180.542969 C 181.140625 182.722656 181.234375 184.839844 181.464844 186.941406 L 159.503906 201.933594 C 158.234375 202.84375 157.679688 204.390625 158.050781 205.90625 C 159.132812 210.15625 160.414062 214.003906 161.835938 217.699219 C 162.421875 219.136719 164.015625 220.1875 165.390625 220.050781 L 192.007812 219.324219 C 194.15625 222.847656 196.660156 226.292969 199.488281 229.523438 L 190.539062 254.75 C 190 256.1875 190.460938 257.8125 191.605469 258.816406 C 194.574219 261.164062 197.851562 263.546875 201.683594 266.019531 C 203.058594 266.851562 204.699219 266.777344 205.933594 265.816406 L 226.972656 249.570312 C 231.035156 251.304688 235.101562 252.648438 239.121094 253.542969 L 246.601562 279.03125 C 247.066406 280.515625 248.332031 281.535156 249.894531 281.644531 L 251.53125 281.753906 C 253.03125 281.863281 254.546875 281.9375 256.109375 281.9375 C 257.652344 281.9375 259.199219 281.863281 260.761719 281.753906 L 262.351562 281.644531 C 263.867188 281.535156 265.226562 280.515625 265.644531 279.03125 L 273.078125 253.542969 C 277.144531 252.648438 281.210938 251.304688 285.230469 249.570312 L 306.3125 265.816406 C 307.546875 266.761719 309.234375 266.851562 310.515625 266.019531 C 314.394531 263.546875 317.71875 261.164062 320.59375 258.816406 C 321.832031 257.8125 322.203125 256.1875 321.738281 254.75 L 312.804688 229.523438 C 315.585938 226.292969 318.089844 222.847656 320.238281 219.324219 L 346.886719 220.050781 C 348.496094 220.140625 349.808594 219.136719 350.363281 217.699219 C 351.816406 214.003906 353.054688 210.15625 354.152344 205.90625 C 354.523438 204.390625 353.964844 202.84375 352.699219 201.933594 L 330.78125 186.941406 " fill-opacity="1" fill-rule="nonzero"/><path fill="#ffffff" d="M 389.765625 197.050781 C 370.132812 197.050781 354.152344 212.9375 354.152344 232.570312 C 354.152344 252.199219 370.132812 268.121094 389.765625 268.121094 C 409.300781 268.121094 425.269531 252.199219 425.269531 232.570312 C 425.269531 212.9375 409.300781 197.050781 389.765625 197.050781 Z M 389.765625 314.953125 C 388.386719 314.953125 387.011719 314.894531 385.929688 314.816406 L 384.648438 314.738281 C 381.585938 314.523438 378.992188 312.449219 378.171875 309.53125 L 373.101562 292.371094 C 371.417969 291.878906 369.761719 291.335938 368.03125 290.71875 L 353.84375 301.644531 C 352.605469 302.605469 351.042969 303.175781 349.40625 303.175781 C 348.03125 303.175781 346.671875 302.742188 345.480469 302.046875 C 342.511719 300.132812 339.871094 298.214844 337.351562 296.175781 C 334.984375 294.210938 334.074219 290.949219 335.078125 288.089844 L 341.183594 271.132812 C 340.007812 269.742188 339.003906 268.304688 338 266.851562 L 320.191406 267.378906 C 320.007812 267.378906 319.914062 267.378906 319.730469 267.378906 C 316.898438 267.378906 314.164062 265.476562 313.113281 262.742188 C 311.96875 259.773438 310.917969 256.636719 310.007812 253.203125 C 309.234375 250.238281 310.421875 247.128906 312.882812 245.367188 L 327.71875 235.210938 C 327.671875 234.363281 327.671875 233.449219 327.671875 232.570312 C 327.671875 231.6875 327.671875 230.808594 327.765625 229.910156 L 312.972656 219.785156 C 310.421875 218.117188 309.234375 214.996094 310.007812 212.027344 C 310.917969 208.488281 311.921875 205.351562 313.113281 202.351562 C 314.117188 199.769531 316.808594 197.945312 319.730469 197.808594 C 319.820312 197.808594 320.007812 197.808594 320.007812 197.808594 L 338 198.285156 C 339.003906 196.847656 340.085938 195.378906 341.183594 194.035156 L 335.078125 177.03125 C 334.074219 174.171875 334.984375 170.941406 337.351562 168.996094 C 339.730469 167.03125 342.28125 165.160156 345.480469 163.136719 C 346.671875 162.378906 348.03125 161.992188 349.40625 161.992188 C 351.042969 161.992188 352.605469 162.519531 353.84375 163.523438 L 368.03125 174.453125 C 369.761719 173.785156 371.449219 173.246094 373.101562 172.765625 L 378.171875 155.625 C 379.023438 152.671875 381.632812 150.617188 384.648438 150.445312 L 385.511719 150.371094 C 386.9375 150.261719 388.296875 150.230469 389.765625 150.230469 C 391.125 150.230469 392.59375 150.261719 393.96875 150.371094 L 394.820312 150.445312 C 397.847656 150.617188 400.445312 152.671875 401.265625 155.625 L 406.378906 172.78125 C 408.019531 173.246094 409.703125 173.785156 411.386719 174.453125 L 425.640625 163.476562 C 426.828125 162.519531 428.421875 161.992188 430.03125 161.992188 C 431.4375 161.992188 432.8125 162.378906 433.941406 163.136719 C 437.234375 165.207031 439.78125 167.0625 442.164062 168.996094 C 444.449219 170.941406 445.410156 174.171875 444.359375 177.03125 L 438.328125 194.035156 C 439.425781 195.378906 440.476562 196.847656 441.4375 198.285156 C 441.4375 198.285156 459.460938 197.808594 459.507812 197.808594 C 459.597656 197.808594 459.644531 197.808594 459.691406 197.808594 C 462.75 197.945312 465.300781 199.691406 466.351562 202.414062 C 467.496094 205.351562 468.5 208.488281 469.460938 211.980469 C 470.1875 214.996094 468.996094 218.117188 466.445312 219.800781 L 451.699219 229.910156 C 451.746094 230.808594 451.746094 231.6875 451.746094 232.570312 C 451.746094 233.449219 451.746094 234.363281 451.699219 235.210938 L 466.539062 245.367188 C 468.996094 247.082031 470.1875 250.191406 469.460938 253.128906 C 468.546875 256.667969 467.496094 259.820312 466.351562 262.789062 C 465.257812 265.539062 462.613281 267.378906 459.691406 267.378906 C 459.597656 267.378906 459.429688 267.378906 459.320312 267.378906 L 441.4375 266.851562 C 440.476562 268.304688 439.425781 269.742188 438.328125 271.132812 L 444.359375 288.136719 C 445.363281 290.949219 444.449219 294.210938 442.164062 296.128906 C 439.753906 298.136719 437.046875 300.039062 433.941406 302.046875 C 432.8125 302.742188 431.484375 303.128906 430.03125 303.128906 C 428.46875 303.128906 426.921875 302.605469 425.640625 301.675781 L 411.386719 290.71875 C 409.75 291.335938 408.019531 291.878906 406.378906 292.371094 L 401.265625 309.546875 C 400.445312 312.40625 397.894531 314.523438 394.820312 314.738281 L 393.503906 314.816406 C 392.40625 314.894531 391.078125 314.953125 389.765625 314.953125 " fill-opacity="1" fill-rule="nonzero"/><path fill="#abd91a" d="M 389.765625 272.554688 C 367.660156 272.554688 349.777344 254.625 349.777344 232.570312 C 349.777344 210.511719 367.660156 192.597656 389.765625 192.597656 C 411.757812 192.597656 429.703125 210.511719 429.703125 232.570312 C 429.703125 254.625 411.757812 272.554688 389.765625 272.554688 Z M 447.1875 237.46875 C 447.28125 235.847656 447.371094 234.222656 447.371094 232.570312 C 447.371094 230.914062 447.28125 229.292969 447.1875 227.683594 L 464.035156 216.109375 C 464.992188 215.472656 465.441406 214.253906 465.179688 213.125 C 464.25 209.816406 463.339844 206.847656 462.257812 204.003906 C 461.792969 202.890625 460.742188 202.273438 459.507812 202.210938 L 439.011719 202.753906 C 437.417969 200.046875 435.453125 197.421875 433.304688 194.945312 L 440.199219 175.535156 C 440.570312 174.40625 440.246094 173.183594 439.289062 172.378906 C 437.140625 170.617188 434.683594 168.839844 431.574219 166.847656 C 430.570312 166.210938 429.289062 166.273438 428.375 166.984375 L 412.128906 179.476562 C 409.023438 178.175781 405.917969 177.140625 402.808594 176.460938 L 397.011719 156.847656 C 396.703125 155.71875 395.699219 154.914062 394.507812 154.867188 L 393.597656 154.773438 C 391.03125 154.621094 388.386719 154.621094 385.839844 154.773438 L 384.925781 154.867188 C 383.734375 154.914062 382.730469 155.71875 382.40625 156.847656 L 376.65625 176.460938 C 373.550781 177.140625 370.414062 178.175781 367.304688 179.476562 L 351.136719 166.984375 C 350.132812 166.273438 348.851562 166.210938 347.890625 166.847656 C 344.800781 168.839844 342.328125 170.617188 340.132812 172.378906 C 339.234375 173.183594 338.863281 174.40625 339.28125 175.535156 L 346.160156 194.945312 C 344.011719 197.421875 342.09375 200.046875 340.410156 202.753906 L 319.914062 202.210938 C 318.910156 202.257812 317.640625 202.890625 317.226562 204.003906 C 316.082031 206.847656 315.167969 209.816406 314.304688 213.125 C 314.023438 214.253906 314.441406 215.472656 315.449219 216.109375 L 332.328125 227.683594 C 332.15625 229.292969 332.109375 230.914062 332.109375 232.570312 C 332.109375 234.222656 332.15625 235.847656 332.328125 237.46875 L 315.449219 249.015625 C 314.441406 249.710938 314.023438 250.917969 314.304688 252.0625 C 315.167969 255.335938 316.082031 258.304688 317.226562 261.164062 C 317.640625 262.261719 318.910156 263.050781 319.914062 262.925781 L 340.410156 262.371094 C 342.09375 265.089844 344.011719 267.71875 346.160156 270.222656 L 339.28125 289.621094 C 338.863281 290.765625 339.234375 292 340.132812 292.757812 C 342.375 294.582031 344.9375 296.40625 347.890625 298.292969 C 348.851562 298.941406 350.132812 298.894531 351.136719 298.136719 L 367.335938 285.648438 C 370.441406 286.945312 373.550781 287.996094 376.65625 288.710938 L 382.40625 308.324219 C 382.730469 309.40625 383.734375 310.242188 384.925781 310.300781 L 386.195312 310.425781 C 387.382812 310.441406 388.527344 310.550781 389.765625 310.550781 C 390.894531 310.550781 392.128906 310.441406 393.226562 310.425781 L 394.507812 310.300781 C 395.699219 310.242188 396.703125 309.40625 397.011719 308.324219 L 402.808594 288.710938 C 405.871094 287.996094 409.023438 286.945312 412.128906 285.648438 L 428.375 298.136719 C 429.289062 298.863281 430.570312 298.941406 431.574219 298.292969 C 434.542969 296.40625 437.09375 294.582031 439.289062 292.757812 C 440.246094 292 440.570312 290.765625 440.199219 289.621094 L 433.304688 270.222656 C 435.453125 267.71875 437.417969 265.089844 439.011719 262.371094 L 459.507812 262.925781 C 460.742188 263.003906 461.792969 262.261719 462.257812 261.164062 C 463.339844 258.304688 464.34375 255.335938 465.179688 252.0625 C 465.441406 250.917969 464.992188 249.710938 464.035156 249.015625 L 447.1875 237.46875 " fill-opacity="1" fill-rule="nonzero"/><g clip-path="url(#f95e442ccf)"><path fill="#ffffff" d="M 404.1875 58.800781 C 380.179688 58.800781 360.628906 78.355469 360.628906 102.390625 C 360.628906 126.425781 380.179688 145.996094 404.1875 145.996094 C 428.28125 145.996094 447.820312 126.425781 447.820312 102.390625 C 447.820312 78.355469 428.28125 58.800781 404.1875 58.800781 Z M 404.1875 203.464844 C 402.546875 203.464844 400.941406 203.386719 399.53125 203.277344 L 398.066406 203.1875 C 394.230469 202.9375 391.03125 200.386719 390.027344 196.800781 L 383.828125 175.75 C 381.773438 175.179688 379.71875 174.527344 377.613281 173.726562 L 360.179688 187.140625 C 358.710938 188.300781 356.703125 189.011719 354.738281 189.011719 C 353.054688 189.011719 351.371094 188.515625 349.960938 187.605469 C 346.300781 185.269531 343.007812 182.9375 339.914062 180.417969 C 337.039062 178.023438 335.898438 174.035156 337.257812 170.523438 L 344.613281 149.6875 C 343.285156 147.957031 342.019531 146.242188 340.78125 144.433594 L 318.910156 145.097656 C 318.722656 145.097656 318.554688 145.097656 318.367188 145.097656 C 314.890625 145.097656 311.519531 142.75 310.238281 139.394531 C 308.769531 135.746094 307.546875 131.914062 306.40625 127.632812 C 305.492188 124.0625 306.914062 120.226562 309.960938 118.09375 L 328.136719 105.652344 C 328.089844 104.617188 328.089844 103.488281 328.089844 102.390625 C 328.089844 101.308594 328.089844 100.226562 328.136719 99.082031 L 310.007812 86.703125 C 306.960938 84.632812 305.492188 80.796875 306.40625 77.148438 C 307.546875 72.867188 308.769531 68.988281 310.238281 65.308594 C 311.476562 62.15625 314.722656 59.867188 318.367188 59.730469 C 318.460938 59.730469 318.722656 59.730469 318.722656 59.730469 L 340.78125 60.300781 C 342.019531 58.554688 343.285156 56.792969 344.613281 55.078125 L 337.164062 34.195312 C 335.898438 30.734375 337.039062 26.761719 339.914062 24.378906 C 342.835938 21.96875 346.019531 19.679688 349.960938 17.191406 C 351.371094 16.28125 353.054688 15.785156 354.738281 15.785156 C 356.703125 15.785156 358.632812 16.480469 360.179688 17.640625 L 377.613281 31.074219 C 379.71875 30.269531 381.820312 29.589844 383.828125 29.03125 L 390.027344 7.996094 C 391.078125 4.363281 394.277344 1.8125 398.066406 1.613281 L 399.070312 1.535156 C 400.707031 1.441406 402.5 1.332031 404.1875 1.332031 C 405.917969 1.332031 407.648438 1.441406 409.394531 1.535156 L 410.492188 1.613281 C 414.140625 1.8125 417.324219 4.363281 418.375 7.996094 L 424.589844 29.03125 C 426.644531 29.605469 428.746094 30.269531 430.800781 31.074219 L 448.285156 17.59375 C 449.738281 16.480469 451.652344 15.785156 453.664062 15.785156 C 455.394531 15.785156 457.046875 16.28125 458.5 17.191406 C 462.472656 19.742188 465.625 22.03125 468.5 24.378906 C 471.375 26.761719 472.519531 30.734375 471.238281 34.242188 L 463.804688 55.078125 C 465.179688 56.792969 466.445312 58.523438 467.636719 60.300781 C 467.636719 60.300781 489.816406 59.730469 489.863281 59.730469 C 489.910156 59.730469 490.003906 59.730469 490.09375 59.730469 C 493.789062 59.867188 496.941406 62.046875 498.210938 65.402344 C 499.679688 68.941406 500.867188 72.789062 502.011719 77.148438 C 502.925781 80.796875 501.503906 84.632812 498.410156 86.703125 L 480.328125 99.082031 C 480.328125 100.226562 480.328125 101.308594 480.328125 102.390625 C 480.328125 103.488281 480.328125 104.617188 480.328125 105.652344 L 498.410156 118.09375 C 501.503906 120.226562 502.925781 124.015625 502.011719 127.617188 C 500.867188 131.960938 499.679688 135.792969 498.179688 139.488281 C 496.894531 142.886719 493.664062 145.097656 490.09375 145.097656 C 489.910156 145.097656 489.816406 145.097656 489.648438 145.097656 L 467.636719 144.433594 C 466.445312 146.242188 465.179688 147.957031 463.804688 149.6875 L 471.238281 170.554688 C 472.519531 174.035156 471.375 178.023438 468.546875 180.386719 C 465.535156 182.828125 462.289062 185.179688 458.46875 187.605469 C 457.09375 188.484375 455.394531 188.964844 453.710938 188.964844 C 451.746094 188.964844 449.828125 188.347656 448.285156 187.1875 L 430.800781 173.726562 C 428.746094 174.527344 426.644531 175.179688 424.589844 175.75 L 418.375 196.800781 C 417.417969 200.355469 414.1875 202.9375 410.492188 203.1875 L 408.839844 203.277344 C 407.460938 203.386719 405.871094 203.464844 404.1875 203.464844 " fill-opacity="1" fill-rule="nonzero"/></g><path fill="#6db6e7" d="M 404.1875 151.453125 C 377.167969 151.453125 355.203125 129.441406 355.203125 102.390625 C 355.203125 75.355469 377.167969 53.347656 404.1875 53.347656 C 431.296875 53.347656 453.261719 75.355469 453.261719 102.390625 C 453.261719 129.441406 431.296875 151.453125 404.1875 151.453125 Z M 474.667969 108.402344 C 474.855469 106.394531 474.933594 104.402344 474.933594 102.390625 C 474.933594 100.367188 474.855469 98.355469 474.667969 96.347656 L 495.398438 82.21875 C 496.570312 81.402344 497.128906 79.917969 496.757812 78.527344 C 495.660156 74.460938 494.515625 70.8125 493.203125 67.320312 C 492.597656 65.972656 491.378906 65.21875 489.863281 65.140625 L 464.714844 65.835938 C 462.707031 62.449219 460.324219 59.234375 457.683594 56.175781 L 466.136719 32.417969 C 466.632812 31.027344 466.183594 29.511719 465.085938 28.585938 C 462.351562 26.359375 459.367188 24.195312 455.550781 21.753906 C 454.3125 20.964844 452.703125 21.027344 451.621094 21.921875 L 431.667969 37.269531 C 427.882812 35.679688 424.09375 34.394531 420.261719 33.515625 L 413.226562 9.496094 C 412.808594 8.132812 411.574219 7.128906 410.074219 7.039062 L 409.023438 6.960938 C 405.824219 6.742188 402.546875 6.742188 399.441406 6.960938 L 398.34375 7.039062 C 396.890625 7.128906 395.699219 8.132812 395.234375 9.496094 L 388.203125 33.515625 C 384.371094 34.394531 380.535156 35.679688 376.75 37.269531 L 356.886719 21.921875 C 355.695312 21.027344 354.105469 20.964844 352.882812 21.753906 C 349.035156 24.195312 346.066406 26.359375 343.378906 28.585938 C 342.28125 29.511719 341.832031 31.027344 342.28125 32.417969 L 350.78125 56.175781 C 348.125 59.234375 345.757812 62.449219 343.75 65.835938 L 318.554688 65.140625 C 317.363281 65.21875 315.804688 65.972656 315.261719 67.320312 C 313.886719 70.8125 312.757812 74.460938 311.691406 78.527344 C 311.335938 79.917969 311.875 81.402344 313.066406 82.21875 L 333.792969 96.347656 C 333.5625 98.355469 333.46875 100.367188 333.46875 102.390625 C 333.46875 104.402344 333.5625 106.394531 333.792969 108.402344 L 313.066406 122.578125 C 311.875 123.398438 311.335938 124.882812 311.691406 126.273438 C 312.757812 130.304688 313.886719 133.96875 315.261719 137.433594 C 315.804688 138.777344 317.363281 139.78125 318.554688 139.640625 L 343.75 138.914062 C 345.757812 142.285156 348.125 145.5625 350.78125 148.621094 L 342.28125 172.378906 C 341.832031 173.769531 342.28125 175.269531 343.378906 176.214844 C 346.113281 178.453125 349.21875 180.679688 352.882812 183.03125 C 354.152344 183.789062 355.695312 183.757812 356.886719 182.859375 L 376.796875 167.464844 C 380.535156 169.117188 384.371094 170.386719 388.203125 171.234375 L 395.234375 195.289062 C 395.699219 196.679688 396.890625 197.667969 398.34375 197.761719 L 399.886719 197.867188 C 401.3125 197.945312 402.761719 198.054688 404.1875 198.054688 C 405.636719 198.054688 407.105469 197.945312 408.574219 197.867188 L 410.074219 197.761719 C 411.542969 197.667969 412.808594 196.679688 413.226562 195.289062 L 420.261719 171.234375 C 424.03125 170.386719 427.882812 169.117188 431.667969 167.464844 L 451.621094 182.859375 C 452.75 183.726562 454.3125 183.789062 455.550781 183.03125 C 459.195312 180.679688 462.289062 178.453125 465.085938 176.214844 C 466.183594 175.269531 466.632812 173.769531 466.136719 172.378906 L 457.683594 148.621094 C 460.324219 145.5625 462.707031 142.285156 464.714844 138.914062 L 489.863281 139.640625 C 491.378906 139.765625 492.597656 138.777344 493.203125 137.433594 C 494.515625 133.96875 495.660156 130.304688 496.757812 126.273438 C 497.128906 124.882812 496.570312 123.398438 495.398438 122.578125 L 474.667969 108.402344 " fill-opacity="1" fill-rule="nonzero"/><g clip-path="url(#c528566c71)"><path fill="#ffffff" d="M 162.609375 239.863281 C 146.640625 239.863281 133.671875 252.863281 133.671875 268.785156 C 133.671875 284.722656 146.640625 297.675781 162.609375 297.675781 C 178.546875 297.675781 191.5 284.722656 191.5 268.785156 C 191.5 252.863281 178.546875 239.863281 162.609375 239.863281 Z M 162.609375 335.804688 C 161.511719 335.804688 160.414062 335.730469 159.503906 335.667969 L 158.496094 335.589844 C 156.039062 335.417969 153.84375 333.71875 153.210938 331.355469 L 149.101562 317.429688 C 147.722656 317.042969 146.316406 316.578125 144.988281 316.035156 L 133.394531 324.957031 C 132.390625 325.726562 131.109375 326.191406 129.792969 326.191406 C 128.695312 326.191406 127.597656 325.867188 126.640625 325.25 C 124.167969 323.71875 122.035156 322.171875 119.980469 320.488281 C 118.0625 318.867188 117.320312 316.285156 118.15625 313.933594 L 123.085938 300.132812 C 122.160156 299.003906 121.339844 297.8125 120.566406 296.683594 L 106.003906 297.070312 C 105.914062 297.070312 105.820312 297.070312 105.679688 297.070312 C 103.363281 297.070312 101.167969 295.554688 100.253906 293.347656 C 99.34375 290.917969 98.523438 288.339844 97.78125 285.523438 C 97.148438 283.144531 98.152344 280.609375 100.164062 279.1875 L 112.171875 270.964844 C 112.125 270.222656 112.125 269.511719 112.125 268.785156 C 112.125 268.058594 112.125 267.332031 112.171875 266.621094 L 100.164062 258.351562 C 98.152344 256.992188 97.148438 254.472656 97.78125 252.0625 C 98.523438 249.230469 99.34375 246.652344 100.300781 244.222656 C 101.167969 242.121094 103.316406 240.589844 105.679688 240.515625 C 105.726562 240.515625 105.914062 240.515625 105.960938 240.515625 L 120.566406 240.917969 C 121.339844 239.710938 122.203125 238.566406 123.085938 237.421875 L 118.15625 223.589844 C 117.320312 221.285156 118.0625 218.65625 119.980469 217.082031 C 121.941406 215.488281 124.042969 213.988281 126.640625 212.320312 C 127.597656 211.703125 128.695312 211.378906 129.792969 211.378906 C 131.109375 211.378906 132.390625 211.839844 133.394531 212.644531 L 144.988281 221.503906 C 146.363281 221.007812 147.722656 220.527344 149.101562 220.140625 L 153.210938 206.183594 C 153.84375 203.820312 156.039062 202.121094 158.496094 201.980469 L 159.191406 201.933594 C 160.289062 201.855469 161.464844 201.792969 162.609375 201.792969 C 163.753906 201.792969 164.898438 201.855469 165.992188 201.933594 L 166.71875 201.980469 C 169.179688 202.121094 171.328125 203.820312 172.007812 206.230469 L 176.117188 220.140625 C 177.492188 220.527344 178.808594 221.007812 180.230469 221.53125 L 191.824219 212.597656 C 192.78125 211.839844 194.109375 211.378906 195.394531 211.378906 C 196.476562 211.378906 197.617188 211.703125 198.578125 212.320312 C 201.234375 214.003906 203.339844 215.535156 205.207031 217.082031 C 207.171875 218.65625 207.898438 221.285156 206.984375 223.636719 L 202.101562 237.421875 C 202.96875 238.550781 203.878906 239.710938 204.605469 240.917969 C 204.605469 240.917969 219.304688 240.515625 219.398438 240.515625 C 219.398438 240.515625 219.445312 240.515625 219.492188 240.515625 C 221.996094 240.636719 224.050781 242.058594 224.871094 244.253906 C 225.828125 246.652344 226.664062 249.1875 227.433594 252.0625 C 228.023438 254.472656 227.066406 256.992188 225.054688 258.351562 L 213.015625 266.621094 C 213.058594 267.332031 213.058594 268.058594 213.058594 268.785156 C 213.058594 269.511719 213.058594 270.222656 213.015625 270.964844 L 225.054688 279.1875 C 227.066406 280.609375 227.976562 283.144531 227.433594 285.523438 C 226.707031 288.367188 225.828125 290.917969 224.871094 293.347656 C 224.003906 295.601562 221.949219 297.070312 219.582031 297.070312 C 219.398438 297.070312 219.304688 297.070312 219.164062 297.070312 L 204.605469 296.683594 C 203.878906 297.8125 202.96875 299.003906 202.101562 300.132812 L 206.984375 313.949219 C 207.851562 316.285156 207.171875 318.867188 205.253906 320.488281 C 203.246094 322.113281 201.050781 323.65625 198.53125 325.25 C 197.664062 325.867188 196.566406 326.191406 195.394531 326.191406 C 194.109375 326.191406 192.828125 325.726562 191.824219 324.957031 L 180.230469 316.035156 C 178.855469 316.578125 177.492188 317.042969 176.117188 317.429688 L 172.007812 331.386719 C 171.328125 333.71875 169.179688 335.417969 166.71875 335.589844 L 165.667969 335.667969 C 164.804688 335.730469 163.707031 335.804688 162.609375 335.804688 " fill-opacity="1" fill-rule="nonzero"/></g><path fill="#ed1d49" d="M 162.609375 301.304688 C 144.679688 301.304688 130.101562 286.683594 130.101562 268.785156 C 130.101562 250.855469 144.679688 236.261719 162.609375 236.261719 C 180.507812 236.261719 195.113281 250.855469 195.113281 268.785156 C 195.113281 286.683594 180.507812 301.304688 162.609375 301.304688 Z M 209.304688 272.773438 C 209.398438 271.429688 209.445312 270.128906 209.445312 268.785156 C 209.445312 267.441406 209.398438 266.109375 209.304688 264.8125 L 223.046875 255.382812 C 223.789062 254.890625 224.144531 253.882812 223.910156 252.941406 C 223.230469 250.253906 222.457031 247.855469 221.546875 245.523438 C 221.222656 244.640625 220.402344 244.160156 219.398438 244.101562 L 202.6875 244.5625 C 201.328125 242.339844 199.765625 240.191406 198.035156 238.148438 L 203.601562 222.429688 C 203.972656 221.503906 203.695312 220.464844 202.921875 219.878906 C 201.144531 218.394531 199.179688 216.957031 196.660156 215.351562 C 195.839844 214.808594 194.742188 214.871094 194.015625 215.472656 L 180.769531 225.628906 C 178.265625 224.578125 175.761719 223.710938 173.195312 223.15625 L 168.542969 207.203125 C 168.265625 206.308594 167.445312 205.660156 166.488281 205.566406 L 165.808594 205.519531 C 163.660156 205.378906 161.511719 205.378906 159.410156 205.519531 L 158.683594 205.566406 C 157.769531 205.660156 156.90625 206.308594 156.628906 207.203125 L 151.976562 223.15625 C 149.410156 223.710938 146.90625 224.578125 144.402344 225.628906 L 131.199219 215.472656 C 130.425781 214.871094 129.375 214.808594 128.558594 215.351562 C 126.085938 216.957031 124.074219 218.394531 122.25 219.878906 C 121.523438 220.464844 121.199219 221.503906 121.523438 222.429688 L 127.183594 238.148438 C 125.449219 240.191406 123.90625 242.339844 122.484375 244.5625 L 105.820312 244.101562 C 105 244.117188 103.996094 244.640625 103.625 245.523438 C 102.714844 247.855469 101.988281 250.253906 101.261719 252.941406 C 101.027344 253.882812 101.445312 254.890625 102.171875 255.382812 L 115.960938 264.8125 C 115.773438 266.109375 115.726562 267.441406 115.726562 268.785156 C 115.726562 270.128906 115.773438 271.429688 115.960938 272.773438 L 102.171875 282.140625 C 101.445312 282.710938 101.027344 283.683594 101.261719 284.613281 C 101.988281 287.273438 102.714844 289.699219 103.625 292.015625 C 103.996094 292.929688 105 293.578125 105.820312 293.484375 L 122.484375 293.007812 C 123.90625 295.246094 125.449219 297.378906 127.183594 299.421875 L 121.523438 315.171875 C 121.199219 316.082031 121.523438 317.101562 122.25 317.707031 C 124.074219 319.207031 126.128906 320.6875 128.558594 322.21875 C 129.375 322.761719 130.425781 322.699219 131.199219 322.113281 L 144.445312 311.925781 C 146.90625 312.992188 149.410156 313.859375 151.976562 314.460938 L 156.628906 330.351562 C 156.90625 331.277344 157.769531 331.941406 158.683594 332.003906 L 159.734375 332.082031 C 160.691406 332.144531 161.605469 332.175781 162.609375 332.175781 C 163.566406 332.175781 164.527344 332.144531 165.4375 332.082031 L 166.488281 332.003906 C 167.445312 331.941406 168.265625 331.277344 168.542969 330.351562 L 173.195312 314.460938 C 175.761719 313.859375 178.265625 312.992188 180.769531 311.925781 L 194.015625 322.113281 C 194.742188 322.699219 195.75 322.714844 196.660156 322.21875 C 199.042969 320.6875 201.097656 319.207031 202.921875 317.707031 C 203.695312 317.101562 203.972656 316.082031 203.601562 315.171875 L 198.035156 299.421875 C 199.765625 297.378906 201.328125 295.246094 202.6875 293.007812 L 219.398438 293.484375 C 220.308594 293.546875 221.222656 292.929688 221.546875 292.015625 C 222.503906 289.699219 223.230469 287.273438 223.910156 284.613281 C 224.144531 283.683594 223.789062 282.710938 223.046875 282.140625 L 209.304688 272.773438 " fill-opacity="1" fill-rule="nonzero"/><g fill="#000000" fill-opacity="0.702"><g transform="translate(180.29341, 212.92551)"><g><path d="M 70.296875 -59.578125 C 70.566406 -50.535156 70.789062 -41.488281 70.96875 -32.4375 C 71.15625 -23.382812 71.382812 -14.335938 71.65625 -5.296875 C 71.75 -2.671875 71.113281 -0.566406 69.75 1.015625 C 68.394531 2.597656 66.722656 3.640625 64.734375 4.140625 C 62.742188 4.640625 60.726562 4.613281 58.6875 4.0625 C 56.65625 3.519531 54.9375 2.476562 53.53125 0.9375 C 52.132812 -0.59375 51.390625 -2.671875 51.296875 -5.296875 C 51.210938 -8.003906 51.144531 -10.710938 51.09375 -13.421875 C 51.050781 -16.140625 50.984375 -18.859375 50.890625 -21.578125 L 30.53125 -22.265625 C 29.8125 -18.910156 29.132812 -15.515625 28.5 -12.078125 C 27.863281 -8.640625 27.226562 -5.203125 26.59375 -1.765625 C 26.144531 0.765625 25.128906 2.617188 23.546875 3.796875 C 21.960938 4.972656 20.128906 5.5625 18.046875 5.5625 C 15.960938 5.5625 13.992188 5.019531 12.140625 3.9375 C 10.285156 2.851562 8.835938 1.363281 7.796875 -0.53125 C 6.765625 -2.4375 6.472656 -4.65625 6.921875 -7.1875 C 8.546875 -16.0625 10.375 -24.835938 12.40625 -33.515625 C 14.445312 -42.203125 17.320312 -50.664062 21.03125 -58.90625 C 22.84375 -62.976562 25.148438 -67.363281 27.953125 -72.0625 C 30.765625 -76.769531 33.957031 -81.09375 37.53125 -85.03125 C 41.101562 -88.96875 45.0625 -91.882812 49.40625 -93.78125 C 53.476562 -95.5 56.78125 -95.816406 59.3125 -94.734375 C 61.84375 -93.648438 63.832031 -91.679688 65.28125 -88.828125 C 66.726562 -85.972656 67.789062 -82.738281 68.46875 -79.125 C 69.144531 -75.507812 69.597656 -71.9375 69.828125 -68.40625 C 70.054688 -64.875 70.210938 -61.929688 70.296875 -59.578125 Z M 36.921875 -44.65625 C 36.828125 -44.289062 36.710938 -43.925781 36.578125 -43.5625 C 36.441406 -43.195312 36.28125 -42.835938 36.09375 -42.484375 C 38.539062 -42.390625 40.941406 -42.296875 43.296875 -42.203125 C 45.648438 -42.117188 48.003906 -42.03125 50.359375 -41.9375 C 50.265625 -44.832031 50.191406 -47.75 50.140625 -50.6875 C 50.097656 -53.632812 50.03125 -56.597656 49.9375 -59.578125 C 49.851562 -60.753906 49.8125 -62 49.8125 -63.3125 C 49.8125 -64.625 49.8125 -65.957031 49.8125 -67.3125 C 48.269531 -65.507812 46.957031 -63.75 45.875 -62.03125 C 44.0625 -59.3125 42.410156 -56.503906 40.921875 -53.609375 C 39.429688 -50.710938 38.097656 -47.726562 36.921875 -44.65625 Z M 36.921875 -44.65625 "/></g></g></g><g fill="#000000" fill-opacity="0.702"><g transform="translate(251.543381, 212.92551)"><g><path d="M 54.828125 -92.5625 C 59.171875 -90.84375 63.128906 -88.535156 66.703125 -85.640625 C 70.273438 -82.742188 73.171875 -79.441406 75.390625 -75.734375 C 77.609375 -72.023438 78.875 -68 79.1875 -63.65625 C 79.507812 -59.3125 78.582031 -54.785156 76.40625 -50.078125 C 73.601562 -44.285156 69.710938 -39.710938 64.734375 -36.359375 C 59.753906 -33.015625 54.253906 -30.84375 48.234375 -29.84375 C 42.222656 -28.851562 36.28125 -29.082031 30.40625 -30.53125 C 29.863281 -25.375 29.316406 -20.21875 28.765625 -15.0625 C 28.222656 -9.90625 27.679688 -4.75 27.140625 0.40625 C 26.867188 3.03125 25.988281 5.109375 24.5 6.640625 C 23.007812 8.179688 21.222656 9.222656 19.140625 9.765625 C 17.054688 10.316406 15.019531 10.316406 13.03125 9.765625 C 11.039062 9.222656 9.457031 8.179688 8.28125 6.640625 C 7.101562 5.109375 6.601562 3.03125 6.78125 0.40625 C 8.050781 -11.71875 9.273438 -23.882812 10.453125 -36.09375 C 11.628906 -48.3125 12.894531 -60.484375 14.25 -72.609375 C 14.882812 -77.398438 16.195312 -81.71875 18.1875 -85.5625 C 20.175781 -89.414062 23.566406 -92.242188 28.359375 -94.046875 C 32.617188 -95.679688 37.078125 -96.25 41.734375 -95.75 C 46.390625 -95.25 50.753906 -94.1875 54.828125 -92.5625 Z M 32.4375 -51.03125 C 34.695312 -50.394531 37.273438 -50.007812 40.171875 -49.875 C 43.066406 -49.738281 45.914062 -50.03125 48.71875 -50.75 C 51.53125 -51.476562 53.882812 -52.722656 55.78125 -54.484375 C 57.675781 -56.253906 58.757812 -58.722656 59.03125 -61.890625 C 59.21875 -63.878906 58.539062 -65.773438 57 -67.578125 C 55.457031 -69.390625 53.460938 -71 51.015625 -72.40625 C 48.578125 -73.8125 46.132812 -74.804688 43.6875 -75.390625 C 41.25 -75.984375 39.171875 -76.003906 37.453125 -75.453125 C 36.460938 -75.179688 35.851562 -75 35.625 -74.90625 C 35.394531 -74.820312 35.28125 -74.617188 35.28125 -74.296875 C 35.28125 -73.984375 35.054688 -73.421875 34.609375 -72.609375 C 34.066406 -71.335938 33.796875 -69.707031 33.796875 -67.71875 C 33.796875 -65.726562 33.75 -64.007812 33.65625 -62.5625 C 33.476562 -60.664062 33.273438 -58.742188 33.046875 -56.796875 C 32.816406 -54.847656 32.613281 -52.925781 32.4375 -51.03125 Z M 32.4375 -51.03125 "/></g></g></g><g fill="#f4ca44" fill-opacity="1"><g transform="translate(174.295528, 206.927621)"><g><path d="M 70.296875 -59.578125 C 70.566406 -50.535156 70.789062 -41.488281 70.96875 -32.4375 C 71.15625 -23.382812 71.382812 -14.335938 71.65625 -5.296875 C 71.75 -2.671875 71.113281 -0.566406 69.75 1.015625 C 68.394531 2.597656 66.722656 3.640625 64.734375 4.140625 C 62.742188 4.640625 60.726562 4.613281 58.6875 4.0625 C 56.65625 3.519531 54.9375 2.476562 53.53125 0.9375 C 52.132812 -0.59375 51.390625 -2.671875 51.296875 -5.296875 C 51.210938 -8.003906 51.144531 -10.710938 51.09375 -13.421875 C 51.050781 -16.140625 50.984375 -18.859375 50.890625 -21.578125 L 30.53125 -22.265625 C 29.8125 -18.910156 29.132812 -15.515625 28.5 -12.078125 C 27.863281 -8.640625 27.226562 -5.203125 26.59375 -1.765625 C 26.144531 0.765625 25.128906 2.617188 23.546875 3.796875 C 21.960938 4.972656 20.128906 5.5625 18.046875 5.5625 C 15.960938 5.5625 13.992188 5.019531 12.140625 3.9375 C 10.285156 2.851562 8.835938 1.363281 7.796875 -0.53125 C 6.765625 -2.4375 6.472656 -4.65625 6.921875 -7.1875 C 8.546875 -16.0625 10.375 -24.835938 12.40625 -33.515625 C 14.445312 -42.203125 17.320312 -50.664062 21.03125 -58.90625 C 22.84375 -62.976562 25.148438 -67.363281 27.953125 -72.0625 C 30.765625 -76.769531 33.957031 -81.09375 37.53125 -85.03125 C 41.101562 -88.96875 45.0625 -91.882812 49.40625 -93.78125 C 53.476562 -95.5 56.78125 -95.816406 59.3125 -94.734375 C 61.84375 -93.648438 63.832031 -91.679688 65.28125 -88.828125 C 66.726562 -85.972656 67.789062 -82.738281 68.46875 -79.125 C 69.144531 -75.507812 69.597656 -71.9375 69.828125 -68.40625 C 70.054688 -64.875 70.210938 -61.929688 70.296875 -59.578125 Z M 36.921875 -44.65625 C 36.828125 -44.289062 36.710938 -43.925781 36.578125 -43.5625 C 36.441406 -43.195312 36.28125 -42.835938 36.09375 -42.484375 C 38.539062 -42.390625 40.941406 -42.296875 43.296875 -42.203125 C 45.648438 -42.117188 48.003906 -42.03125 50.359375 -41.9375 C 50.265625 -44.832031 50.191406 -47.75 50.140625 -50.6875 C 50.097656 -53.632812 50.03125 -56.597656 49.9375 -59.578125 C 49.851562 -60.753906 49.8125 -62 49.8125 -63.3125 C 49.8125 -64.625 49.8125 -65.957031 49.8125 -67.3125 C 48.269531 -65.507812 46.957031 -63.75 45.875 -62.03125 C 44.0625 -59.3125 42.410156 -56.503906 40.921875 -53.609375 C 39.429688 -50.710938 38.097656 -47.726562 36.921875 -44.65625 Z M 36.921875 -44.65625 "/></g></g></g><g fill="#f4ca44" fill-opacity="1"><g transform="translate(245.545499, 206.927621)"><g><path d="M 54.828125 -92.5625 C 59.171875 -90.84375 63.128906 -88.535156 66.703125 -85.640625 C 70.273438 -82.742188 73.171875 -79.441406 75.390625 -75.734375 C 77.609375 -72.023438 78.875 -68 79.1875 -63.65625 C 79.507812 -59.3125 78.582031 -54.785156 76.40625 -50.078125 C 73.601562 -44.285156 69.710938 -39.710938 64.734375 -36.359375 C 59.753906 -33.015625 54.253906 -30.84375 48.234375 -29.84375 C 42.222656 -28.851562 36.28125 -29.082031 30.40625 -30.53125 C 29.863281 -25.375 29.316406 -20.21875 28.765625 -15.0625 C 28.222656 -9.90625 27.679688 -4.75 27.140625 0.40625 C 26.867188 3.03125 25.988281 5.109375 24.5 6.640625 C 23.007812 8.179688 21.222656 9.222656 19.140625 9.765625 C 17.054688 10.316406 15.019531 10.316406 13.03125 9.765625 C 11.039062 9.222656 9.457031 8.179688 8.28125 6.640625 C 7.101562 5.109375 6.601562 3.03125 6.78125 0.40625 C 8.050781 -11.71875 9.273438 -23.882812 10.453125 -36.09375 C 11.628906 -48.3125 12.894531 -60.484375 14.25 -72.609375 C 14.882812 -77.398438 16.195312 -81.71875 18.1875 -85.5625 C 20.175781 -89.414062 23.566406 -92.242188 28.359375 -94.046875 C 32.617188 -95.679688 37.078125 -96.25 41.734375 -95.75 C 46.390625 -95.25 50.753906 -94.1875 54.828125 -92.5625 Z M 32.4375 -51.03125 C 34.695312 -50.394531 37.273438 -50.007812 40.171875 -49.875 C 43.066406 -49.738281 45.914062 -50.03125 48.71875 -50.75 C 51.53125 -51.476562 53.882812 -52.722656 55.78125 -54.484375 C 57.675781 -56.253906 58.757812 -58.722656 59.03125 -61.890625 C 59.21875 -63.878906 58.539062 -65.773438 57 -67.578125 C 55.457031 -69.390625 53.460938 -71 51.015625 -72.40625 C 48.578125 -73.8125 46.132812 -74.804688 43.6875 -75.390625 C 41.25 -75.984375 39.171875 -76.003906 37.453125 -75.453125 C 36.460938 -75.179688 35.851562 -75 35.625 -74.90625 C 35.394531 -74.820312 35.28125 -74.617188 35.28125 -74.296875 C 35.28125 -73.984375 35.054688 -73.421875 34.609375 -72.609375 C 34.066406 -71.335938 33.796875 -69.707031 33.796875 -67.71875 C 33.796875 -65.726562 33.75 -64.007812 33.65625 -62.5625 C 33.476562 -60.664062 33.273438 -58.742188 33.046875 -56.796875 C 32.816406 -54.847656 32.613281 -52.925781 32.4375 -51.03125 Z M 32.4375 -51.03125 "/></g></g></g><path stroke-linecap="butt" transform="matrix(0.74889, 0, 0, 0.74889, 298.181296, 105.968004)" fill="none" stroke-linejoin="miter" d="M 49.826775 158.000356 L 114.1511 158.000356 L 120.04002 128.013287 L 87.131963 128.013287 L 92.76008 98.892081 L 121.265792 98.892081 L 127.149496 69.520506 L 98.440358 69.520506 L 104.073692 41.014794 L 136.157613 41.014794 L 142.041318 11.283311 L 78.332487 11.283311 Z M 49.826775 158.000356 " stroke="#3a3a3a" stroke-width="15.720975" stroke-opacity="1" stroke-miterlimit="4"/><g fill="#a6a6a6" fill-opacity="1"><g transform="translate(339.405377, 224.292702)"><g><path d="M -3.921875 0 L 44.265625 0 L 48.65625 -22.453125 L 24.015625 -22.453125 L 28.25 -44.265625 L 49.609375 -44.265625 L 54 -66.234375 L 32.5 -66.234375 L 36.734375 -87.59375 L 60.75 -87.59375 L 65.140625 -109.875 L 17.421875 -109.875 Z M -3.921875 0 "/></g></g></g></svg>