<svg xmlns="http://www.w3.org/2000/svg" xmlns:xlink="http://www.w3.org/1999/xlink" width="800" zoomAndPan="magnify" viewBox="0 0 600 337.499995" height="450" preserveAspectRatio="xMidYMid meet" version="1.0"><defs><g/><clipPath id="18295903a9"><path d="M 312 1.316406 L 508.898438 1.316406 L 508.898438 204 L 312 204 Z M 312 1.316406 " clip-rule="nonzero"/></clipPath><clipPath id="dfc281c345"><path d="M 104.21875 201 L 234.800781 201 L 234.800781 335.804688 L 104.21875 335.804688 Z M 104.21875 201 " clip-rule="nonzero"/></clipPath><clipPath id="0e12d095c2"><path d="M 31 104 L 575 104 L 575 337 L 31 337 Z M 31 104 " clip-rule="nonzero"/></clipPath></defs><path fill="#ff66c4" d="M 262.730469 232.539062 C 234.058594 232.539062 210.765625 209.214844 210.765625 180.542969 C 210.765625 151.898438 234.058594 128.621094 262.730469 128.621094 C 291.386719 128.621094 314.710938 151.898438 314.710938 180.542969 C 314.710938 209.214844 291.386719 232.539062 262.730469 232.539062 Z M 337.402344 186.941406 C 337.589844 184.839844 337.679688 182.722656 337.679688 180.542969 C 337.679688 178.421875 337.589844 176.304688 337.402344 174.171875 L 359.320312 159.164062 C 360.589844 158.34375 361.144531 156.722656 360.773438 155.238281 C 359.675781 150.988281 358.394531 147.109375 356.988281 143.414062 C 356.429688 141.945312 355.117188 141.171875 353.507812 141.078125 L 326.859375 141.820312 C 324.667969 138.28125 322.207031 134.835938 319.425781 131.605469 L 328.359375 106.363281 C 328.824219 104.957031 328.453125 103.332031 327.214844 102.328125 C 324.339844 99.980469 321.203125 97.675781 317.140625 95.109375 C 315.855469 94.246094 314.171875 94.351562 312.933594 95.296875 L 291.851562 111.542969 C 287.832031 109.839844 283.765625 108.496094 279.703125 107.570312 L 272.265625 82.113281 C 271.851562 80.675781 270.488281 79.59375 268.976562 79.5 L 267.738281 79.40625 C 264.414062 79.191406 261.03125 79.191406 257.691406 79.40625 L 256.515625 79.5 C 254.957031 79.59375 253.6875 80.675781 253.222656 82.113281 L 245.742188 107.570312 C 241.722656 108.496094 237.613281 109.839844 233.59375 111.542969 L 212.558594 95.296875 C 211.320312 94.351562 209.589844 94.246094 208.304688 95.109375 C 204.335938 97.675781 201.089844 99.980469 198.230469 102.328125 C 197.085938 103.332031 196.621094 104.957031 197.160156 106.363281 L 206.113281 131.605469 C 203.28125 134.835938 200.777344 138.28125 198.628906 141.820312 L 172.011719 141.078125 C 170.636719 141.125 169.046875 141.945312 168.457031 143.414062 C 167.035156 147.109375 165.753906 150.988281 164.671875 155.238281 C 164.300781 156.722656 164.855469 158.34375 166.125 159.164062 L 188.089844 174.171875 C 187.855469 176.304688 187.765625 178.421875 187.765625 180.542969 C 187.765625 182.722656 187.855469 184.839844 188.089844 186.941406 L 166.125 201.933594 C 164.855469 202.84375 164.300781 204.390625 164.671875 205.90625 C 165.753906 210.15625 167.035156 214.003906 168.457031 217.699219 C 169.046875 219.136719 170.636719 220.1875 172.011719 220.050781 L 198.628906 219.324219 C 200.777344 222.847656 203.28125 226.292969 206.113281 229.523438 L 197.160156 254.75 C 196.621094 256.1875 197.085938 257.8125 198.230469 258.816406 C 201.195312 261.164062 204.472656 263.546875 208.304688 266.019531 C 209.683594 266.851562 211.320312 266.777344 212.558594 265.816406 L 233.59375 249.570312 C 237.660156 251.304688 241.722656 252.648438 245.742188 253.542969 L 253.222656 279.03125 C 253.6875 280.515625 254.957031 281.535156 256.515625 281.644531 L 258.15625 281.753906 C 259.65625 281.863281 261.167969 281.9375 262.730469 281.9375 C 264.277344 281.9375 265.820312 281.863281 267.382812 281.753906 L 268.976562 281.644531 C 270.488281 281.535156 271.851562 280.515625 272.265625 279.03125 L 279.703125 253.542969 C 283.765625 252.648438 287.832031 251.304688 291.851562 249.570312 L 312.933594 265.816406 C 314.171875 266.761719 315.855469 266.851562 317.140625 266.019531 C 321.019531 263.546875 324.339844 261.164062 327.214844 258.816406 C 328.453125 257.8125 328.824219 256.1875 328.359375 254.75 L 319.425781 229.523438 C 322.207031 226.292969 324.710938 222.847656 326.859375 219.324219 L 353.507812 220.050781 C 355.117188 220.140625 356.429688 219.136719 356.988281 217.699219 C 358.441406 214.003906 359.675781 210.15625 360.773438 205.90625 C 361.144531 204.390625 360.589844 202.84375 359.320312 201.933594 L 337.402344 186.941406 " fill-opacity="1" fill-rule="nonzero"/><path fill="#ffffff" d="M 396.386719 197.050781 C 376.757812 197.050781 360.773438 212.9375 360.773438 232.570312 C 360.773438 252.199219 376.757812 268.121094 396.386719 268.121094 C 415.925781 268.121094 431.890625 252.199219 431.890625 232.570312 C 431.890625 212.9375 415.925781 197.050781 396.386719 197.050781 Z M 396.386719 314.953125 C 395.011719 314.953125 393.636719 314.894531 392.554688 314.816406 L 391.269531 314.738281 C 388.210938 314.523438 385.613281 312.449219 384.792969 309.53125 L 379.722656 292.371094 C 378.039062 291.878906 376.386719 291.335938 374.652344 290.71875 L 360.464844 301.644531 C 359.226562 302.605469 357.667969 303.175781 356.027344 303.175781 C 354.652344 303.175781 353.292969 302.742188 352.101562 302.046875 C 349.132812 300.132812 346.492188 298.214844 343.972656 296.175781 C 341.605469 294.210938 340.695312 290.949219 341.699219 288.089844 L 347.804688 271.132812 C 346.628906 269.742188 345.625 268.304688 344.621094 266.851562 L 326.816406 267.378906 C 326.628906 267.378906 326.535156 267.378906 326.351562 267.378906 C 323.523438 267.378906 320.785156 265.476562 319.734375 262.742188 C 318.589844 259.773438 317.539062 256.636719 316.628906 253.203125 C 315.855469 250.238281 317.046875 247.128906 319.503906 245.367188 L 334.34375 235.210938 C 334.296875 234.363281 334.296875 233.449219 334.296875 232.570312 C 334.296875 231.6875 334.296875 230.808594 334.390625 229.910156 L 319.597656 219.785156 C 317.046875 218.117188 315.855469 214.996094 316.628906 212.027344 C 317.539062 208.488281 318.546875 205.351562 319.734375 202.351562 C 320.742188 199.769531 323.429688 197.945312 326.351562 197.808594 C 326.445312 197.808594 326.628906 197.808594 326.628906 197.808594 L 344.621094 198.285156 C 345.625 196.847656 346.707031 195.378906 347.804688 194.035156 L 341.699219 177.03125 C 340.695312 174.171875 341.605469 170.941406 343.972656 168.996094 C 346.351562 167.03125 348.902344 165.160156 352.101562 163.136719 C 353.292969 162.378906 354.652344 161.992188 356.027344 161.992188 C 357.667969 161.992188 359.226562 162.519531 360.464844 163.523438 L 374.652344 174.453125 C 376.386719 173.785156 378.070312 173.246094 379.722656 172.765625 L 384.792969 155.625 C 385.644531 152.671875 388.257812 150.617188 391.269531 150.445312 L 392.136719 150.371094 C 393.558594 150.261719 394.917969 150.230469 396.386719 150.230469 C 397.746094 150.230469 399.214844 150.261719 400.589844 150.371094 L 401.441406 150.445312 C 404.46875 150.617188 407.066406 152.671875 407.886719 155.625 L 413.003906 172.78125 C 414.640625 173.246094 416.324219 173.785156 418.011719 174.453125 L 432.261719 163.476562 C 433.453125 162.519531 435.042969 161.992188 436.652344 161.992188 C 438.058594 161.992188 439.433594 162.378906 440.5625 163.136719 C 443.855469 165.207031 446.40625 167.0625 448.785156 168.996094 C 451.074219 170.941406 452.03125 174.171875 450.980469 177.03125 L 444.953125 194.035156 C 446.050781 195.378906 447.101562 196.847656 448.058594 198.285156 C 448.058594 198.285156 466.082031 197.808594 466.128906 197.808594 C 466.222656 197.808594 466.265625 197.808594 466.3125 197.808594 C 469.375 197.945312 471.925781 199.691406 472.976562 202.414062 C 474.121094 205.351562 475.125 208.488281 476.082031 211.980469 C 476.808594 214.996094 475.617188 218.117188 473.070312 219.800781 L 458.324219 229.910156 C 458.367188 230.808594 458.367188 231.6875 458.367188 232.570312 C 458.367188 233.449219 458.367188 234.363281 458.324219 235.210938 L 473.160156 245.367188 C 475.617188 247.082031 476.808594 250.191406 476.082031 253.128906 C 475.171875 256.667969 474.121094 259.820312 472.976562 262.789062 C 471.878906 265.539062 469.234375 267.378906 466.3125 267.378906 C 466.222656 267.378906 466.050781 267.378906 465.941406 267.378906 L 448.058594 266.851562 C 447.101562 268.304688 446.050781 269.742188 444.953125 271.132812 L 450.980469 288.136719 C 451.984375 290.949219 451.074219 294.210938 448.785156 296.128906 C 446.375 298.136719 443.667969 300.039062 440.5625 302.046875 C 439.433594 302.742188 438.105469 303.128906 436.652344 303.128906 C 435.089844 303.128906 433.546875 302.605469 432.261719 301.675781 L 418.011719 290.71875 C 416.371094 291.335938 414.640625 291.878906 413.003906 292.371094 L 407.886719 309.546875 C 407.066406 312.40625 404.515625 314.523438 401.441406 314.738281 L 400.128906 314.816406 C 399.03125 314.894531 397.699219 314.953125 396.386719 314.953125 " fill-opacity="1" fill-rule="nonzero"/><path fill="#abd91a" d="M 396.386719 272.554688 C 374.28125 272.554688 356.398438 254.625 356.398438 232.570312 C 356.398438 210.511719 374.28125 192.597656 396.386719 192.597656 C 418.382812 192.597656 436.328125 210.511719 436.328125 232.570312 C 436.328125 254.625 418.382812 272.554688 396.386719 272.554688 Z M 453.808594 237.46875 C 453.902344 235.847656 453.996094 234.222656 453.996094 232.570312 C 453.996094 230.914062 453.902344 229.292969 453.808594 227.683594 L 470.65625 216.109375 C 471.617188 215.472656 472.0625 214.253906 471.800781 213.125 C 470.875 209.816406 469.960938 206.847656 468.878906 204.003906 C 468.414062 202.890625 467.363281 202.273438 466.128906 202.210938 L 445.632812 202.753906 C 444.039062 200.046875 442.078125 197.421875 439.929688 194.945312 L 446.824219 175.535156 C 447.195312 174.40625 446.867188 173.183594 445.910156 172.378906 C 443.761719 170.617188 441.304688 168.839844 438.199219 166.847656 C 437.191406 166.210938 435.910156 166.273438 434.996094 166.984375 L 418.753906 179.476562 C 415.644531 178.175781 412.539062 177.140625 409.433594 176.460938 L 403.636719 156.847656 C 403.328125 155.71875 402.320312 154.914062 401.132812 154.867188 L 400.21875 154.773438 C 397.652344 154.621094 395.011719 154.621094 392.460938 154.773438 L 391.546875 154.867188 C 390.359375 154.914062 389.355469 155.71875 389.027344 156.847656 L 383.277344 176.460938 C 380.171875 177.140625 377.035156 178.175781 373.925781 179.476562 L 357.757812 166.984375 C 356.753906 166.273438 355.472656 166.210938 354.515625 166.847656 C 351.421875 168.839844 348.949219 170.617188 346.753906 172.378906 C 345.859375 173.183594 345.488281 174.40625 345.902344 175.535156 L 352.78125 194.945312 C 350.632812 197.421875 348.71875 200.046875 347.03125 202.753906 L 326.535156 202.210938 C 325.53125 202.257812 324.265625 202.890625 323.847656 204.003906 C 322.703125 206.847656 321.792969 209.816406 320.925781 213.125 C 320.648438 214.253906 321.066406 215.472656 322.070312 216.109375 L 338.949219 227.683594 C 338.777344 229.292969 338.730469 230.914062 338.730469 232.570312 C 338.730469 234.222656 338.777344 235.847656 338.949219 237.46875 L 322.070312 249.015625 C 321.066406 249.710938 320.648438 250.917969 320.925781 252.0625 C 321.792969 255.335938 322.703125 258.304688 323.847656 261.164062 C 324.265625 262.261719 325.53125 263.050781 326.535156 262.925781 L 347.03125 262.371094 C 348.71875 265.089844 350.632812 267.71875 352.78125 270.222656 L 345.902344 289.621094 C 345.488281 290.765625 345.859375 292 346.753906 292.757812 C 348.996094 294.582031 351.5625 296.40625 354.515625 298.292969 C 355.472656 298.941406 356.753906 298.894531 357.757812 298.136719 L 373.957031 285.648438 C 377.066406 286.945312 380.171875 287.996094 383.277344 288.710938 L 389.027344 308.324219 C 389.355469 309.40625 390.359375 310.242188 391.546875 310.300781 L 392.816406 310.425781 C 394.007812 310.441406 395.148438 310.550781 396.386719 310.550781 C 397.515625 310.550781 398.75 310.441406 399.847656 310.425781 L 401.132812 310.300781 C 402.320312 310.242188 403.328125 309.40625 403.636719 308.324219 L 409.433594 288.710938 C 412.492188 287.996094 415.644531 286.945312 418.753906 285.648438 L 434.996094 298.136719 C 435.910156 298.863281 437.191406 298.941406 438.199219 298.292969 C 441.164062 296.40625 443.714844 294.582031 445.910156 292.757812 C 446.867188 292 447.195312 290.765625 446.824219 289.621094 L 439.929688 270.222656 C 442.078125 267.71875 444.039062 265.089844 445.632812 262.371094 L 466.128906 262.925781 C 467.363281 263.003906 468.414062 262.261719 468.878906 261.164062 C 469.960938 258.304688 470.964844 255.335938 471.800781 252.0625 C 472.0625 250.917969 471.617188 249.710938 470.65625 249.015625 L 453.808594 237.46875 " fill-opacity="1" fill-rule="nonzero"/><g clip-path="url(#18295903a9)"><path fill="#ffffff" d="M 410.808594 58.800781 C 386.804688 58.800781 367.25 78.355469 367.25 102.390625 C 367.25 126.425781 386.804688 145.996094 410.808594 145.996094 C 434.90625 145.996094 454.441406 126.425781 454.441406 102.390625 C 454.441406 78.355469 434.90625 58.800781 410.808594 58.800781 Z M 410.808594 203.464844 C 409.167969 203.464844 407.5625 203.386719 406.15625 203.277344 L 404.6875 203.1875 C 400.855469 202.9375 397.652344 200.386719 396.648438 196.800781 L 390.449219 175.75 C 388.394531 175.179688 386.339844 174.527344 384.238281 173.726562 L 366.800781 187.140625 C 365.332031 188.300781 363.324219 189.011719 361.359375 189.011719 C 359.675781 189.011719 357.992188 188.515625 356.585938 187.605469 C 352.921875 185.269531 349.628906 182.9375 346.539062 180.417969 C 343.664062 178.023438 342.519531 174.035156 343.878906 170.523438 L 351.238281 149.6875 C 349.90625 147.957031 348.640625 146.242188 347.402344 144.433594 L 325.53125 145.097656 C 325.347656 145.097656 325.175781 145.097656 324.992188 145.097656 C 321.511719 145.097656 318.144531 142.75 316.859375 139.394531 C 315.390625 135.746094 314.171875 131.914062 313.027344 127.632812 C 312.117188 124.0625 313.539062 120.226562 316.582031 118.09375 L 334.757812 105.652344 C 334.714844 104.617188 334.714844 103.488281 334.714844 102.390625 C 334.714844 101.308594 334.714844 100.226562 334.757812 99.082031 L 316.628906 86.703125 C 313.582031 84.632812 312.117188 80.796875 313.027344 77.148438 C 314.171875 72.867188 315.390625 68.988281 316.859375 65.308594 C 318.097656 62.15625 321.34375 59.867188 324.992188 59.730469 C 325.082031 59.730469 325.347656 59.730469 325.347656 59.730469 L 347.402344 60.300781 C 348.640625 58.554688 349.90625 56.792969 351.238281 55.078125 L 343.785156 34.195312 C 342.519531 30.734375 343.664062 26.761719 346.539062 24.378906 C 349.460938 21.96875 352.644531 19.679688 356.585938 17.191406 C 357.992188 16.28125 359.675781 15.785156 361.359375 15.785156 C 363.324219 15.785156 365.257812 16.480469 366.800781 17.640625 L 384.238281 31.074219 C 386.339844 30.269531 388.441406 29.589844 390.449219 29.03125 L 396.648438 7.996094 C 397.699219 4.363281 400.898438 1.8125 404.6875 1.613281 L 405.691406 1.535156 C 407.332031 1.441406 409.125 1.332031 410.808594 1.332031 C 412.539062 1.332031 414.269531 1.441406 416.015625 1.535156 L 417.113281 1.613281 C 420.761719 1.8125 423.945312 4.363281 424.996094 7.996094 L 431.210938 29.03125 C 433.265625 29.605469 435.367188 30.269531 437.425781 31.074219 L 454.90625 17.59375 C 456.359375 16.480469 458.277344 15.785156 460.285156 15.785156 C 462.015625 15.785156 463.671875 16.28125 465.125 17.191406 C 469.097656 19.742188 472.25 22.03125 475.125 24.378906 C 478 26.761719 479.144531 30.734375 477.859375 34.242188 L 470.425781 55.078125 C 471.800781 56.792969 473.070312 58.523438 474.257812 60.300781 C 474.257812 60.300781 496.4375 59.730469 496.484375 59.730469 C 496.53125 59.730469 496.625 59.730469 496.71875 59.730469 C 500.410156 59.867188 503.566406 62.046875 504.832031 65.402344 C 506.300781 68.941406 507.492188 72.789062 508.636719 77.148438 C 509.546875 80.796875 508.125 84.632812 505.035156 86.703125 L 486.949219 99.082031 C 486.949219 100.226562 486.949219 101.308594 486.949219 102.390625 C 486.949219 103.488281 486.949219 104.617188 486.949219 105.652344 L 505.035156 118.09375 C 508.125 120.226562 509.546875 124.015625 508.636719 127.617188 C 507.492188 131.960938 506.300781 135.792969 504.800781 139.488281 C 503.519531 142.886719 500.289062 145.097656 496.71875 145.097656 C 496.53125 145.097656 496.4375 145.097656 496.269531 145.097656 L 474.257812 144.433594 C 473.070312 146.242188 471.800781 147.957031 470.425781 149.6875 L 477.859375 170.554688 C 479.144531 174.035156 478 178.023438 475.171875 180.386719 C 472.15625 182.828125 468.910156 185.179688 465.09375 187.605469 C 463.71875 188.484375 462.015625 188.964844 460.332031 188.964844 C 458.367188 188.964844 456.453125 188.347656 454.90625 187.1875 L 437.425781 173.726562 C 435.367188 174.527344 433.265625 175.179688 431.210938 175.75 L 424.996094 196.800781 C 424.039062 200.355469 420.808594 202.9375 417.113281 203.1875 L 415.460938 203.277344 C 414.085938 203.386719 412.492188 203.464844 410.808594 203.464844 " fill-opacity="1" fill-rule="nonzero"/></g><path fill="#6db6e7" d="M 410.808594 151.453125 C 383.789062 151.453125 361.824219 129.441406 361.824219 102.390625 C 361.824219 75.355469 383.789062 53.347656 410.808594 53.347656 C 437.917969 53.347656 459.882812 75.355469 459.882812 102.390625 C 459.882812 129.441406 437.917969 151.453125 410.808594 151.453125 Z M 481.292969 108.402344 C 481.476562 106.394531 481.554688 104.402344 481.554688 102.390625 C 481.554688 100.367188 481.476562 98.355469 481.292969 96.347656 L 502.019531 82.21875 C 503.195312 81.402344 503.75 79.917969 503.378906 78.527344 C 502.28125 74.460938 501.136719 70.8125 499.824219 67.320312 C 499.222656 65.972656 498 65.21875 496.484375 65.140625 L 471.335938 65.835938 C 469.328125 62.449219 466.949219 59.234375 464.304688 56.175781 L 472.757812 32.417969 C 473.253906 31.027344 472.804688 29.511719 471.707031 28.585938 C 468.972656 26.359375 465.988281 24.195312 462.171875 21.753906 C 460.933594 20.964844 459.328125 21.027344 458.246094 21.921875 L 438.289062 37.269531 C 434.503906 35.679688 430.714844 34.394531 426.882812 33.515625 L 419.851562 9.496094 C 419.433594 8.132812 418.195312 7.128906 416.695312 7.039062 L 415.644531 6.960938 C 412.445312 6.742188 409.167969 6.742188 406.0625 6.960938 L 404.964844 7.039062 C 403.511719 7.128906 402.320312 8.132812 401.859375 9.496094 L 394.824219 33.515625 C 390.992188 34.394531 387.160156 35.679688 383.371094 37.269531 L 363.507812 21.921875 C 362.320312 21.027344 360.726562 20.964844 359.507812 21.753906 C 355.65625 24.195312 352.691406 26.359375 350 28.585938 C 348.902344 29.511719 348.453125 31.027344 348.902344 32.417969 L 357.402344 56.175781 C 354.746094 59.234375 352.378906 62.449219 350.371094 65.835938 L 325.175781 65.140625 C 323.984375 65.21875 322.425781 65.972656 321.882812 67.320312 C 320.507812 70.8125 319.378906 74.460938 318.3125 78.527344 C 317.957031 79.917969 318.5 81.402344 319.6875 82.21875 L 340.417969 96.347656 C 340.183594 98.355469 340.09375 100.367188 340.09375 102.390625 C 340.09375 104.402344 340.183594 106.394531 340.417969 108.402344 L 319.6875 122.578125 C 318.5 123.398438 317.957031 124.882812 318.3125 126.273438 C 319.378906 130.304688 320.507812 133.96875 321.882812 137.433594 C 322.425781 138.777344 323.984375 139.78125 325.175781 139.640625 L 350.371094 138.914062 C 352.378906 142.285156 354.746094 145.5625 357.402344 148.621094 L 348.902344 172.378906 C 348.453125 173.769531 348.902344 175.269531 350 176.214844 C 352.734375 178.453125 355.84375 180.679688 359.507812 183.03125 C 360.773438 183.789062 362.320312 183.757812 363.507812 182.859375 L 383.417969 167.464844 C 387.160156 169.117188 390.992188 170.386719 394.824219 171.234375 L 401.859375 195.289062 C 402.320312 196.679688 403.511719 197.667969 404.964844 197.761719 L 406.511719 197.867188 C 407.933594 197.945312 409.386719 198.054688 410.808594 198.054688 C 412.261719 198.054688 413.730469 197.945312 415.199219 197.867188 L 416.695312 197.761719 C 418.164062 197.667969 419.433594 196.679688 419.851562 195.289062 L 426.882812 171.234375 C 430.65625 170.386719 434.503906 169.117188 438.289062 167.464844 L 458.246094 182.859375 C 459.375 183.726562 460.933594 183.789062 462.171875 183.03125 C 465.820312 180.679688 468.910156 178.453125 471.707031 176.214844 C 472.804688 175.269531 473.253906 173.769531 472.757812 172.378906 L 464.304688 148.621094 C 466.949219 145.5625 469.328125 142.285156 471.335938 138.914062 L 496.484375 139.640625 C 498 139.765625 499.222656 138.777344 499.824219 137.433594 C 501.136719 133.96875 502.28125 130.304688 503.378906 126.273438 C 503.75 124.882812 503.195312 123.398438 502.019531 122.578125 L 481.292969 108.402344 " fill-opacity="1" fill-rule="nonzero"/><g clip-path="url(#dfc281c345)"><path fill="#ffffff" d="M 169.230469 239.863281 C 153.265625 239.863281 140.296875 252.863281 140.296875 268.785156 C 140.296875 284.722656 153.265625 297.675781 169.230469 297.675781 C 185.167969 297.675781 198.121094 284.722656 198.121094 268.785156 C 198.121094 252.863281 185.167969 239.863281 169.230469 239.863281 Z M 169.230469 335.804688 C 168.132812 335.804688 167.035156 335.730469 166.125 335.667969 L 165.121094 335.589844 C 162.664062 335.417969 160.46875 333.71875 159.832031 331.355469 L 155.722656 317.429688 C 154.347656 317.042969 152.941406 316.578125 151.609375 316.035156 L 140.019531 324.957031 C 139.011719 325.726562 137.730469 326.191406 136.417969 326.191406 C 135.320312 326.191406 134.222656 325.867188 133.261719 325.25 C 130.789062 323.71875 128.65625 322.171875 126.601562 320.488281 C 124.683594 318.867188 123.941406 316.285156 124.777344 313.933594 L 129.707031 300.132812 C 128.78125 299.003906 127.960938 297.8125 127.1875 296.683594 L 112.628906 297.070312 C 112.535156 297.070312 112.441406 297.070312 112.304688 297.070312 C 109.984375 297.070312 107.789062 295.554688 106.878906 293.347656 C 105.964844 290.917969 105.148438 288.339844 104.40625 285.523438 C 103.769531 283.144531 104.777344 280.609375 106.785156 279.1875 L 118.796875 270.964844 C 118.75 270.222656 118.75 269.511719 118.75 268.785156 C 118.75 268.058594 118.75 267.332031 118.796875 266.621094 L 106.785156 258.351562 C 104.777344 256.992188 103.769531 254.472656 104.40625 252.0625 C 105.148438 249.230469 105.964844 246.652344 106.925781 244.222656 C 107.789062 242.121094 109.9375 240.589844 112.304688 240.515625 C 112.351562 240.515625 112.535156 240.515625 112.582031 240.515625 L 127.1875 240.917969 C 127.960938 239.710938 128.828125 238.566406 129.707031 237.421875 L 124.777344 223.589844 C 123.941406 221.285156 124.683594 218.65625 126.601562 217.082031 C 128.5625 215.488281 130.667969 213.988281 133.261719 212.320312 C 134.222656 211.703125 135.320312 211.378906 136.417969 211.378906 C 137.730469 211.378906 139.011719 211.839844 140.019531 212.644531 L 151.609375 221.503906 C 152.984375 221.007812 154.347656 220.527344 155.722656 220.140625 L 159.832031 206.183594 C 160.46875 203.820312 162.664062 202.121094 165.121094 201.980469 L 165.816406 201.933594 C 166.914062 201.855469 168.085938 201.792969 169.230469 201.792969 C 170.375 201.792969 171.519531 201.855469 172.617188 201.933594 L 173.34375 201.980469 C 175.800781 202.121094 177.949219 203.820312 178.628906 206.230469 L 182.742188 220.140625 C 184.117188 220.527344 185.429688 221.007812 186.851562 221.53125 L 198.445312 212.597656 C 199.402344 211.839844 200.734375 211.378906 202.015625 211.378906 C 203.097656 211.378906 204.242188 211.703125 205.199219 212.320312 C 207.859375 214.003906 209.960938 215.535156 211.832031 217.082031 C 213.792969 218.65625 214.519531 221.285156 213.609375 223.636719 L 208.722656 237.421875 C 209.589844 238.550781 210.5 239.710938 211.226562 240.917969 C 211.226562 240.917969 225.925781 240.515625 226.019531 240.515625 C 226.019531 240.515625 226.066406 240.515625 226.113281 240.515625 C 228.617188 240.636719 230.671875 242.058594 231.492188 244.253906 C 232.449219 246.652344 233.285156 249.1875 234.058594 252.0625 C 234.644531 254.472656 233.6875 256.992188 231.675781 258.351562 L 219.636719 266.621094 C 219.683594 267.332031 219.683594 268.058594 219.683594 268.785156 C 219.683594 269.511719 219.683594 270.222656 219.636719 270.964844 L 231.675781 279.1875 C 233.6875 280.609375 234.597656 283.144531 234.058594 285.523438 C 233.332031 288.367188 232.449219 290.917969 231.492188 293.347656 C 230.625 295.601562 228.570312 297.070312 226.207031 297.070312 C 226.019531 297.070312 225.925781 297.070312 225.789062 297.070312 L 211.226562 296.683594 C 210.5 297.8125 209.589844 299.003906 208.722656 300.132812 L 213.609375 313.949219 C 214.472656 316.285156 213.792969 318.867188 211.878906 320.488281 C 209.867188 322.113281 207.671875 323.65625 205.152344 325.25 C 204.289062 325.867188 203.191406 326.191406 202.015625 326.191406 C 200.734375 326.191406 199.449219 325.726562 198.445312 324.957031 L 186.851562 316.035156 C 185.476562 316.578125 184.117188 317.042969 182.742188 317.429688 L 178.628906 331.386719 C 177.949219 333.71875 175.800781 335.417969 173.34375 335.589844 L 172.292969 335.667969 C 171.425781 335.730469 170.328125 335.804688 169.230469 335.804688 " fill-opacity="1" fill-rule="nonzero"/></g><path fill="#ed1d49" d="M 169.230469 301.304688 C 151.300781 301.304688 136.726562 286.683594 136.726562 268.785156 C 136.726562 250.855469 151.300781 236.261719 169.230469 236.261719 C 187.128906 236.261719 201.738281 250.855469 201.738281 268.785156 C 201.738281 286.683594 187.128906 301.304688 169.230469 301.304688 Z M 215.925781 272.773438 C 216.019531 271.429688 216.066406 270.128906 216.066406 268.785156 C 216.066406 267.441406 216.019531 266.109375 215.925781 264.8125 L 229.667969 255.382812 C 230.410156 254.890625 230.765625 253.882812 230.535156 252.941406 C 229.851562 250.253906 229.082031 247.855469 228.167969 245.523438 C 227.84375 244.640625 227.023438 244.160156 226.019531 244.101562 L 209.3125 244.5625 C 207.949219 242.339844 206.390625 240.191406 204.660156 238.148438 L 210.222656 222.429688 C 210.59375 221.503906 210.316406 220.464844 209.542969 219.878906 C 207.765625 218.394531 205.800781 216.957031 203.28125 215.351562 C 202.464844 214.808594 201.367188 214.871094 200.640625 215.472656 L 187.394531 225.628906 C 184.890625 224.578125 182.386719 223.710938 179.820312 223.15625 L 175.167969 207.203125 C 174.886719 206.308594 174.070312 205.660156 173.109375 205.566406 L 172.429688 205.519531 C 170.28125 205.378906 168.132812 205.378906 166.03125 205.519531 L 165.304688 205.566406 C 164.394531 205.660156 163.527344 206.308594 163.25 207.203125 L 158.597656 223.15625 C 156.03125 223.710938 153.527344 224.578125 151.023438 225.628906 L 137.824219 215.472656 C 137.050781 214.871094 136 214.808594 135.179688 215.351562 C 132.707031 216.957031 130.695312 218.394531 128.875 219.878906 C 128.148438 220.464844 127.820312 221.503906 128.148438 222.429688 L 133.804688 238.148438 C 132.074219 240.191406 130.527344 242.339844 129.105469 244.5625 L 112.441406 244.101562 C 111.625 244.117188 110.617188 244.640625 110.246094 245.523438 C 109.335938 247.855469 108.609375 250.253906 107.882812 252.941406 C 107.652344 253.882812 108.066406 254.890625 108.792969 255.382812 L 122.582031 264.8125 C 122.398438 266.109375 122.351562 267.441406 122.351562 268.785156 C 122.351562 270.128906 122.398438 271.429688 122.582031 272.773438 L 108.792969 282.140625 C 108.066406 282.710938 107.652344 283.683594 107.882812 284.613281 C 108.609375 287.273438 109.335938 289.699219 110.246094 292.015625 C 110.617188 292.929688 111.625 293.578125 112.441406 293.484375 L 129.105469 293.007812 C 130.527344 295.246094 132.074219 297.378906 133.804688 299.421875 L 128.148438 315.171875 C 127.820312 316.082031 128.148438 317.101562 128.875 317.707031 C 130.695312 319.207031 132.753906 320.6875 135.179688 322.21875 C 136 322.761719 137.050781 322.699219 137.824219 322.113281 L 151.070312 311.925781 C 153.527344 312.992188 156.03125 313.859375 158.597656 314.460938 L 163.25 330.351562 C 163.527344 331.277344 164.394531 331.941406 165.304688 332.003906 L 166.355469 332.082031 C 167.316406 332.144531 168.226562 332.175781 169.230469 332.175781 C 170.191406 332.175781 171.148438 332.144531 172.058594 332.082031 L 173.109375 332.003906 C 174.070312 331.941406 174.886719 331.277344 175.167969 330.351562 L 179.820312 314.460938 C 182.386719 313.859375 184.890625 312.992188 187.394531 311.925781 L 200.640625 322.113281 C 201.367188 322.699219 202.371094 322.714844 203.28125 322.21875 C 205.664062 320.6875 207.71875 319.207031 209.542969 317.707031 C 210.316406 317.101562 210.59375 316.082031 210.222656 315.171875 L 204.660156 299.421875 C 206.390625 297.378906 207.949219 295.246094 209.3125 293.007812 L 226.019531 293.484375 C 226.933594 293.546875 227.84375 292.929688 228.167969 292.015625 C 229.128906 289.699219 229.851562 287.273438 230.535156 284.613281 C 230.765625 283.683594 230.410156 282.710938 229.667969 282.140625 L 215.925781 272.773438 " fill-opacity="1" fill-rule="nonzero"/><g fill="#000000" fill-opacity="0.702"><g transform="translate(152.162126, 147.540799)"><g><path d="M 70.296875 -59.578125 C 70.566406 -50.535156 70.789062 -41.488281 70.96875 -32.4375 C 71.15625 -23.382812 71.382812 -14.335938 71.65625 -5.296875 C 71.75 -2.671875 71.113281 -0.566406 69.75 1.015625 C 68.394531 2.597656 66.722656 3.640625 64.734375 4.140625 C 62.742188 4.640625 60.726562 4.613281 58.6875 4.0625 C 56.65625 3.519531 54.9375 2.476562 53.53125 0.9375 C 52.132812 -0.59375 51.390625 -2.671875 51.296875 -5.296875 C 51.210938 -8.003906 51.144531 -10.710938 51.09375 -13.421875 C 51.050781 -16.140625 50.984375 -18.859375 50.890625 -21.578125 L 30.53125 -22.265625 C 29.8125 -18.910156 29.132812 -15.515625 28.5 -12.078125 C 27.863281 -8.640625 27.226562 -5.203125 26.59375 -1.765625 C 26.144531 0.765625 25.128906 2.617188 23.546875 3.796875 C 21.960938 4.972656 20.128906 5.5625 18.046875 5.5625 C 15.960938 5.5625 13.992188 5.019531 12.140625 3.9375 C 10.285156 2.851562 8.835938 1.363281 7.796875 -0.53125 C 6.765625 -2.4375 6.472656 -4.65625 6.921875 -7.1875 C 8.546875 -16.0625 10.375 -24.835938 12.40625 -33.515625 C 14.445312 -42.203125 17.320312 -50.664062 21.03125 -58.90625 C 22.84375 -62.976562 25.148438 -67.363281 27.953125 -72.0625 C 30.765625 -76.769531 33.957031 -81.09375 37.53125 -85.03125 C 41.101562 -88.96875 45.0625 -91.882812 49.40625 -93.78125 C 53.476562 -95.5 56.78125 -95.816406 59.3125 -94.734375 C 61.84375 -93.648438 63.832031 -91.679688 65.28125 -88.828125 C 66.726562 -85.972656 67.789062 -82.738281 68.46875 -79.125 C 69.144531 -75.507812 69.597656 -71.9375 69.828125 -68.40625 C 70.054688 -64.875 70.210938 -61.929688 70.296875 -59.578125 Z M 36.921875 -44.65625 C 36.828125 -44.289062 36.710938 -43.925781 36.578125 -43.5625 C 36.441406 -43.195312 36.28125 -42.835938 36.09375 -42.484375 C 38.539062 -42.390625 40.941406 -42.296875 43.296875 -42.203125 C 45.648438 -42.117188 48.003906 -42.03125 50.359375 -41.9375 C 50.265625 -44.832031 50.191406 -47.75 50.140625 -50.6875 C 50.097656 -53.632812 50.03125 -56.597656 49.9375 -59.578125 C 49.851562 -60.753906 49.8125 -62 49.8125 -63.3125 C 49.8125 -64.625 49.8125 -65.957031 49.8125 -67.3125 C 48.269531 -65.507812 46.957031 -63.75 45.875 -62.03125 C 44.0625 -59.3125 42.410156 -56.503906 40.921875 -53.609375 C 39.429688 -50.710938 38.097656 -47.726562 36.921875 -44.65625 Z M 36.921875 -44.65625 "/></g></g></g><g fill="#000000" fill-opacity="0.702"><g transform="translate(223.412097, 147.540799)"><g><path d="M 59.71875 -82.25 C 60.082031 -84.78125 61.03125 -86.632812 62.5625 -87.8125 C 64.101562 -88.988281 65.890625 -89.578125 67.921875 -89.578125 C 69.960938 -89.578125 71.929688 -89.03125 73.828125 -87.9375 C 75.734375 -86.851562 77.226562 -85.359375 78.3125 -83.453125 C 79.394531 -81.554688 79.753906 -79.34375 79.390625 -76.8125 C 75.679688 -51.84375 71.066406 -27.050781 65.546875 -2.4375 C 65.097656 -0.445312 64.082031 1.175781 62.5 2.4375 C 60.914062 3.707031 59.082031 4.5 57 4.8125 C 54.914062 5.132812 52.945312 4.910156 51.09375 4.140625 C 49.238281 3.367188 47.859375 1.988281 46.953125 0 C 44.878906 -4.976562 42.753906 -9.929688 40.578125 -14.859375 C 38.410156 -19.796875 36.238281 -24.707031 34.0625 -29.59375 C 32.707031 -23.707031 31.394531 -17.800781 30.125 -11.875 C 28.863281 -5.945312 27.6875 -0.046875 26.59375 5.828125 C 26.144531 8.453125 25.101562 10.351562 23.46875 11.53125 C 21.84375 12.707031 20.007812 13.273438 17.96875 13.234375 C 15.9375 13.191406 13.992188 12.648438 12.140625 11.609375 C 10.285156 10.566406 8.835938 9.09375 7.796875 7.1875 C 6.765625 5.289062 6.519531 3.03125 7.0625 0.40625 C 11.039062 -21.125 15.925781 -42.476562 21.71875 -63.65625 C 22.257812 -65.550781 23.34375 -67.128906 24.96875 -68.390625 C 26.601562 -69.660156 28.4375 -70.476562 30.46875 -70.84375 C 32.5 -71.207031 34.421875 -71.023438 36.234375 -70.296875 C 38.046875 -69.578125 39.40625 -68.175781 40.3125 -66.09375 L 52.25 -38.546875 C 53.695312 -45.785156 55.03125 -53.046875 56.25 -60.328125 C 57.476562 -67.609375 58.632812 -74.914062 59.71875 -82.25 Z M 59.71875 -82.25 "/></g></g></g><g fill="#000000" fill-opacity="0.702"><g transform="translate(302.533498, 147.540799)"><g><path d="M 54.828125 -92.5625 C 59.171875 -90.84375 63.128906 -88.535156 66.703125 -85.640625 C 70.273438 -82.742188 73.171875 -79.441406 75.390625 -75.734375 C 77.609375 -72.023438 78.875 -68 79.1875 -63.65625 C 79.507812 -59.3125 78.582031 -54.785156 76.40625 -50.078125 C 73.601562 -44.285156 69.710938 -39.710938 64.734375 -36.359375 C 59.753906 -33.015625 54.253906 -30.84375 48.234375 -29.84375 C 42.222656 -28.851562 36.28125 -29.082031 30.40625 -30.53125 C 29.863281 -25.375 29.316406 -20.21875 28.765625 -15.0625 C 28.222656 -9.90625 27.679688 -4.75 27.140625 0.40625 C 26.867188 3.03125 25.988281 5.109375 24.5 6.640625 C 23.007812 8.179688 21.222656 9.222656 19.140625 9.765625 C 17.054688 10.316406 15.019531 10.316406 13.03125 9.765625 C 11.039062 9.222656 9.457031 8.179688 8.28125 6.640625 C 7.101562 5.109375 6.601562 3.03125 6.78125 0.40625 C 8.050781 -11.71875 9.273438 -23.882812 10.453125 -36.09375 C 11.628906 -48.3125 12.894531 -60.484375 14.25 -72.609375 C 14.882812 -77.398438 16.195312 -81.71875 18.1875 -85.5625 C 20.175781 -89.414062 23.566406 -92.242188 28.359375 -94.046875 C 32.617188 -95.679688 37.078125 -96.25 41.734375 -95.75 C 46.390625 -95.25 50.753906 -94.1875 54.828125 -92.5625 Z M 32.4375 -51.03125 C 34.695312 -50.394531 37.273438 -50.007812 40.171875 -49.875 C 43.066406 -49.738281 45.914062 -50.03125 48.71875 -50.75 C 51.53125 -51.476562 53.882812 -52.722656 55.78125 -54.484375 C 57.675781 -56.253906 58.757812 -58.722656 59.03125 -61.890625 C 59.21875 -63.878906 58.539062 -65.773438 57 -67.578125 C 55.457031 -69.390625 53.460938 -71 51.015625 -72.40625 C 48.578125 -73.8125 46.132812 -74.804688 43.6875 -75.390625 C 41.25 -75.984375 39.171875 -76.003906 37.453125 -75.453125 C 36.460938 -75.179688 35.851562 -75 35.625 -74.90625 C 35.394531 -74.820312 35.28125 -74.617188 35.28125 -74.296875 C 35.28125 -73.984375 35.054688 -73.421875 34.609375 -72.609375 C 34.066406 -71.335938 33.796875 -69.707031 33.796875 -67.71875 C 33.796875 -65.726562 33.75 -64.007812 33.65625 -62.5625 C 33.476562 -60.664062 33.273438 -58.742188 33.046875 -56.796875 C 32.816406 -54.847656 32.613281 -52.925781 32.4375 -51.03125 Z M 32.4375 -51.03125 "/></g></g></g><g fill="#000000" fill-opacity="0.702"><g transform="translate(381.383459, 147.540799)"><g><path d="M 70.296875 -59.3125 C 70.566406 -50.351562 70.789062 -41.347656 70.96875 -32.296875 C 71.15625 -23.253906 71.382812 -14.207031 71.65625 -5.15625 C 71.75 -2.53125 71.113281 -0.425781 69.75 1.15625 C 68.394531 2.738281 66.722656 3.773438 64.734375 4.265625 C 62.742188 4.765625 60.726562 4.765625 58.6875 4.265625 C 56.65625 3.773438 54.9375 2.738281 53.53125 1.15625 C 52.132812 -0.425781 51.390625 -2.53125 51.296875 -5.15625 C 51.210938 -7.875 51.144531 -10.566406 51.09375 -13.234375 C 51.050781 -15.898438 50.984375 -18.59375 50.890625 -21.3125 L 30.53125 -22.125 C 29.8125 -18.6875 29.132812 -15.269531 28.5 -11.875 C 27.863281 -8.476562 27.226562 -5.0625 26.59375 -1.625 C 26.144531 1 25.128906 2.894531 23.546875 4.0625 C 21.960938 5.238281 20.128906 5.804688 18.046875 5.765625 C 15.960938 5.722656 13.992188 5.179688 12.140625 4.140625 C 10.285156 3.097656 8.835938 1.628906 7.796875 -0.265625 C 6.765625 -2.171875 6.472656 -4.4375 6.921875 -7.0625 C 8.546875 -15.925781 10.375 -24.703125 12.40625 -33.390625 C 14.445312 -42.078125 17.320312 -50.535156 21.03125 -58.765625 C 22.84375 -62.835938 25.148438 -67.222656 27.953125 -71.921875 C 30.765625 -76.628906 33.957031 -80.953125 37.53125 -84.890625 C 41.101562 -88.828125 45.0625 -91.703125 49.40625 -93.515625 C 53.476562 -95.234375 56.78125 -95.546875 59.3125 -94.453125 C 61.84375 -93.367188 63.832031 -91.425781 65.28125 -88.625 C 66.726562 -85.820312 67.789062 -82.585938 68.46875 -78.921875 C 69.144531 -75.253906 69.597656 -71.65625 69.828125 -68.125 C 70.054688 -64.601562 70.210938 -61.664062 70.296875 -59.3125 Z M 36.09375 -42.203125 C 38.539062 -42.117188 40.941406 -42.03125 43.296875 -41.9375 C 45.648438 -41.84375 48.003906 -41.753906 50.359375 -41.671875 C 50.265625 -44.648438 50.191406 -47.609375 50.140625 -50.546875 C 50.097656 -53.492188 50.03125 -56.414062 49.9375 -59.3125 C 49.851562 -60.488281 49.8125 -61.734375 49.8125 -63.046875 C 49.8125 -64.359375 49.8125 -65.691406 49.8125 -67.046875 C 48.269531 -65.234375 46.957031 -63.515625 45.875 -61.890625 C 44.0625 -59.171875 42.410156 -56.34375 40.921875 -53.40625 C 39.429688 -50.46875 38.097656 -47.503906 36.921875 -44.515625 C 36.828125 -44.148438 36.710938 -43.765625 36.578125 -43.359375 C 36.441406 -42.953125 36.28125 -42.566406 36.09375 -42.203125 Z M 36.09375 -42.203125 "/></g></g></g><g fill="#f4ca44" fill-opacity="1"><g transform="translate(146.16424, 141.542914)"><g><path d="M 70.296875 -59.578125 C 70.566406 -50.535156 70.789062 -41.488281 70.96875 -32.4375 C 71.15625 -23.382812 71.382812 -14.335938 71.65625 -5.296875 C 71.75 -2.671875 71.113281 -0.566406 69.75 1.015625 C 68.394531 2.597656 66.722656 3.640625 64.734375 4.140625 C 62.742188 4.640625 60.726562 4.613281 58.6875 4.0625 C 56.65625 3.519531 54.9375 2.476562 53.53125 0.9375 C 52.132812 -0.59375 51.390625 -2.671875 51.296875 -5.296875 C 51.210938 -8.003906 51.144531 -10.710938 51.09375 -13.421875 C 51.050781 -16.140625 50.984375 -18.859375 50.890625 -21.578125 L 30.53125 -22.265625 C 29.8125 -18.910156 29.132812 -15.515625 28.5 -12.078125 C 27.863281 -8.640625 27.226562 -5.203125 26.59375 -1.765625 C 26.144531 0.765625 25.128906 2.617188 23.546875 3.796875 C 21.960938 4.972656 20.128906 5.5625 18.046875 5.5625 C 15.960938 5.5625 13.992188 5.019531 12.140625 3.9375 C 10.285156 2.851562 8.835938 1.363281 7.796875 -0.53125 C 6.765625 -2.4375 6.472656 -4.65625 6.921875 -7.1875 C 8.546875 -16.0625 10.375 -24.835938 12.40625 -33.515625 C 14.445312 -42.203125 17.320312 -50.664062 21.03125 -58.90625 C 22.84375 -62.976562 25.148438 -67.363281 27.953125 -72.0625 C 30.765625 -76.769531 33.957031 -81.09375 37.53125 -85.03125 C 41.101562 -88.96875 45.0625 -91.882812 49.40625 -93.78125 C 53.476562 -95.5 56.78125 -95.816406 59.3125 -94.734375 C 61.84375 -93.648438 63.832031 -91.679688 65.28125 -88.828125 C 66.726562 -85.972656 67.789062 -82.738281 68.46875 -79.125 C 69.144531 -75.507812 69.597656 -71.9375 69.828125 -68.40625 C 70.054688 -64.875 70.210938 -61.929688 70.296875 -59.578125 Z M 36.921875 -44.65625 C 36.828125 -44.289062 36.710938 -43.925781 36.578125 -43.5625 C 36.441406 -43.195312 36.28125 -42.835938 36.09375 -42.484375 C 38.539062 -42.390625 40.941406 -42.296875 43.296875 -42.203125 C 45.648438 -42.117188 48.003906 -42.03125 50.359375 -41.9375 C 50.265625 -44.832031 50.191406 -47.75 50.140625 -50.6875 C 50.097656 -53.632812 50.03125 -56.597656 49.9375 -59.578125 C 49.851562 -60.753906 49.8125 -62 49.8125 -63.3125 C 49.8125 -64.625 49.8125 -65.957031 49.8125 -67.3125 C 48.269531 -65.507812 46.957031 -63.75 45.875 -62.03125 C 44.0625 -59.3125 42.410156 -56.503906 40.921875 -53.609375 C 39.429688 -50.710938 38.097656 -47.726562 36.921875 -44.65625 Z M 36.921875 -44.65625 "/></g></g></g><g fill="#f4ca44" fill-opacity="1"><g transform="translate(217.414211, 141.542914)"><g><path d="M 59.71875 -82.25 C 60.082031 -84.78125 61.03125 -86.632812 62.5625 -87.8125 C 64.101562 -88.988281 65.890625 -89.578125 67.921875 -89.578125 C 69.960938 -89.578125 71.929688 -89.03125 73.828125 -87.9375 C 75.734375 -86.851562 77.226562 -85.359375 78.3125 -83.453125 C 79.394531 -81.554688 79.753906 -79.34375 79.390625 -76.8125 C 75.679688 -51.84375 71.066406 -27.050781 65.546875 -2.4375 C 65.097656 -0.445312 64.082031 1.175781 62.5 2.4375 C 60.914062 3.707031 59.082031 4.5 57 4.8125 C 54.914062 5.132812 52.945312 4.910156 51.09375 4.140625 C 49.238281 3.367188 47.859375 1.988281 46.953125 0 C 44.878906 -4.976562 42.753906 -9.929688 40.578125 -14.859375 C 38.410156 -19.796875 36.238281 -24.707031 34.0625 -29.59375 C 32.707031 -23.707031 31.394531 -17.800781 30.125 -11.875 C 28.863281 -5.945312 27.6875 -0.046875 26.59375 5.828125 C 26.144531 8.453125 25.101562 10.351562 23.46875 11.53125 C 21.84375 12.707031 20.007812 13.273438 17.96875 13.234375 C 15.9375 13.191406 13.992188 12.648438 12.140625 11.609375 C 10.285156 10.566406 8.835938 9.09375 7.796875 7.1875 C 6.765625 5.289062 6.519531 3.03125 7.0625 0.40625 C 11.039062 -21.125 15.925781 -42.476562 21.71875 -63.65625 C 22.257812 -65.550781 23.34375 -67.128906 24.96875 -68.390625 C 26.601562 -69.660156 28.4375 -70.476562 30.46875 -70.84375 C 32.5 -71.207031 34.421875 -71.023438 36.234375 -70.296875 C 38.046875 -69.578125 39.40625 -68.175781 40.3125 -66.09375 L 52.25 -38.546875 C 53.695312 -45.785156 55.03125 -53.046875 56.25 -60.328125 C 57.476562 -67.609375 58.632812 -74.914062 59.71875 -82.25 Z M 59.71875 -82.25 "/></g></g></g><g fill="#f4ca44" fill-opacity="1"><g transform="translate(296.535612, 141.542914)"><g><path d="M 54.828125 -92.5625 C 59.171875 -90.84375 63.128906 -88.535156 66.703125 -85.640625 C 70.273438 -82.742188 73.171875 -79.441406 75.390625 -75.734375 C 77.609375 -72.023438 78.875 -68 79.1875 -63.65625 C 79.507812 -59.3125 78.582031 -54.785156 76.40625 -50.078125 C 73.601562 -44.285156 69.710938 -39.710938 64.734375 -36.359375 C 59.753906 -33.015625 54.253906 -30.84375 48.234375 -29.84375 C 42.222656 -28.851562 36.28125 -29.082031 30.40625 -30.53125 C 29.863281 -25.375 29.316406 -20.21875 28.765625 -15.0625 C 28.222656 -9.90625 27.679688 -4.75 27.140625 0.40625 C 26.867188 3.03125 25.988281 5.109375 24.5 6.640625 C 23.007812 8.179688 21.222656 9.222656 19.140625 9.765625 C 17.054688 10.316406 15.019531 10.316406 13.03125 9.765625 C 11.039062 9.222656 9.457031 8.179688 8.28125 6.640625 C 7.101562 5.109375 6.601562 3.03125 6.78125 0.40625 C 8.050781 -11.71875 9.273438 -23.882812 10.453125 -36.09375 C 11.628906 -48.3125 12.894531 -60.484375 14.25 -72.609375 C 14.882812 -77.398438 16.195312 -81.71875 18.1875 -85.5625 C 20.175781 -89.414062 23.566406 -92.242188 28.359375 -94.046875 C 32.617188 -95.679688 37.078125 -96.25 41.734375 -95.75 C 46.390625 -95.25 50.753906 -94.1875 54.828125 -92.5625 Z M 32.4375 -51.03125 C 34.695312 -50.394531 37.273438 -50.007812 40.171875 -49.875 C 43.066406 -49.738281 45.914062 -50.03125 48.71875 -50.75 C 51.53125 -51.476562 53.882812 -52.722656 55.78125 -54.484375 C 57.675781 -56.253906 58.757812 -58.722656 59.03125 -61.890625 C 59.21875 -63.878906 58.539062 -65.773438 57 -67.578125 C 55.457031 -69.390625 53.460938 -71 51.015625 -72.40625 C 48.578125 -73.8125 46.132812 -74.804688 43.6875 -75.390625 C 41.25 -75.984375 39.171875 -76.003906 37.453125 -75.453125 C 36.460938 -75.179688 35.851562 -75 35.625 -74.90625 C 35.394531 -74.820312 35.28125 -74.617188 35.28125 -74.296875 C 35.28125 -73.984375 35.054688 -73.421875 34.609375 -72.609375 C 34.066406 -71.335938 33.796875 -69.707031 33.796875 -67.71875 C 33.796875 -65.726562 33.75 -64.007812 33.65625 -62.5625 C 33.476562 -60.664062 33.273438 -58.742188 33.046875 -56.796875 C 32.816406 -54.847656 32.613281 -52.925781 32.4375 -51.03125 Z M 32.4375 -51.03125 "/></g></g></g><g fill="#f4ca44" fill-opacity="1"><g transform="translate(375.385573, 141.542914)"><g><path d="M 70.296875 -59.3125 C 70.566406 -50.351562 70.789062 -41.347656 70.96875 -32.296875 C 71.15625 -23.253906 71.382812 -14.207031 71.65625 -5.15625 C 71.75 -2.53125 71.113281 -0.425781 69.75 1.15625 C 68.394531 2.738281 66.722656 3.773438 64.734375 4.265625 C 62.742188 4.765625 60.726562 4.765625 58.6875 4.265625 C 56.65625 3.773438 54.9375 2.738281 53.53125 1.15625 C 52.132812 -0.425781 51.390625 -2.53125 51.296875 -5.15625 C 51.210938 -7.875 51.144531 -10.566406 51.09375 -13.234375 C 51.050781 -15.898438 50.984375 -18.59375 50.890625 -21.3125 L 30.53125 -22.125 C 29.8125 -18.6875 29.132812 -15.269531 28.5 -11.875 C 27.863281 -8.476562 27.226562 -5.0625 26.59375 -1.625 C 26.144531 1 25.128906 2.894531 23.546875 4.0625 C 21.960938 5.238281 20.128906 5.804688 18.046875 5.765625 C 15.960938 5.722656 13.992188 5.179688 12.140625 4.140625 C 10.285156 3.097656 8.835938 1.628906 7.796875 -0.265625 C 6.765625 -2.171875 6.472656 -4.4375 6.921875 -7.0625 C 8.546875 -15.925781 10.375 -24.703125 12.40625 -33.390625 C 14.445312 -42.078125 17.320312 -50.535156 21.03125 -58.765625 C 22.84375 -62.835938 25.148438 -67.222656 27.953125 -71.921875 C 30.765625 -76.628906 33.957031 -80.953125 37.53125 -84.890625 C 41.101562 -88.828125 45.0625 -91.703125 49.40625 -93.515625 C 53.476562 -95.234375 56.78125 -95.546875 59.3125 -94.453125 C 61.84375 -93.367188 63.832031 -91.425781 65.28125 -88.625 C 66.726562 -85.820312 67.789062 -82.585938 68.46875 -78.921875 C 69.144531 -75.253906 69.597656 -71.65625 69.828125 -68.125 C 70.054688 -64.601562 70.210938 -61.664062 70.296875 -59.3125 Z M 36.09375 -42.203125 C 38.539062 -42.117188 40.941406 -42.03125 43.296875 -41.9375 C 45.648438 -41.84375 48.003906 -41.753906 50.359375 -41.671875 C 50.265625 -44.648438 50.191406 -47.609375 50.140625 -50.546875 C 50.097656 -53.492188 50.03125 -56.414062 49.9375 -59.3125 C 49.851562 -60.488281 49.8125 -61.734375 49.8125 -63.046875 C 49.8125 -64.359375 49.8125 -65.691406 49.8125 -67.046875 C 48.269531 -65.234375 46.957031 -63.515625 45.875 -61.890625 C 44.0625 -59.171875 42.410156 -56.34375 40.921875 -53.40625 C 39.429688 -50.46875 38.097656 -47.503906 36.921875 -44.515625 C 36.828125 -44.148438 36.710938 -43.765625 36.578125 -43.359375 C 36.441406 -42.953125 36.28125 -42.566406 36.09375 -42.203125 Z M 36.09375 -42.203125 "/></g></g></g><g clip-path="url(#0e12d095c2)"><path stroke-linecap="butt" transform="matrix(0.74889, 0, 0, 0.74889, 69.025529, 164.200135)" fill="none" stroke-linejoin="miter" d="M 38.559463 157.998137 L 102.889003 157.998137 L 108.772707 128.011067 L 75.869866 128.011067 L 81.497983 98.895078 L 109.998479 98.895078 L 115.887399 69.518286 L 87.178262 69.518286 L 92.806379 41.017791 L 124.890301 41.017791 L 130.779221 11.281092 L 67.065174 11.281092 Z M 123.873171 157.998137 L 154.016722 157.998137 L 167.880982 86.715602 L 178.782526 157.998137 L 207.288237 157.998137 L 235.788733 11.281092 L 205.598237 11.281092 L 192.187774 78.781991 L 182.110366 11.281092 L 152.378883 11.281092 Z M 283.166112 160.100205 C 292.99315 160.100205 301.996051 157.794711 310.388675 154.007859 L 326.355003 72.079367 L 286.697378 72.079367 L 281.476112 99.713998 L 292.581082 99.713998 L 286.28531 131.182426 C 285.471606 131.391068 284.391884 131.391068 283.369538 131.391068 C 276.666914 131.391068 271.65429 124.89187 271.65429 110.000048 C 271.65429 97.205078 276.666914 59.487823 290.891082 45.211495 C 294.886576 41.273377 299.492348 39.171309 304.963984 39.171309 C 312.694169 39.171309 319.600219 42.702575 326.099417 47.772575 L 332.191763 16.502357 C 326.767071 12.971092 318.171022 9.18424 305.172626 9.18424 C 291.35531 9.18424 279.582686 14.202079 269.296636 24.488129 C 248.161203 45.670507 239.977221 86.50696 239.977221 109.384554 C 239.977221 142.902889 256.553827 160.100205 283.166112 160.100205 Z M 332.635127 157.998137 L 364.056611 157.998137 L 392.557106 11.281092 L 361.135623 11.281092 Z M 387.56013 157.998137 L 417.703681 157.998137 L 431.573158 86.715602 L 442.469485 157.998137 L 470.975197 157.998137 L 499.480908 11.281092 L 469.285197 11.281092 L 455.879949 78.781991 L 445.797325 11.281092 L 416.065842 11.281092 Z M 494.045785 157.998137 L 558.370109 157.998137 L 564.253813 128.011067 L 531.350972 128.011067 L 536.979089 98.895078 L 565.484801 98.895078 L 571.368505 69.518286 L 542.659368 69.518286 L 548.287485 41.017791 L 580.376623 41.017791 L 586.260327 11.281092 L 522.54628 11.281092 Z M 494.045785 157.998137 " stroke="#3a3a3a" stroke-width="15.720975" stroke-opacity="1" stroke-miterlimit="4"/></g><g fill="#a6a6a6" fill-opacity="1"><g transform="translate(101.812891, 282.524833)"><g><path d="M -3.921875 0 L 44.265625 0 L 48.65625 -22.453125 L 24.015625 -22.453125 L 28.25 -44.265625 L 49.609375 -44.265625 L 54 -66.234375 L 32.5 -66.234375 L 36.734375 -87.59375 L 60.75 -87.59375 L 65.140625 -109.875 L 17.421875 -109.875 Z M -3.921875 0 "/></g></g></g><g fill="#a6a6a6" fill-opacity="1"><g transform="translate(165.701628, 282.524833)"><g><path d="M -3.921875 0 L 18.671875 0 L 29.046875 -53.375 L 37.203125 0 L 58.546875 0 L 79.890625 -109.875 L 57.296875 -109.875 L 47.25 -59.328125 L 39.71875 -109.875 L 17.421875 -109.875 Z M -3.921875 0 "/></g></g></g><g fill="#a6a6a6" fill-opacity="1"><g transform="translate(245.444776, 282.524833)"><g><path d="M 35.625 1.5625 C 43.015625 1.5625 49.765625 -0.15625 56.03125 -2.984375 L 67.96875 -64.359375 L 38.296875 -64.359375 L 34.375 -43.640625 L 42.703125 -43.640625 L 37.984375 -20.09375 C 37.359375 -19.9375 36.578125 -19.9375 35.78125 -19.9375 C 30.765625 -19.9375 27 -24.796875 27 -35.953125 C 27 -45.515625 30.765625 -73.78125 41.4375 -84.453125 C 44.421875 -87.4375 47.875 -89 51.953125 -89 C 57.765625 -89 62.9375 -86.328125 67.8125 -82.5625 L 72.359375 -105.953125 C 68.28125 -108.625 61.84375 -111.453125 52.109375 -111.453125 C 41.75 -111.453125 32.96875 -107.6875 25.265625 -99.984375 C 9.421875 -84.140625 3.296875 -53.53125 3.296875 -36.421875 C 3.296875 -11.296875 15.703125 1.5625 35.625 1.5625 Z M 35.625 1.5625 "/></g></g></g><g fill="#a6a6a6" fill-opacity="1"><g transform="translate(321.734475, 282.524833)"><g><path d="M -3.609375 0 L 19.9375 0 L 41.28125 -109.875 L 17.734375 -109.875 Z M -3.609375 0 "/></g></g></g><g fill="#a6a6a6" fill-opacity="1"><g transform="translate(363.175855, 282.524833)"><g><path d="M -3.921875 0 L 18.671875 0 L 29.046875 -53.375 L 37.203125 0 L 58.546875 0 L 79.890625 -109.875 L 57.296875 -109.875 L 47.25 -59.328125 L 39.71875 -109.875 L 17.421875 -109.875 Z M -3.921875 0 "/></g></g></g><g fill="#a6a6a6" fill-opacity="1"><g transform="translate(442.919002, 282.524833)"><g><path d="M -3.921875 0 L 44.265625 0 L 48.65625 -22.453125 L 24.015625 -22.453125 L 28.25 -44.265625 L 49.609375 -44.265625 L 54 -66.234375 L 32.5 -66.234375 L 36.734375 -87.59375 L 60.75 -87.59375 L 65.140625 -109.875 L 17.421875 -109.875 Z M -3.921875 0 "/></g></g></g></svg>